<?xml version="1.0" encoding="utf-8" standalone="no"?>
<!DOCTYPE svg PUBLIC "-//W3C//DTD SVG 1.1//EN"
  "http://www.w3.org/Graphics/SVG/1.1/DTD/svg11.dtd">
<svg xmlns:xlink="http://www.w3.org/1999/xlink" width="493.385756pt" height="321.052956pt" viewBox="0 0 493.385756 321.052956" xmlns="http://www.w3.org/2000/svg" version="1.1">
 <metadata>
  <rdf:RDF xmlns:dc="http://purl.org/dc/elements/1.1/" xmlns:cc="http://creativecommons.org/ns#" xmlns:rdf="http://www.w3.org/1999/02/22-rdf-syntax-ns#">
   <cc:Work>
    <dc:type rdf:resource="http://purl.org/dc/dcmitype/StillImage"/>
    <dc:date>2025-04-14T15:29:00.781609</dc:date>
    <dc:format>image/svg+xml</dc:format>
    <dc:creator>
     <cc:Agent>
      <dc:title>Matplotlib v3.7.0, https://matplotlib.org/</dc:title>
     </cc:Agent>
    </dc:creator>
   </cc:Work>
  </rdf:RDF>
 </metadata>
 <defs>
  <style type="text/css">*{stroke-linejoin: round; stroke-linecap: butt}</style>
 </defs>
 <g id="figure_1">
  <g id="patch_1">
   <path d="M 0 321.052956 
L 493.385756 321.052956 
L 493.385756 0 
L 0 0 
z
" style="fill: #ffffff"/>
  </g>
  <g id="axes_1">
   <g id="patch_2">
    <path d="M 39.785756 285.141602 
L 486.185756 285.141602 
L 486.185756 7.941602 
L 39.785756 7.941602 
z
" style="fill: #ffffff"/>
   </g>
   <g id="matplotlib.axis_1">
    <g id="xtick_1">
     <g id="line2d_1">
      <defs>
       <path id="m23c797d361" d="M 0 0 
L 0 3.5 
" style="stroke: #000000; stroke-width: 0.8"/>
      </defs>
      <g>
       <use xlink:href="#m23c797d361" x="60.076665" y="285.141602" style="stroke: #000000; stroke-width: 0.8"/>
      </g>
     </g>
     <g id="text_1">
      <!-- $\mathdefault{0.0}$ -->
      <g transform="translate(53.711625 299.060101) scale(0.1 -0.1)">
       <defs>
        <path id="CMR17-30" d="M 2688 2025 
C 2688 2416 2682 3080 2413 3591 
C 2176 4039 1798 4198 1466 4198 
C 1158 4198 768 4058 525 3597 
C 269 3118 243 2524 243 2025 
C 243 1661 250 1106 448 619 
C 723 -39 1216 -128 1466 -128 
C 1760 -128 2208 -7 2470 600 
C 2662 1042 2688 1559 2688 2025 
z
M 1466 -26 
C 1056 -26 813 325 723 812 
C 653 1188 653 1738 653 2096 
C 653 2588 653 2997 736 3387 
C 858 3929 1216 4096 1466 4096 
C 1728 4096 2067 3923 2189 3400 
C 2272 3036 2278 2607 2278 2096 
C 2278 1680 2278 1169 2202 792 
C 2067 95 1690 -26 1466 -26 
z
" transform="scale(0.015625)"/>
        <path id="CMMI12-3a" d="M 1178 307 
C 1178 492 1024 619 870 619 
C 685 619 557 466 557 313 
C 557 128 710 0 864 0 
C 1050 0 1178 153 1178 307 
z
" transform="scale(0.015625)"/>
       </defs>
       <use xlink:href="#CMR17-30" transform="scale(0.996264)"/>
       <use xlink:href="#CMMI12-3a" transform="translate(45.690477 0) scale(0.996264)"/>
       <use xlink:href="#CMR17-30" transform="translate(72.787654 0) scale(0.996264)"/>
      </g>
     </g>
    </g>
    <g id="xtick_2">
     <g id="line2d_2">
      <g>
       <use xlink:href="#m23c797d361" x="141.159219" y="285.141602" style="stroke: #000000; stroke-width: 0.8"/>
      </g>
     </g>
     <g id="text_2">
      <!-- $\mathdefault{0.2}$ -->
      <g transform="translate(134.794179 299.060101) scale(0.1 -0.1)">
       <defs>
        <path id="CMR17-32" d="M 2669 989 
L 2554 989 
C 2490 536 2438 459 2413 420 
C 2381 369 1920 369 1830 369 
L 602 369 
C 832 619 1280 1072 1824 1597 
C 2214 1967 2669 2402 2669 3035 
C 2669 3790 2067 4224 1395 4224 
C 691 4224 262 3604 262 3030 
C 262 2780 448 2748 525 2748 
C 589 2748 781 2787 781 3010 
C 781 3207 614 3264 525 3264 
C 486 3264 448 3258 422 3245 
C 544 3790 915 4058 1306 4058 
C 1862 4058 2227 3617 2227 3035 
C 2227 2479 1901 2000 1536 1584 
L 262 146 
L 262 0 
L 2515 0 
L 2669 989 
z
" transform="scale(0.015625)"/>
       </defs>
       <use xlink:href="#CMR17-30" transform="scale(0.996264)"/>
       <use xlink:href="#CMMI12-3a" transform="translate(45.690477 0) scale(0.996264)"/>
       <use xlink:href="#CMR17-32" transform="translate(72.787654 0) scale(0.996264)"/>
      </g>
     </g>
    </g>
    <g id="xtick_3">
     <g id="line2d_3">
      <g>
       <use xlink:href="#m23c797d361" x="222.241772" y="285.141602" style="stroke: #000000; stroke-width: 0.8"/>
      </g>
     </g>
     <g id="text_3">
      <!-- $\mathdefault{0.4}$ -->
      <g transform="translate(215.876733 299.060101) scale(0.1 -0.1)">
       <defs>
        <path id="CMR17-34" d="M 2150 4122 
C 2150 4256 2144 4256 2029 4256 
L 128 1254 
L 128 1088 
L 1779 1088 
L 1779 457 
C 1779 224 1766 160 1318 160 
L 1197 160 
L 1197 0 
C 1402 0 1747 0 1965 0 
C 2182 0 2528 0 2733 0 
L 2733 160 
L 2611 160 
C 2163 160 2150 224 2150 457 
L 2150 1088 
L 2803 1088 
L 2803 1254 
L 2150 1254 
L 2150 4122 
z
M 1798 3703 
L 1798 1254 
L 256 1254 
L 1798 3703 
z
" transform="scale(0.015625)"/>
       </defs>
       <use xlink:href="#CMR17-30" transform="scale(0.996264)"/>
       <use xlink:href="#CMMI12-3a" transform="translate(45.690477 0) scale(0.996264)"/>
       <use xlink:href="#CMR17-34" transform="translate(72.787654 0) scale(0.996264)"/>
      </g>
     </g>
    </g>
    <g id="xtick_4">
     <g id="line2d_4">
      <g>
       <use xlink:href="#m23c797d361" x="303.324326" y="285.141602" style="stroke: #000000; stroke-width: 0.8"/>
      </g>
     </g>
     <g id="text_4">
      <!-- $\mathdefault{0.6}$ -->
      <g transform="translate(296.959287 299.060101) scale(0.1 -0.1)">
       <defs>
        <path id="CMR17-36" d="M 678 2176 
C 678 3690 1395 4032 1811 4032 
C 1946 4032 2272 4009 2400 3776 
C 2298 3776 2106 3776 2106 3553 
C 2106 3381 2246 3323 2336 3323 
C 2394 3323 2566 3348 2566 3560 
C 2566 3954 2246 4179 1805 4179 
C 1043 4179 243 3390 243 1984 
C 243 253 966 -128 1478 -128 
C 2099 -128 2688 427 2688 1283 
C 2688 2081 2170 2662 1517 2662 
C 1126 2662 838 2407 678 1960 
L 678 2176 
z
M 1478 25 
C 691 25 691 1200 691 1436 
C 691 1896 909 2560 1504 2560 
C 1613 2560 1926 2560 2138 2120 
C 2253 1870 2253 1609 2253 1289 
C 2253 944 2253 690 2118 434 
C 1978 171 1773 25 1478 25 
z
" transform="scale(0.015625)"/>
       </defs>
       <use xlink:href="#CMR17-30" transform="scale(0.996264)"/>
       <use xlink:href="#CMMI12-3a" transform="translate(45.690477 0) scale(0.996264)"/>
       <use xlink:href="#CMR17-36" transform="translate(72.787654 0) scale(0.996264)"/>
      </g>
     </g>
    </g>
    <g id="xtick_5">
     <g id="line2d_5">
      <g>
       <use xlink:href="#m23c797d361" x="384.40688" y="285.141602" style="stroke: #000000; stroke-width: 0.8"/>
      </g>
     </g>
     <g id="text_5">
      <!-- $\mathdefault{0.8}$ -->
      <g transform="translate(378.041841 299.060101) scale(0.1 -0.1)">
       <defs>
        <path id="CMR17-38" d="M 1741 2264 
C 2144 2467 2554 2773 2554 3263 
C 2554 3841 1990 4179 1472 4179 
C 890 4179 378 3759 378 3180 
C 378 3021 416 2747 666 2505 
C 730 2442 998 2251 1171 2130 
C 883 1983 211 1634 211 934 
C 211 279 838 -128 1459 -128 
C 2144 -128 2720 362 2720 1010 
C 2720 1590 2330 1857 2074 2029 
L 1741 2264 
z
M 902 2822 
C 851 2854 595 3051 595 3351 
C 595 3739 998 4032 1459 4032 
C 1965 4032 2336 3676 2336 3262 
C 2336 2669 1670 2331 1638 2331 
C 1632 2331 1626 2331 1574 2370 
L 902 2822 
z
M 2080 1519 
C 2176 1449 2483 1240 2483 851 
C 2483 381 2010 25 1472 25 
C 890 25 448 438 448 940 
C 448 1443 838 1862 1280 2060 
L 2080 1519 
z
" transform="scale(0.015625)"/>
       </defs>
       <use xlink:href="#CMR17-30" transform="scale(0.996264)"/>
       <use xlink:href="#CMMI12-3a" transform="translate(45.690477 0) scale(0.996264)"/>
       <use xlink:href="#CMR17-38" transform="translate(72.787654 0) scale(0.996264)"/>
      </g>
     </g>
    </g>
    <g id="xtick_6">
     <g id="line2d_6">
      <g>
       <use xlink:href="#m23c797d361" x="465.489434" y="285.141602" style="stroke: #000000; stroke-width: 0.8"/>
      </g>
     </g>
     <g id="text_6">
      <!-- $\mathdefault{1.0}$ -->
      <g transform="translate(459.124394 299.060101) scale(0.1 -0.1)">
       <defs>
        <path id="CMR17-31" d="M 1702 4058 
C 1702 4192 1696 4192 1606 4192 
C 1357 3916 979 3827 621 3827 
C 602 3827 570 3827 563 3808 
C 557 3795 557 3782 557 3648 
C 755 3648 1088 3686 1344 3839 
L 1344 461 
C 1344 236 1331 160 781 160 
L 589 160 
L 589 0 
C 896 0 1216 0 1523 0 
C 1830 0 2150 0 2458 0 
L 2458 160 
L 2266 160 
C 1715 160 1702 230 1702 458 
L 1702 4058 
z
" transform="scale(0.015625)"/>
       </defs>
       <use xlink:href="#CMR17-31" transform="scale(0.996264)"/>
       <use xlink:href="#CMMI12-3a" transform="translate(45.690477 0) scale(0.996264)"/>
       <use xlink:href="#CMR17-30" transform="translate(72.787654 0) scale(0.996264)"/>
      </g>
     </g>
    </g>
    <g id="text_7">
     <!-- MCMC Step Number -->
     <g transform="translate(216.064405 311.915777) scale(0.1 -0.1)">
      <defs>
       <path id="CMR17-4d" d="M 1338 4224 
C 1299 4320 1293 4320 1158 4320 
L 339 4320 
L 339 4160 
C 781 4160 851 4160 851 3875 
L 851 610 
C 851 451 851 153 339 153 
L 339 -13 
C 486 0 755 0 915 0 
C 1075 0 1344 0 1491 -13 
L 1491 153 
C 979 153 979 451 979 610 
L 979 4135 
L 986 4135 
L 2490 89 
C 2515 25 2528 -13 2579 -13 
C 2630 -13 2643 25 2669 89 
L 4186 4166 
L 4192 4166 
L 4192 438 
C 4192 153 4122 153 3680 153 
L 3680 -13 
C 3853 0 4198 0 4384 0 
C 4570 0 4922 0 5094 -13 
L 5094 153 
C 4653 153 4582 153 4582 438 
L 4582 3875 
C 4582 4160 4653 4160 5094 4160 
L 5094 4320 
L 4282 4320 
C 4147 4320 4141 4314 4102 4218 
L 2720 502 
L 1338 4224 
z
" transform="scale(0.015625)"/>
       <path id="CMR17-43" d="M 3974 4289 
C 3974 4403 3968 4410 3930 4410 
C 3904 4410 3898 4403 3853 4327 
L 3571 3792 
C 3258 4187 2874 4416 2381 4416 
C 1286 4416 294 3456 294 2148 
C 294 826 1286 -128 2387 -128 
C 3366 -128 3974 730 3974 1461 
C 3974 1524 3974 1550 3917 1550 
C 3866 1550 3866 1531 3859 1474 
C 3808 585 3168 38 2477 38 
C 1824 38 781 495 781 2147 
C 781 3805 1843 4250 2464 4250 
C 3187 4250 3712 3628 3834 2745 
C 3846 2668 3846 2655 3904 2655 
C 3974 2655 3974 2668 3974 2783 
L 3974 4289 
z
" transform="scale(0.015625)"/>
       <path id="CMR17-53" d="M 2803 4290 
C 2803 4404 2797 4411 2758 4411 
C 2720 4411 2707 4385 2682 4328 
L 2490 3907 
C 2246 4257 1875 4416 1472 4416 
C 819 4416 294 3901 294 3253 
C 294 3056 339 2776 557 2510 
C 794 2218 1018 2167 1530 2033 
C 1722 1982 2042 1899 2106 1874 
C 2470 1722 2662 1341 2662 985 
C 2662 527 2336 38 1779 38 
C 1094 38 454 419 410 1311 
C 403 1413 397 1419 352 1419 
C 301 1419 294 1413 294 1285 
L 294 -1 
C 294 -115 301 -122 339 -122 
C 384 -122 397 -90 486 108 
C 493 127 493 140 614 381 
C 934 -39 1472 -128 1779 -128 
C 2477 -128 2970 451 2970 1124 
C 2970 1454 2848 1708 2778 1823 
C 2509 2230 2221 2306 1914 2382 
C 1869 2402 1856 2402 1498 2490 
C 1152 2579 1005 2624 845 2796 
C 666 2992 602 3196 602 3399 
C 602 3812 934 4263 1478 4263 
C 2157 4263 2579 3786 2675 2993 
C 2694 2878 2701 2872 2746 2872 
C 2803 2872 2803 2891 2803 2999 
L 2803 4290 
z
" transform="scale(0.015625)"/>
       <path id="CMR17-74" d="M 966 2560 
L 1862 2560 
L 1862 2725 
L 966 2725 
L 966 3904 
L 851 3904 
C 838 3245 614 2668 70 2668 
L 70 2560 
L 627 2560 
L 627 771 
C 627 650 627 -64 1370 -64 
C 1747 -64 1965 306 1965 777 
L 1965 1140 
L 1850 1140 
L 1850 783 
C 1850 344 1677 51 1408 51 
C 1222 51 966 178 966 758 
L 966 2560 
z
" transform="scale(0.015625)"/>
       <path id="CMR17-65" d="M 2438 1472 
C 2464 1498 2464 1511 2464 1576 
C 2464 2238 2118 2816 1389 2816 
C 710 2816 173 2169 173 1383 
C 173 551 781 -64 1459 -64 
C 2176 -64 2458 607 2458 740 
C 2458 784 2419 784 2406 784 
C 2362 784 2355 771 2330 696 
C 2189 265 1837 51 1504 51 
C 1229 51 954 203 781 480 
C 582 803 582 1176 582 1472 
L 2438 1472 
z
M 589 1568 
C 634 2505 1126 2714 1382 2714 
C 1818 2714 2112 2297 2118 1568 
L 589 1568 
z
" transform="scale(0.015625)"/>
       <path id="CMR17-70" d="M 1408 -1063 
C 998 -1063 973 -1037 973 -789 
L 973 402 
C 1158 134 1427 -38 1766 -38 
C 2406 -38 3053 523 3053 1388 
C 3053 2191 2496 2802 1837 2802 
C 1453 2802 1139 2592 960 2338 
L 960 2802 
L 198 2732 
L 198 2567 
C 576 2567 634 2528 634 2223 
L 634 -789 
C 634 -1031 608 -1063 198 -1063 
L 198 -1228 
C 352 -1216 634 -1216 800 -1216 
C 966 -1216 1254 -1216 1408 -1228 
L 1408 -1063 
z
M 973 2012 
C 973 2102 973 2235 1222 2471 
C 1254 2497 1472 2688 1792 2688 
C 2259 2688 2643 2108 2643 1382 
C 2643 656 2234 64 1728 64 
C 1498 64 1248 172 1056 472 
C 973 612 973 650 973 752 
L 973 2012 
z
" transform="scale(0.015625)"/>
       <path id="CMR17-4e" d="M 1312 4250 
C 1267 4320 1261 4320 1139 4320 
L 326 4320 
L 326 4160 
L 448 4160 
C 704 4160 819 4129 838 4122 
L 838 610 
C 838 451 838 153 326 153 
L 326 -13 
C 474 0 742 0 902 0 
C 1062 0 1331 0 1478 -13 
L 1478 153 
C 966 153 966 451 966 610 
L 966 4033 
C 1011 3995 1011 3982 1056 3919 
L 3430 76 
C 3475 0 3494 0 3526 0 
C 3590 0 3590 19 3590 139 
L 3590 3705 
C 3590 3863 3590 4160 4102 4160 
L 4102 4326 
C 3955 4320 3686 4320 3526 4320 
C 3366 4320 3098 4320 2950 4326 
L 2950 4160 
C 3462 4160 3462 3862 3462 3703 
L 3462 763 
L 1312 4250 
z
" transform="scale(0.015625)"/>
       <path id="CMR17-75" d="M 1882 2693 
L 1882 2528 
C 2259 2528 2317 2489 2317 2186 
L 2317 1032 
C 2317 500 2029 38 1555 38 
C 1030 38 986 348 986 678 
L 986 2763 
L 211 2693 
L 211 2528 
C 467 2528 640 2528 646 2274 
L 646 1058 
C 646 633 646 361 813 183 
C 896 101 1056 -64 1517 -64 
C 2061 -64 2272 377 2323 506 
L 2330 506 
L 2330 -63 
L 3091 -63 
L 3091 128 
C 2714 128 2656 166 2656 473 
L 2656 2763 
L 1882 2693 
z
" transform="scale(0.015625)"/>
       <path id="CMR17-6d" d="M 4326 1933 
C 4326 2252 4269 2790 3507 2790 
C 3072 2790 2771 2496 2656 2151 
L 2650 2151 
C 2573 2676 2195 2790 1837 2790 
C 1331 2790 1069 2400 973 2144 
L 966 2144 
L 966 2790 
L 211 2720 
L 211 2554 
C 589 2554 646 2515 646 2208 
L 646 428 
C 646 184 621 153 211 153 
L 211 -13 
C 365 0 646 0 813 0 
C 979 0 1267 0 1421 -13 
L 1421 153 
C 1011 153 986 178 986 428 
L 986 1658 
C 986 2247 1344 2688 1792 2688 
C 2266 2688 2317 2266 2317 1958 
L 2317 428 
C 2317 184 2291 153 1882 153 
L 1882 -13 
C 2035 0 2317 0 2483 0 
C 2650 0 2938 0 3091 -13 
L 3091 153 
C 2682 153 2656 178 2656 428 
L 2656 1658 
C 2656 2247 3014 2688 3462 2688 
C 3936 2688 3987 2266 3987 1958 
L 3987 428 
C 3987 184 3962 153 3552 153 
L 3552 -13 
C 3706 0 3987 0 4154 0 
C 4320 0 4608 0 4762 -13 
L 4762 153 
C 4352 153 4326 178 4326 428 
L 4326 1933 
z
" transform="scale(0.015625)"/>
       <path id="CMR17-62" d="M 960 4396 
L 198 4326 
L 198 4160 
C 576 4160 634 4122 634 3817 
L 634 -13 
L 749 -13 
L 934 441 
C 1120 141 1395 -64 1766 -64 
C 2406 -64 3053 500 3053 1370 
C 3053 2188 2477 2790 1830 2790 
C 1434 2790 1152 2579 960 2330 
L 960 4396 
z
M 973 2004 
C 973 2118 973 2138 1062 2272 
C 1312 2657 1670 2688 1792 2688 
C 1984 2688 2643 2585 2643 1376 
C 2643 108 1888 38 1734 38 
C 1536 38 1248 114 1043 486 
C 973 608 973 621 973 735 
L 973 2004 
z
" transform="scale(0.015625)"/>
       <path id="CMR17-72" d="M 960 1497 
C 960 2112 1222 2688 1702 2688 
C 1747 2688 1792 2682 1837 2662 
C 1837 2662 1696 2617 1696 2452 
C 1696 2298 1818 2234 1914 2234 
C 1990 2234 2131 2279 2131 2458 
C 2131 2663 1926 2790 1709 2790 
C 1222 2790 1011 2317 947 2093 
L 941 2093 
L 941 2790 
L 198 2720 
L 198 2554 
C 576 2554 634 2515 634 2208 
L 634 428 
C 634 184 608 153 198 153 
L 198 -13 
C 352 0 646 0 813 0 
C 998 0 1325 0 1498 -13 
L 1498 153 
C 1037 153 960 153 960 440 
L 960 1497 
z
" transform="scale(0.015625)"/>
      </defs>
      <use xlink:href="#CMR17-4d" transform="scale(0.996264)"/>
      <use xlink:href="#CMR17-43" transform="translate(84.686941 0) scale(0.996264)"/>
      <use xlink:href="#CMR17-4d" transform="translate(151.196821 0) scale(0.996264)"/>
      <use xlink:href="#CMR17-43" transform="translate(235.883762 0) scale(0.996264)"/>
      <use xlink:href="#CMR17-53" transform="translate(332.469609 0) scale(0.996264)"/>
      <use xlink:href="#CMR17-74" transform="translate(383.364978 0) scale(0.996264)"/>
      <use xlink:href="#CMR17-65" transform="translate(418.645746 0) scale(0.996264)"/>
      <use xlink:href="#CMR17-70" transform="translate(459.131407 0) scale(0.996264)"/>
      <use xlink:href="#CMR17-4e" transform="translate(540.102743 0) scale(0.996264)"/>
      <use xlink:href="#CMR17-75" transform="translate(609.175173 0) scale(0.996264)"/>
      <use xlink:href="#CMR17-6d" transform="translate(660.070542 0) scale(0.996264)"/>
      <use xlink:href="#CMR17-62" transform="translate(734.387678 0) scale(0.996264)"/>
      <use xlink:href="#CMR17-65" transform="translate(787.885487 0) scale(0.996264)"/>
      <use xlink:href="#CMR17-72" transform="translate(828.371147 0) scale(0.996264)"/>
     </g>
    </g>
    <g id="text_8">
     <!-- $\times\mathdefault{10^{7}}\mathdefault{}$ -->
     <g transform="translate(464.503104 310.999934) scale(0.1 -0.1)">
      <defs>
       <path id="CMSY10-2" d="M 2490 1785 
L 1210 3059 
C 1133 3136 1120 3148 1069 3148 
C 1005 3148 941 3091 941 3020 
C 941 2976 954 2963 1024 2892 
L 2304 1606 
L 1024 320 
C 954 249 941 236 941 192 
C 941 121 1005 64 1069 64 
C 1120 64 1133 76 1210 153 
L 2483 1427 
L 3808 102 
C 3821 96 3866 64 3904 64 
C 3981 64 4032 121 4032 192 
C 4032 204 4032 230 4013 262 
C 4006 275 2989 1280 2669 1606 
L 3840 2777 
C 3872 2816 3968 2899 4000 2937 
C 4006 2950 4032 2976 4032 3020 
C 4032 3091 3981 3148 3904 3148 
C 3853 3148 3827 3123 3757 3052 
L 2490 1785 
z
" transform="scale(0.015625)"/>
       <path id="CMR17-37" d="M 2886 3941 
L 2886 4081 
L 1382 4081 
C 634 4081 621 4165 595 4288 
L 480 4288 
L 294 3094 
L 410 3094 
C 429 3215 474 3540 550 3661 
C 589 3712 1062 3712 1171 3712 
L 2579 3712 
L 1869 2661 
C 1395 1954 1069 999 1069 165 
C 1069 89 1069 -128 1299 -128 
C 1530 -128 1530 89 1530 171 
L 1530 465 
C 1530 1508 1709 2196 2003 2636 
L 2886 3941 
z
" transform="scale(0.015625)"/>
      </defs>
      <use xlink:href="#CMSY10-2" transform="scale(0.996264)"/>
      <use xlink:href="#CMR17-31" transform="translate(77.487468 0) scale(0.996264)"/>
      <use xlink:href="#CMR17-30" transform="translate(123.177945 0) scale(0.996264)"/>
      <use xlink:href="#CMR17-37" transform="translate(168.868422 36.153639) scale(0.697382)"/>
     </g>
    </g>
   </g>
   <g id="matplotlib.axis_2">
    <g id="ytick_1">
     <g id="line2d_7">
      <defs>
       <path id="m5f659ab811" d="M 0 0 
L -3.5 0 
" style="stroke: #000000; stroke-width: 0.8"/>
      </defs>
      <g>
       <use xlink:href="#m5f659ab811" x="39.785756" y="282.423955" style="stroke: #000000; stroke-width: 0.8"/>
      </g>
     </g>
     <g id="text_9">
      <!-- $\mathdefault{0.0}$ -->
      <g transform="translate(20.055677 285.883204) scale(0.1 -0.1)">
       <use xlink:href="#CMR17-30" transform="scale(0.996264)"/>
       <use xlink:href="#CMMI12-3a" transform="translate(45.690477 0) scale(0.996264)"/>
       <use xlink:href="#CMR17-30" transform="translate(72.787654 0) scale(0.996264)"/>
      </g>
     </g>
    </g>
    <g id="ytick_2">
     <g id="line2d_8">
      <g>
       <use xlink:href="#m5f659ab811" x="39.785756" y="228.071014" style="stroke: #000000; stroke-width: 0.8"/>
      </g>
     </g>
     <g id="text_10">
      <!-- $\mathdefault{0.2}$ -->
      <g transform="translate(20.055677 231.530263) scale(0.1 -0.1)">
       <use xlink:href="#CMR17-30" transform="scale(0.996264)"/>
       <use xlink:href="#CMMI12-3a" transform="translate(45.690477 0) scale(0.996264)"/>
       <use xlink:href="#CMR17-32" transform="translate(72.787654 0) scale(0.996264)"/>
      </g>
     </g>
    </g>
    <g id="ytick_3">
     <g id="line2d_9">
      <g>
       <use xlink:href="#m5f659ab811" x="39.785756" y="173.718073" style="stroke: #000000; stroke-width: 0.8"/>
      </g>
     </g>
     <g id="text_11">
      <!-- $\mathdefault{0.4}$ -->
      <g transform="translate(20.055677 177.177322) scale(0.1 -0.1)">
       <use xlink:href="#CMR17-30" transform="scale(0.996264)"/>
       <use xlink:href="#CMMI12-3a" transform="translate(45.690477 0) scale(0.996264)"/>
       <use xlink:href="#CMR17-34" transform="translate(72.787654 0) scale(0.996264)"/>
      </g>
     </g>
    </g>
    <g id="ytick_4">
     <g id="line2d_10">
      <g>
       <use xlink:href="#m5f659ab811" x="39.785756" y="119.365132" style="stroke: #000000; stroke-width: 0.8"/>
      </g>
     </g>
     <g id="text_12">
      <!-- $\mathdefault{0.6}$ -->
      <g transform="translate(20.055677 122.824381) scale(0.1 -0.1)">
       <use xlink:href="#CMR17-30" transform="scale(0.996264)"/>
       <use xlink:href="#CMMI12-3a" transform="translate(45.690477 0) scale(0.996264)"/>
       <use xlink:href="#CMR17-36" transform="translate(72.787654 0) scale(0.996264)"/>
      </g>
     </g>
    </g>
    <g id="ytick_5">
     <g id="line2d_11">
      <g>
       <use xlink:href="#m5f659ab811" x="39.785756" y="65.01219" style="stroke: #000000; stroke-width: 0.8"/>
      </g>
     </g>
     <g id="text_13">
      <!-- $\mathdefault{0.8}$ -->
      <g transform="translate(20.055677 68.47144) scale(0.1 -0.1)">
       <use xlink:href="#CMR17-30" transform="scale(0.996264)"/>
       <use xlink:href="#CMMI12-3a" transform="translate(45.690477 0) scale(0.996264)"/>
       <use xlink:href="#CMR17-38" transform="translate(72.787654 0) scale(0.996264)"/>
      </g>
     </g>
    </g>
    <g id="ytick_6">
     <g id="line2d_12">
      <g>
       <use xlink:href="#m5f659ab811" x="39.785756" y="10.659249" style="stroke: #000000; stroke-width: 0.8"/>
      </g>
     </g>
     <g id="text_14">
      <!-- $\mathdefault{1.0}$ -->
      <g transform="translate(20.055677 14.118498) scale(0.1 -0.1)">
       <use xlink:href="#CMR17-31" transform="scale(0.996264)"/>
       <use xlink:href="#CMMI12-3a" transform="translate(45.690477 0) scale(0.996264)"/>
       <use xlink:href="#CMR17-30" transform="translate(72.787654 0) scale(0.996264)"/>
      </g>
     </g>
    </g>
    <g id="text_15">
     <!-- Acceptance Frequency -->
     <g transform="translate(14.118498 195.192566) rotate(-90) scale(0.1 -0.1)">
      <defs>
       <path id="CMR17-41" d="M 2323 4378 
C 2291 4461 2278 4480 2214 4480 
C 2150 4480 2138 4461 2106 4378 
L 749 566 
C 627 223 371 153 147 153 
L 147 -13 
C 262 0 518 0 640 0 
C 800 0 1056 0 1210 -13 
L 1210 153 
C 909 153 864 361 864 439 
C 864 497 877 530 890 569 
L 1229 1536 
L 2906 1536 
L 3290 442 
C 3322 365 3322 352 3322 327 
C 3322 153 3046 153 2925 153 
L 2925 0 
C 3110 0 3443 0 3642 0 
C 3808 0 4128 0 4282 -13 
L 4282 153 
C 3942 153 3827 153 3744 387 
L 2323 4378 
z
M 2067 3893 
L 2848 1702 
L 1286 1702 
L 2067 3893 
z
" transform="scale(0.015625)"/>
       <path id="CMR17-63" d="M 2234 2240 
C 2112 2240 1933 2240 1933 2017 
C 1933 1838 2080 1787 2163 1787 
C 2208 1787 2394 1807 2394 2024 
C 2394 2467 1958 2803 1466 2803 
C 787 2803 211 2178 211 1363 
C 211 516 813 -64 1466 -64 
C 2259 -64 2458 677 2458 748 
C 2458 774 2451 793 2406 793 
C 2362 793 2355 787 2330 703 
C 2163 180 1798 51 1523 51 
C 1114 51 621 427 621 1369 
C 621 2338 1094 2688 1472 2688 
C 1722 2688 2093 2573 2234 2240 
z
" transform="scale(0.015625)"/>
       <path id="CMR17-61" d="M 2304 1653 
C 2304 2072 2304 2294 2035 2543 
C 1798 2752 1523 2816 1306 2816 
C 800 2816 435 2407 435 1971 
C 435 1728 627 1728 666 1728 
C 749 1728 896 1778 896 1954 
C 896 2112 774 2181 666 2181 
C 640 2181 608 2174 589 2168 
C 723 2592 1069 2714 1293 2714 
C 1613 2714 1965 2429 1965 1885 
L 1965 1600 
C 1587 1600 1133 1549 774 1357 
C 371 1133 256 813 256 570 
C 256 77 832 -64 1171 -64 
C 1523 -64 1850 139 1990 511 
C 2003 233 2182 -18 2464 -18 
C 2598 -18 2938 70 2938 567 
L 2938 920 
L 2822 920 
L 2822 562 
C 2822 178 2650 128 2566 128 
C 2304 128 2304 458 2304 738 
L 2304 1653 
z
M 1965 870 
C 1965 317 1568 38 1216 38 
C 896 38 646 275 646 570 
C 646 761 730 1100 1101 1305 
C 1408 1478 1760 1504 1965 1504 
L 1965 870 
z
" transform="scale(0.015625)"/>
       <path id="CMR17-6e" d="M 2656 1933 
C 2656 2259 2592 2790 1837 2790 
C 1331 2790 1069 2400 973 2144 
L 966 2144 
L 966 2790 
L 211 2720 
L 211 2554 
C 589 2554 646 2515 646 2208 
L 646 428 
C 646 184 621 153 211 153 
L 211 -13 
C 365 0 646 0 813 0 
C 979 0 1267 0 1421 -13 
L 1421 153 
C 1011 153 986 178 986 428 
L 986 1658 
C 986 2247 1344 2688 1792 2688 
C 2266 2688 2317 2266 2317 1958 
L 2317 428 
C 2317 184 2291 153 1882 153 
L 1882 -13 
C 2035 0 2317 0 2483 0 
C 2650 0 2938 0 3091 -13 
L 3091 153 
C 2682 153 2656 178 2656 428 
L 2656 1933 
z
" transform="scale(0.015625)"/>
       <path id="CMR17-46" d="M 3482 4325 
L 326 4325 
L 326 4160 
C 768 4160 838 4160 838 3874 
L 838 446 
C 838 160 768 160 326 160 
L 326 0 
C 512 0 870 0 1069 0 
C 1331 0 1638 0 1901 0 
L 1901 160 
L 1760 160 
C 1274 160 1261 223 1261 452 
L 1261 2075 
L 1837 2075 
C 2432 2075 2490 1865 2490 1332 
L 2605 1332 
L 2605 2987 
L 2490 2987 
C 2490 2450 2432 2240 1837 2240 
L 1261 2240 
L 1261 3911 
C 1261 4128 1274 4160 1530 4160 
L 2355 4160 
C 3322 4160 3430 3765 3520 2916 
L 3635 2916 
L 3482 4325 
z
" transform="scale(0.015625)"/>
       <path id="CMR17-71" d="M 2630 2802 
L 2528 2802 
L 2336 2172 
C 2189 2509 1920 2802 1491 2802 
C 838 2802 211 2223 211 1383 
C 211 548 800 -38 1440 -38 
C 1933 -38 2208 338 2291 478 
L 2291 -789 
C 2291 -1031 2266 -1063 1856 -1063 
L 1856 -1228 
C 2010 -1216 2291 -1216 2458 -1216 
C 2624 -1216 2912 -1216 3066 -1228 
L 3066 -1063 
C 2656 -1063 2630 -1037 2630 -789 
L 2630 2802 
z
M 2304 886 
C 2304 612 2074 357 2054 338 
C 1856 115 1626 64 1472 64 
C 992 64 621 669 621 1375 
C 621 2121 1043 2688 1536 2688 
C 2048 2688 2304 2108 2304 1777 
L 2304 886 
z
" transform="scale(0.015625)"/>
       <path id="CMR17-79" d="M 2496 2197 
C 2656 2586 2944 2586 3034 2586 
L 3034 2752 
C 2912 2752 2752 2752 2630 2752 
C 2496 2752 2285 2752 2157 2758 
L 2157 2592 
C 2400 2573 2406 2394 2406 2343 
C 2406 2280 2394 2248 2362 2171 
L 1664 449 
L 902 2306 
C 870 2382 870 2426 870 2433 
C 870 2573 1018 2586 1171 2586 
L 1171 2758 
C 1018 2752 742 2752 582 2752 
C 410 2752 205 2752 64 2758 
L 64 2586 
C 410 2586 448 2554 531 2350 
L 1485 15 
C 1197 -738 1030 -1178 627 -1178 
C 557 -1178 397 -1159 282 -1044 
C 429 -1031 493 -942 493 -833 
C 493 -725 416 -629 288 -629 
C 147 -629 77 -725 77 -840 
C 77 -1095 339 -1280 627 -1280 
C 998 -1280 1229 -922 1357 -604 
L 2496 2197 
z
" transform="scale(0.015625)"/>
      </defs>
      <use xlink:href="#CMR17-41" transform="scale(0.996264)"/>
      <use xlink:href="#CMR17-63" transform="translate(69.07243 0) scale(0.996264)"/>
      <use xlink:href="#CMR17-63" transform="translate(109.55809 0) scale(0.996264)"/>
      <use xlink:href="#CMR17-65" transform="translate(150.043751 0) scale(0.996264)"/>
      <use xlink:href="#CMR17-70" transform="translate(190.529411 0) scale(0.996264)"/>
      <use xlink:href="#CMR17-74" transform="translate(241.424781 0) scale(0.996264)"/>
      <use xlink:href="#CMR17-61" transform="translate(276.705549 0) scale(0.996264)"/>
      <use xlink:href="#CMR17-6e" transform="translate(322.396026 0) scale(0.996264)"/>
      <use xlink:href="#CMR17-63" transform="translate(373.291396 0) scale(0.996264)"/>
      <use xlink:href="#CMR17-65" transform="translate(413.777056 0) scale(0.996264)"/>
      <use xlink:href="#CMR17-46" transform="translate(484.338683 0) scale(0.996264)"/>
      <use xlink:href="#CMR17-72" transform="translate(536.515274 0) scale(0.996264)"/>
      <use xlink:href="#CMR17-65" transform="translate(571.796042 0) scale(0.996264)"/>
      <use xlink:href="#CMR17-71" transform="translate(612.281702 0) scale(0.996264)"/>
      <use xlink:href="#CMR17-75" transform="translate(660.574618 0) scale(0.996264)"/>
      <use xlink:href="#CMR17-65" transform="translate(711.469988 0) scale(0.996264)"/>
      <use xlink:href="#CMR17-6e" transform="translate(751.955648 0) scale(0.996264)"/>
      <use xlink:href="#CMR17-63" transform="translate(802.851018 0) scale(0.996264)"/>
      <use xlink:href="#CMR17-79" transform="translate(843.336679 0) scale(0.996264)"/>
     </g>
    </g>
   </g>
   <g id="line2d_13">
    <path d="M 60.400995 163.567268 
L 60.522619 158.894543 
L 60.56316 169.188661 
L 60.644243 165.953367 
L 60.684784 164.659249 
L 60.88749 149.938661 
L 60.928032 149.776896 
L 61.292903 169.188661 
L 61.373986 161.403734 
L 61.455068 164.526031 
L 61.536151 163.526896 
L 61.698316 168.622484 
L 61.860481 163.526896 
L 61.941564 162.788405 
L 62.14427 169.188661 
L 62.225352 172.179782 
L 62.265894 174.221341 
L 62.306435 173.718073 
L 62.428059 171.140994 
L 62.590224 173.937238 
L 62.630765 173.502386 
L 62.671306 173.081124 
L 62.711848 173.718073 
L 62.833472 175.516516 
L 62.874013 174.111935 
L 62.914554 175.659249 
L 62.995637 176.737681 
L 63.036178 175.393335 
L 63.076719 175.92157 
L 63.279426 179.222168 
L 63.360508 180.93158 
L 63.441591 182.558611 
L 63.482132 181.321014 
L 63.968627 186.881676 
L 64.090251 186.345524 
L 64.130792 185.268073 
L 64.211875 185.84091 
L 64.292958 184.431874 
L 64.333499 183.423955 
L 64.414581 184.004494 
L 64.536205 185.453367 
L 64.657829 185.02156 
L 64.779453 184.612089 
L 64.941618 186.173955 
L 65.103783 187.635056 
L 65.144324 188.393367 
L 65.225407 188.269254 
L 65.306489 187.095638 
L 65.347031 187.306308 
L 65.387572 187.513762 
L 65.428113 187.203367 
L 65.468655 186.897639 
L 65.509196 187.610522 
L 65.549737 187.306308 
L 65.671361 186.912446 
L 66.117315 189.403821 
L 66.198398 189.286051 
L 66.238939 189.004837 
L 66.27948 189.17136 
L 66.482187 190.402362 
L 66.563269 191.552632 
L 66.60381 190.851065 
L 66.847058 189.259108 
L 66.887599 189.409249 
L 67.009223 189.849136 
L 67.130847 189.102454 
L 67.171388 189.247484 
L 67.21193 189.004837 
L 67.252471 189.148781 
L 67.374095 188.816112 
L 67.617342 190.009344 
L 67.779507 190.882159 
L 67.901131 191.601035 
L 68.063296 192.755397 
L 68.103838 192.521994 
L 68.144379 192.973763 
L 68.18492 192.741602 
L 68.306544 192.393529 
L 68.347085 192.50181 
L 68.387627 192.277614 
L 68.428168 192.385406 
L 68.468709 192.492156 
L 68.50925 192.924521 
L 68.590333 192.806308 
L 68.752498 191.941547 
L 68.793039 192.04639 
L 69.076828 193.978009 
L 69.11737 194.069959 
L 69.401158 195.872804 
L 69.603865 196.268761 
L 69.725489 197.069284 
L 69.806571 196.082043 
L 69.847113 196.440309 
L 69.887654 196.795613 
L 69.928195 196.588806 
L 70.009278 196.180258 
L 70.049819 196.530842 
L 70.09036 196.603522 
L 70.130901 196.401659 
L 70.171443 196.474274 
L 70.374149 197.898712 
L 70.536314 196.83914 
L 70.617397 196.97486 
L 70.779562 196.21072 
L 70.820103 196.279671 
L 70.860644 196.603522 
L 70.901186 196.416024 
L 70.941727 196.229925 
L 71.02281 196.365132 
L 71.063351 196.682692 
L 71.144433 195.319883 
L 71.225516 195.459249 
L 71.34714 195.664539 
L 71.549846 194.796643 
L 71.590387 195.10519 
L 71.630929 194.696401 
L 71.67147 194.765584 
L 71.712011 194.597556 
L 71.793094 194.73517 
L 71.874176 194.870893 
L 71.914718 194.472706 
L 71.955259 194.541 
L 72.198507 195.622853 
L 72.441754 194.657321 
L 72.644461 195.853746 
L 72.766084 194.946977 
L 72.806626 195.009193 
L 72.887708 195.132444 
L 73.009332 195.527403 
L 73.171497 194.710424 
L 73.25258 195.04115 
L 73.333662 195.160059 
L 73.495827 194.777785 
L 73.536369 194.837137 
L 73.617451 194.954776 
L 73.657993 195.215878 
L 73.698534 195.071014 
L 73.820158 194.841967 
L 73.779616 195.185876 
L 73.860699 194.899734 
L 73.941781 195.014254 
L 74.022864 194.732437 
L 74.063405 194.789684 
L 74.22557 195.404741 
L 74.387736 194.851051 
L 74.712066 196.227116 
L 74.752607 195.714498 
L 74.83369 195.81762 
L 74.955313 195.970196 
L 74.995855 195.83588 
L 75.036396 196.070536 
L 75.076937 196.120298 
L 75.279644 195.821602 
L 75.603974 196.388784 
L 75.80668 196.972166 
L 75.887763 197.061964 
L 75.928304 197.280281 
L 76.009387 197.194947 
L 76.090469 196.938475 
L 76.13101 197.154347 
L 76.293176 197.327632 
L 76.414799 196.780983 
L 76.455341 196.8248 
L 76.536423 196.911785 
L 76.576964 196.788025 
L 76.658047 196.874552 
L 76.698588 196.917499 
L 76.860753 196.266666 
L 76.941836 196.354244 
L 77.144542 196.892308 
L 77.185084 196.933991 
L 77.225625 196.81486 
L 77.266166 197.016769 
L 77.347249 197.417741 
L 77.38779 197.298593 
L 77.428331 197.180002 
L 77.509414 197.26048 
L 77.549955 197.300439 
L 77.833744 198.19551 
L 77.955368 197.998185 
L 78.117533 198.451714 
L 78.158074 198.335324 
L 78.198616 198.371448 
L 78.279698 198.745847 
L 78.320239 198.478857 
L 78.360781 198.363697 
L 78.401322 198.549671 
L 78.725652 199.565259 
L 78.847276 199.661917 
L 78.887817 199.547434 
L 78.928359 199.579553 
L 79.455395 201.406234 
L 79.536478 201.46072 
L 79.658102 201.822932 
L 79.698643 201.708714 
L 79.739184 201.594968 
L 79.779725 201.761283 
L 79.901349 201.839329 
L 79.982432 202.029202 
L 80.022973 201.778331 
L 80.104056 201.967299 
L 80.144597 201.992583 
L 80.468927 202.866593 
L 80.631092 202.556221 
L 80.793257 202.782537 
L 80.87434 202.828152 
L 81.036505 203.049737 
L 81.077046 203.071809 
L 81.19867 203.398326 
L 81.239211 203.289405 
L 81.401376 202.987028 
L 81.441918 203.008842 
L 81.604083 203.223224 
L 81.766248 203.307408 
L 81.84733 203.602069 
L 81.928413 203.516392 
L 81.968954 203.5367 
L 82.131119 203.742078 
L 82.212202 203.532552 
L 82.252743 203.676778 
L 82.293285 203.696497 
L 82.333826 203.59239 
L 82.374367 203.73572 
L 82.901404 205.311323 
L 83.063569 205.49585 
L 83.306816 205.945667 
L 83.631147 206.180156 
L 83.793312 206.585343 
L 83.833853 206.482879 
L 83.955477 206.408275 
L 84.279807 206.402672 
L 84.401431 206.329837 
L 84.68522 206.871576 
L 85.131174 207.116988 
L 85.414963 207.634308 
L 85.536587 207.77521 
L 85.577128 207.893889 
L 85.658211 207.8071 
L 86.104165 208.027309 
L 86.185247 208.152855 
L 86.225788 208.057334 
L 86.347412 208.087081 
L 86.428495 207.793186 
L 86.469036 207.907826 
L 86.509577 208.022115 
L 86.59066 207.937986 
L 86.793366 207.265962 
L 86.833908 207.276896 
L 86.874449 207.390583 
L 86.91499 207.196036 
L 86.996073 207.320305 
L 87.198779 207.780062 
L 87.23932 207.688661 
L 87.604192 207.878776 
L 87.806898 208.225039 
L 87.887981 208.144243 
L 88.212311 208.902596 
L 88.252852 208.812867 
L 88.415017 208.942511 
L 88.617724 209.174874 
L 88.658265 209.086033 
L 88.698806 209.189911 
L 88.82043 209.308133 
L 88.901513 208.844903 
L 88.982595 208.956007 
L 89.023136 208.868592 
L 89.063678 208.971466 
L 89.185302 208.899869 
L 89.428549 208.195405 
L 89.590714 208.323276 
L 89.631256 208.238528 
L 89.671797 208.340152 
L 89.915045 208.390227 
L 90.036668 208.231087 
L 91.009659 208.516778 
L 91.0502 208.613515 
L 91.090742 208.443563 
L 91.171824 208.459311 
L 91.496154 207.469496 
L 91.617778 207.409211 
L 91.698861 207.253141 
L 91.739402 207.34939 
L 91.820485 207.541151 
L 91.861026 207.463346 
L 91.98265 207.231116 
L 92.023191 207.326538 
L 92.104274 207.344655 
L 92.388062 206.640133 
L 92.550228 206.594477 
L 92.793475 206.232177 
L 92.874558 206.336556 
L 92.915099 206.262735 
L 93.279971 206.436021 
L 93.401594 206.630696 
L 93.442136 206.557684 
L 93.847548 206.734385 
L 94.293502 207.559863 
L 94.374585 207.254994 
L 94.455668 207.432279 
L 94.53675 207.368938 
L 94.617833 207.226151 
L 94.658374 207.314307 
L 94.86108 207.356082 
L 95.104328 206.855123 
L 95.266493 207.04682 
L 95.428658 206.769273 
L 95.4692 206.855934 
L 95.550282 207.028661 
L 95.631365 206.96819 
L 96.077319 206.984766 
L 96.239484 206.637553 
L 96.482731 206.916946 
L 96.644897 206.875175 
L 97.009768 206.428281 
L 97.131392 206.529052 
L 97.253016 206.480982 
L 97.455722 206.671754 
L 97.536805 206.541602 
L 97.577346 206.623637 
L 98.063841 207.376871 
L 98.185465 207.327272 
L 98.34763 207.141677 
L 98.428713 207.013558 
L 98.469254 207.093189 
L 98.712502 207.068421 
L 98.955749 206.76058 
L 99.077373 206.855287 
L 99.158456 206.800633 
L 99.198997 206.878999 
L 99.28008 206.824466 
L 99.442245 206.646103 
L 99.60441 206.678254 
L 99.726034 206.563255 
L 100.009823 206.964415 
L 100.131446 206.918478 
L 100.415235 207.039976 
L 100.699024 207.363194 
L 100.861189 207.459039 
L 101.104437 207.702088 
L 101.226061 207.588255 
L 101.550391 207.97424 
L 101.631474 208.053223 
L 101.874721 208.288336 
L 102.320675 208.418931 
L 102.48284 208.507073 
L 102.604464 208.58893 
L 102.766629 208.67584 
L 102.928794 208.633538 
L 103.050418 208.714188 
L 103.253125 208.613682 
L 103.496372 208.583125 
L 103.617996 208.536344 
L 103.861244 208.758105 
L 104.06395 208.784486 
L 104.185574 208.675307 
L 104.307198 208.75355 
L 104.428822 208.893468 
L 104.469363 208.836526 
L 104.793693 208.877478 
L 104.955858 208.713609 
L 105.199106 208.500537 
L 105.401812 208.648831 
L 105.563977 208.427415 
L 105.685601 208.503955 
L 105.928849 208.355458 
L 105.96939 208.420889 
L 106.009932 208.366274 
L 106.091014 208.317192 
L 106.131555 208.382426 
L 106.415344 208.479228 
L 106.536968 208.494944 
L 106.618051 208.446193 
L 106.658592 208.510578 
L 106.739674 208.579983 
L 106.780216 208.52613 
L 106.942381 208.605514 
L 107.185629 208.811269 
L 107.672124 208.811369 
L 107.834289 208.772951 
L 108.036995 208.854515 
L 108.482949 209.361584 
L 108.80728 209.339145 
L 108.928903 209.239186 
L 109.537023 209.415035 
L 109.658646 209.427466 
L 109.861353 209.337396 
L 110.145142 209.146508 
L 110.469472 209.508807 
L 110.510013 209.45819 
L 110.550555 209.516797 
L 110.71272 209.69589 
L 110.753261 209.645367 
L 112.739783 209.932446 
L 113.064114 210.324176 
L 113.104655 210.275412 
L 113.307361 210.187944 
L 113.550609 210.104462 
L 113.672233 210.063005 
L 113.874939 210.182056 
L 114.118187 210.099477 
L 114.280352 209.960142 
L 114.442517 210.024297 
L 114.807389 209.953367 
L 114.969554 209.715857 
L 115.293884 209.993274 
L 115.415508 210.003141 
L 115.820921 209.936896 
L 115.983086 209.654472 
L 116.023627 209.707203 
L 116.996618 209.692055 
L 117.239865 209.567885 
L 117.40203 209.677886 
L 117.442572 209.633267 
L 117.483113 209.684673 
L 117.604737 209.694817 
L 117.888526 209.623031 
L 117.969608 209.534682 
L 118.010149 209.585689 
L 118.212856 209.792279 
L 118.253397 209.748202 
L 118.577727 209.539034 
L 118.902058 209.472644 
L 119.064223 209.439722 
L 119.550718 209.5736 
L 119.915589 209.879718 
L 120.402085 209.825521 
L 120.604791 209.750105 
L 120.766956 209.808135 
L 121.942653 209.986017 
L 122.266984 210.275209 
L 122.510231 210.159249 
L 123.037268 210.676673 
L 123.239974 210.470848 
L 123.280515 210.517001 
L 123.442681 210.614087 
L 123.604846 210.450533 
L 123.767011 210.547294 
L 123.929176 210.600426 
L 124.0508 210.564751 
L 124.334589 210.753515 
L 124.658919 210.857543 
L 124.983249 211.087842 
L 125.307579 211.189173 
L 125.469744 211.281582 
L 125.834616 211.048021 
L 125.996781 211.140039 
L 126.077864 211.185879 
L 126.118405 211.146195 
L 126.240029 211.069068 
L 126.361653 211.075331 
L 126.969772 211.188661 
L 127.213019 211.323678 
L 127.415726 211.292284 
L 127.53735 211.175546 
L 127.658973 211.263011 
L 127.699515 211.224209 
L 128.226551 211.330243 
L 128.267093 211.372511 
L 128.307634 211.293621 
L 128.469799 211.140089 
L 128.591423 211.146023 
L 128.83467 211.117768 
L 128.915753 210.961681 
L 128.956294 211.003742 
L 129.077918 210.969956 
L 129.240083 210.938368 
L 129.76712 211.04422 
L 130.010367 211.174339 
L 130.213074 211.105356 
L 130.375239 211.113147 
L 130.537404 211.042719 
L 130.74011 210.974628 
L 130.861734 210.941744 
L 131.186064 211.035364 
L 131.307688 211.002582 
L 131.34823 210.927268 
L 131.429312 211.008514 
L 131.510395 210.973898 
L 131.67256 210.904902 
L 131.915807 210.840334 
L 132.077973 210.810283 
L 132.32122 210.898901 
L 133.050963 211.01023 
L 133.25367 211.09513 
L 133.537459 210.958236 
L 133.780706 210.932497 
L 133.983413 210.793159 
L 134.145578 210.801237 
L 134.429367 210.667107 
L 134.632073 210.566648 
L 134.794238 210.538283 
L 134.996944 210.622484 
L 135.118568 210.628741 
L 135.361816 210.714367 
L 135.605064 210.617097 
L 135.767229 210.552598 
L 135.929394 210.561 
L 137.226715 210.734054 
L 137.38888 210.741917 
L 137.834834 210.86964 
L 137.956458 210.875283 
L 138.118623 210.847484 
L 138.524036 211.076942 
L 139.740274 211.232666 
L 139.821356 211.270511 
L 139.861898 211.203098 
L 140.064604 211.176974 
L 141.402466 211.163618 
L 141.564631 211.068819 
L 142.659246 211.214131 
L 142.861952 211.255406 
L 143.064659 211.230099 
L 143.591695 211.349569 
L 143.875484 211.458788 
L 144.726851 211.391585 
L 145.01064 211.304623 
L 145.699842 211.265867 
L 145.862007 211.175623 
L 146.064713 211.215452 
L 146.429585 211.19736 
L 146.632291 210.982296 
L 146.997162 210.838546 
L 147.726905 210.963162 
L 148.051236 211.101374 
L 148.456648 211.210382 
L 148.740437 211.314054 
L 148.943144 211.290287 
L 149.389098 211.244547 
L 149.551263 211.188848 
L 149.713428 211.194807 
L 150.808042 211.1434 
L 150.929666 211.178188 
L 151.091831 211.184076 
L 151.335079 211.132503 
L 152.105363 211.250335 
L 152.267528 211.285898 
L 152.470235 211.2631 
L 153.159437 211.375713 
L 153.402684 211.442839 
L 153.88918 211.546686 
L 154.456757 211.856187 
L 154.983794 211.95784 
L 155.064877 212.01799 
L 155.105418 211.961071 
L 155.470289 211.826345 
L 155.79462 211.979228 
L 155.956785 211.983463 
L 155.997326 212.013235 
L 156.037867 211.956871 
L 156.281115 211.905996 
L 156.524363 211.969612 
L 156.76761 211.890474 
L 156.929775 211.866375 
L 157.051399 211.89806 
L 157.173023 211.87293 
L 157.618977 212.082529 
L 158.146014 211.814564 
L 158.510885 211.964366 
L 158.632509 211.967474 
L 158.794674 211.971606 
L 160.213619 212.117215 
L 160.416325 212.149445 
L 160.659573 212.100319 
L 160.821738 212.104154 
L 161.916352 212.237907 
L 162.281224 212.380672 
L 165.362361 212.546834 
L 165.64615 212.604221 
L 165.848856 212.58178 
L 166.173186 212.665475 
L 166.335352 212.694171 
L 167.186718 212.811251 
L 167.389425 212.840075 
L 167.916461 212.643769 
L 168.646204 212.55465 
L 168.808369 212.557525 
L 169.254323 212.741991 
L 169.416489 212.744573 
L 169.659736 212.773567 
L 170.024608 212.879447 
L 170.308397 212.958537 
L 170.794892 212.791091 
L 171.200305 212.698114 
L 171.443552 212.652547 
L 171.767883 212.756506 
L 171.970589 212.759633 
L 172.173295 212.787321 
L 172.335461 212.814306 
L 172.619249 212.916411 
L 173.024662 213.043967 
L 173.430075 213.146311 
L 173.673323 213.197667 
L 173.91657 213.176218 
L 174.038194 213.153442 
L 174.200359 213.10706 
L 174.484148 213.158624 
L 174.686855 213.088867 
L 174.930102 212.923945 
L 175.092267 212.950091 
L 175.294974 212.857163 
L 175.376056 212.834417 
L 175.578763 212.765767 
L 175.862552 212.722398 
L 176.997707 212.645257 
L 177.281496 212.579204 
L 177.605827 212.654765 
L 178.376111 212.759802 
L 178.619358 212.809808 
L 178.943689 212.744856 
L 179.146395 212.747815 
L 180.159927 212.854209 
L 180.443716 212.903816 
L 180.849129 213.000343 
L 181.254541 213.141685 
L 181.457248 213.121232 
L 181.741037 213.192326 
L 181.903202 213.216654 
L 182.511321 213.447913 
L 183.524853 213.545659 
L 183.808642 213.592331 
L 184.862715 213.489487 
L 185.02488 213.51282 
L 187.741146 213.641335 
L 187.984393 213.66447 
L 188.714136 213.776173 
L 189.241173 213.949656 
L 192.281769 214.066089 
L 192.687182 214.171217 
L 193.011512 214.130537 
L 193.254759 214.13118 
L 195.403447 214.238532 
L 195.646695 214.238971 
L 196.903474 214.140556 
L 197.187263 214.121176 
L 198.200795 214.223537 
L 198.525125 214.263934 
L 198.727832 214.28412 
L 201.971134 214.191602 
L 202.17384 214.192018 
L 202.822501 214.386299 
L 203.876574 214.482779 
L 204.160363 214.501895 
L 204.768482 214.596997 
L 205.01173 214.596806 
L 208.214491 214.687309 
L 208.863151 214.871543 
L 209.14694 214.852325 
L 209.998307 214.739992 
L 210.201013 214.666255 
L 210.606426 214.738953 
L 214.417306 214.62555 
L 214.701095 214.58966 
L 214.944343 214.589492 
L 215.228131 214.571544 
L 215.998416 214.500444 
L 216.201122 214.412209 
L 217.579526 214.325386 
L 217.741691 214.290608 
L 218.268727 214.413131 
L 218.511975 214.413238 
L 218.836305 214.465429 
L 219.201177 214.413539 
L 221.106617 214.311728 
L 221.430947 214.295001 
L 221.83636 214.380611 
L 222.039066 214.346726 
L 222.282314 214.329949 
L 224.674249 214.231764 
L 224.876955 214.265501 
L 226.093194 214.36664 
L 226.498606 214.416575 
L 230.187863 214.32086 
L 230.43111 214.240247 
L 230.593275 214.208171 
L 230.958147 214.176519 
L 233.269 214.276029 
L 233.552789 214.276367 
L 236.350137 214.389024 
L 236.715008 214.435998 
L 236.917715 214.467203 
L 237.687999 214.575827 
L 238.174494 214.652902 
L 240.323182 214.757844 
L 240.56643 214.757473 
L 240.809677 214.711383 
L 242.066457 214.815749 
L 242.309704 214.80019 
L 242.836741 214.708847 
L 243.201613 214.753521 
L 243.485401 214.738084 
L 243.931356 214.812372 
L 244.336768 214.766801 
L 246.161126 214.660403 
L 246.404373 214.60104 
L 247.58007 214.703128 
L 247.985483 214.746628 
L 248.350355 214.731487 
L 249.039556 214.64312 
L 249.242263 214.613827 
L 249.607134 214.628107 
L 252.64773 214.525689 
L 252.850436 214.55422 
L 253.174767 214.5541 
L 254.958583 214.454511 
L 255.242372 214.468665 
L 256.377528 214.566968 
L 256.701858 214.56683 
L 257.147812 214.510732 
L 257.350518 214.482779 
L 257.553225 214.468831 
L 258.242426 214.371582 
L 258.728922 214.302527 
L 259.093793 214.316697 
L 260.26949 214.221361 
L 260.553279 214.139294 
L 260.755985 214.125916 
L 260.958692 214.112564 
L 263.512792 214.008896 
L 263.75604 213.968892 
L 263.999288 213.942491 
L 264.323618 213.943349 
L 264.688489 213.971234 
L 265.256067 213.892102 
L 266.229058 213.788002 
L 266.958801 213.657313 
L 270.566974 213.776148 
L 271.215635 213.882684 
L 272.553497 213.990169 
L 272.999451 214.017074 
L 273.60757 214.095796 
L 274.094066 214.058066 
L 274.499478 214.08456 
L 275.026515 214.03428 
L 275.431928 214.047914 
L 276.202212 213.922019 
L 276.567083 213.922964 
L 276.76979 213.910776 
L 277.377909 213.810972 
L 277.580615 213.811598 
L 278.026569 213.775058 
L 278.513065 213.827073 
L 279.364432 213.67889 
L 281.715826 213.587998 
L 282.040156 213.589306 
L 282.405027 213.590772 
L 284.756421 213.489773 
L 285.121293 213.491383 
L 286.540238 213.400293 
L 286.783485 213.377155 
L 287.188898 213.391257 
L 287.675393 213.357284 
L 288.161889 213.420066 
L 288.364595 213.408944 
L 288.607843 213.385981 
L 289.013255 213.26761 
L 296.594474 213.213394 
L 296.837722 213.168163 
L 297.202593 213.181802 
L 297.567465 213.183801 
L 304.621647 213.322642 
L 305.067601 213.335997 
L 305.310849 213.303439 
L 305.797344 213.339403 
L 306.405463 213.286316 
L 307.824408 213.204226 
L 308.229821 213.106418 
L 308.83794 213.165145 
L 316.338076 213.096224 
L 316.581324 213.076062 
L 317.189443 213.132954 
L 317.513773 213.156053 
L 323.594965 213.092598 
L 323.919295 213.042108 
L 324.649038 212.962795 
L 325.013909 212.944095 
L 328.865331 212.863668 
L 329.392367 212.846381 
L 338.433072 213.008378 
L 339.081732 213.061167 
L 339.446604 213.082743 
L 340.176347 213.155226 
L 341.838539 213.270591 
L 342.568282 213.341975 
L 360.974022 213.311063 
L 361.784848 213.241177 
L 363.649746 213.139924 
L 364.298407 213.106571 
L 365.109232 213.182469 
L 365.920058 213.293988 
L 366.366012 213.286726 
L 369.81202 213.406747 
L 370.460681 213.444493 
L 380.231128 213.372938 
L 381.366284 213.239691 
L 381.85278 213.23301 
L 389.028586 213.15142 
L 389.596163 213.145354 
L 394.25841 213.056863 
L 394.744906 213.058936 
L 395.798979 213.178269 
L 396.244933 213.196386 
L 396.893593 213.231575 
L 397.339547 213.249563 
L 398.109832 213.301264 
L 398.596327 213.311098 
L 400.663932 213.423346 
L 401.474758 213.47427 
L 410.880334 213.399237 
L 411.123581 213.368603 
L 415.137168 213.489804 
L 416.029076 213.554198 
L 416.637195 213.548056 
L 421.583231 213.667515 
L 422.434598 213.72264 
L 435.448348 213.638926 
L 436.137549 213.618499 
L 436.948375 213.656902 
L 445.259337 213.567457 
L 446.029621 213.540737 
L 446.921529 213.649712 
L 447.935061 213.730007 
L 448.908052 213.661052 
L 449.435088 213.648016 
L 458.678499 213.556811 
L 459.246077 213.565028 
L 459.894738 213.566517 
L 460.543398 213.568001 
L 461.759636 213.673629 
L 462.124508 213.660661 
L 465.489434 213.66069 
L 465.489434 213.66069 
" clip-path="url(#p237d93030b)" style="fill: none; stroke: #008080; stroke-width: 1.5; stroke-linecap: square"/>
   </g>
   <g id="line2d_14">
    <path d="M 60.076665 282.423955 
L 60.482078 282.423955 
L 60.88749 280.38572 
L 61.292903 279.706308 
L 61.698316 274.271014 
L 62.103729 274.950426 
L 62.509141 270.194543 
L 62.914554 266.797484 
L 63.319967 262.041602 
L 63.72538 258.644543 
L 64.130792 258.644543 
L 64.941618 248.453367 
L 65.347031 247.094543 
L 65.752444 249.132779 
L 66.157856 239.621014 
L 66.563269 243.697484 
L 66.968682 239.621014 
L 67.374095 243.018073 
L 67.779507 240.979837 
L 68.18492 233.506308 
L 68.590333 232.147484 
L 68.995746 225.353367 
L 69.401158 232.826896 
L 69.806571 234.865132 
L 70.617397 230.109249 
L 71.02281 234.865132 
L 71.428222 234.18572 
L 71.833635 234.865132 
L 72.239048 236.223955 
L 72.644461 236.903367 
L 73.860699 219.918073 
L 74.266112 230.788661 
L 74.671524 218.559249 
L 75.076937 222.63572 
L 75.48235 219.918073 
L 75.887763 232.826896 
L 76.293176 230.109249 
L 76.698588 221.276896 
L 77.104001 222.63572 
L 77.509414 211.765132 
L 77.914827 219.238661 
L 78.320239 223.994543 
L 78.725652 222.63572 
L 79.131065 219.918073 
L 80.347303 228.750426 
L 81.158129 211.765132 
L 81.563542 221.276896 
L 81.968954 217.200426 
L 82.374367 220.597484 
L 82.77978 225.353367 
L 83.185193 220.597484 
L 83.590605 227.391602 
L 83.996018 220.597484 
L 84.401431 223.994543 
L 84.806844 217.200426 
L 85.212256 213.803367 
L 85.617669 215.16219 
L 86.023082 213.123955 
L 86.428495 219.918073 
L 86.833908 221.276896 
L 87.23932 214.482779 
L 87.644733 222.63572 
L 88.050146 217.879837 
L 88.455559 215.16219 
L 88.860971 214.482779 
L 89.266384 222.63572 
L 89.671797 216.521014 
L 90.07721 214.482779 
L 90.482622 224.673955 
L 90.888035 217.879837 
L 91.293448 232.147484 
L 91.698861 217.879837 
L 92.104274 219.918073 
L 92.509686 223.315132 
L 92.915099 214.482779 
L 93.320512 211.765132 
L 93.725925 219.238661 
L 94.131337 221.956308 
L 94.53675 219.238661 
L 94.942163 226.71219 
L 95.347576 219.238661 
L 96.158401 213.123955 
L 96.563814 210.406308 
L 96.969227 216.521014 
L 97.37464 219.918073 
L 97.780052 218.559249 
L 98.185465 208.368073 
L 98.590878 212.444543 
L 98.996291 217.879837 
L 99.401703 217.200426 
L 99.807116 209.726896 
L 100.212529 216.521014 
L 101.023354 209.726896 
L 101.428767 230.109249 
L 101.83418 215.16219 
L 102.239593 220.597484 
L 102.645006 219.918073 
L 103.050418 215.841602 
L 103.455831 222.63572 
L 103.861244 226.71219 
L 104.266657 210.406308 
L 104.672069 210.406308 
L 105.077482 215.16219 
L 105.482895 209.726896 
L 105.888308 220.597484 
L 106.29372 215.16219 
L 106.699133 216.521014 
L 107.104546 206.329837 
L 107.509959 226.032779 
L 107.915372 209.726896 
L 108.726197 220.597484 
L 109.13161 213.123955 
L 109.537023 214.482779 
L 109.942435 208.368073 
L 110.347848 224.673955 
L 110.753261 215.841602 
L 111.158674 213.123955 
L 111.564086 211.765132 
L 111.969499 216.521014 
L 112.374912 219.918073 
L 112.780325 220.597484 
L 113.185738 220.597484 
L 113.59115 211.765132 
L 113.996563 216.521014 
L 114.401976 202.253367 
L 114.807389 210.406308 
L 115.212801 215.16219 
L 115.618214 217.879837 
L 116.023627 209.047484 
L 116.42904 208.368073 
L 116.834452 217.200426 
L 117.239865 215.16219 
L 117.645278 202.932779 
L 118.050691 207.009249 
L 118.456104 214.482779 
L 118.861516 215.16219 
L 119.266929 213.123955 
L 119.672342 223.315132 
L 120.077755 220.597484 
L 120.483167 215.16219 
L 120.88858 219.238661 
L 121.293993 224.673955 
L 121.699406 227.391602 
L 122.104818 224.673955 
L 122.915644 211.08572 
L 123.321057 212.444543 
L 123.72647 206.329837 
L 124.131882 213.803367 
L 124.537295 206.329837 
L 124.942708 215.16219 
L 125.348121 217.200426 
L 126.158946 207.009249 
L 126.564359 217.879837 
L 126.969772 215.16219 
L 127.375184 200.215132 
L 127.780597 223.315132 
L 128.18601 211.08572 
L 128.591423 207.688661 
L 129.402248 219.238661 
L 129.807661 209.047484 
L 130.213074 215.16219 
L 130.618487 213.123955 
L 131.023899 202.932779 
L 131.834725 222.63572 
L 132.240138 209.047484 
L 132.64555 206.329837 
L 133.050963 217.879837 
L 133.456376 208.368073 
L 133.861789 210.406308 
L 134.267202 205.650426 
L 134.672614 207.688661 
L 135.078027 219.238661 
L 135.48344 217.879837 
L 135.888853 205.650426 
L 136.294265 219.918073 
L 136.699678 222.63572 
L 137.105091 205.650426 
L 137.510504 215.16219 
L 137.915916 213.803367 
L 138.321329 202.253367 
L 138.726742 214.482779 
L 139.132155 215.841602 
L 139.94298 217.200426 
L 140.348393 204.971014 
L 140.753806 202.932779 
L 141.159219 210.406308 
L 141.564631 215.16219 
L 141.970044 207.688661 
L 142.375457 213.803367 
L 142.78087 207.688661 
L 143.186282 208.368073 
L 143.591695 215.16219 
L 143.997108 213.123955 
L 144.402521 213.123955 
L 144.807934 219.918073 
L 145.213346 223.994543 
L 145.618759 209.726896 
L 146.024172 209.047484 
L 146.429585 211.08572 
L 146.834997 210.406308 
L 147.24041 209.047484 
L 147.645823 220.597484 
L 148.051236 200.215132 
L 148.456648 208.368073 
L 148.862061 195.459249 
L 149.267474 209.726896 
L 149.672887 213.803367 
L 150.0783 216.521014 
L 150.483712 213.123955 
L 150.889125 200.894543 
L 151.294538 213.803367 
L 151.699951 207.688661 
L 152.105363 198.856308 
L 152.510776 196.138661 
L 152.916189 212.444543 
L 153.321602 203.61219 
L 153.727014 221.956308 
L 154.132427 213.123955 
L 154.53784 211.765132 
L 154.943253 209.047484 
L 155.348666 207.688661 
L 155.754078 196.138661 
L 156.159491 208.368073 
L 156.564904 200.894543 
L 156.970317 203.61219 
L 157.375729 209.726896 
L 157.781142 203.61219 
L 158.186555 211.08572 
L 158.591968 213.123955 
L 158.99738 220.597484 
L 159.402793 213.123955 
L 159.808206 215.841602 
L 160.213619 203.61219 
L 160.619032 208.368073 
L 161.024444 205.650426 
L 161.429857 217.200426 
L 161.83527 202.932779 
L 162.240683 211.08572 
L 162.646095 199.53572 
L 163.051508 215.16219 
L 163.456921 207.009249 
L 163.862334 203.61219 
L 164.267746 213.123955 
L 164.673159 207.009249 
L 165.078572 206.329837 
L 165.483985 196.818073 
L 165.889397 204.971014 
L 166.29481 204.971014 
L 166.700223 214.482779 
L 167.105636 210.406308 
L 167.511049 208.368073 
L 167.916461 208.368073 
L 168.321874 205.650426 
L 168.727287 204.291602 
L 169.1327 213.803367 
L 169.538112 204.291602 
L 169.943525 208.368073 
L 170.348938 222.63572 
L 170.754351 212.444543 
L 171.159763 211.08572 
L 171.565176 205.650426 
L 171.970589 207.688661 
L 172.376002 210.406308 
L 172.781415 207.009249 
L 173.186827 201.573955 
L 173.59224 188.665132 
L 173.997653 217.200426 
L 174.403066 209.047484 
L 174.808478 205.650426 
L 175.213891 206.329837 
L 175.619304 202.253367 
L 176.024717 192.741602 
L 176.430129 213.123955 
L 176.835542 210.406308 
L 177.240955 204.291602 
L 177.646368 209.047484 
L 178.051781 197.497484 
L 178.457193 195.459249 
L 178.862606 202.253367 
L 179.268019 200.215132 
L 179.673432 192.06219 
L 180.078844 203.61219 
L 180.484257 209.726896 
L 180.88967 200.894543 
L 181.700495 210.406308 
L 182.105908 202.253367 
L 182.511321 200.894543 
L 182.916734 211.765132 
L 183.727559 195.459249 
L 184.538385 216.521014 
L 184.943798 215.841602 
L 185.34921 209.726896 
L 185.754623 199.53572 
L 186.160036 210.406308 
L 186.565449 207.688661 
L 186.970861 197.497484 
L 187.376274 211.765132 
L 187.781687 209.726896 
L 188.1871 211.08572 
L 188.592513 204.291602 
L 188.997925 205.650426 
L 189.403338 198.176896 
L 189.808751 208.368073 
L 190.214164 209.726896 
L 190.619576 200.215132 
L 191.024989 211.765132 
L 191.430402 205.650426 
L 191.835815 194.100426 
L 192.241227 203.61219 
L 192.64664 217.200426 
L 193.457466 198.176896 
L 193.862879 207.688661 
L 194.268291 213.803367 
L 194.673704 209.726896 
L 195.079117 194.779837 
L 195.48453 203.61219 
L 195.889942 204.971014 
L 196.295355 204.291602 
L 196.700768 196.138661 
L 197.106181 198.176896 
L 197.511593 199.53572 
L 197.917006 205.650426 
L 198.322419 198.176896 
L 198.727832 202.932779 
L 199.133245 199.53572 
L 199.538657 205.650426 
L 199.94407 201.573955 
L 200.349483 209.726896 
L 200.754896 204.291602 
L 201.160308 207.009249 
L 201.565721 200.894543 
L 201.971134 215.841602 
L 202.376547 204.291602 
L 202.781959 207.688661 
L 203.187372 200.894543 
L 203.592785 190.703367 
L 203.998198 211.765132 
L 204.403611 199.53572 
L 204.809023 208.368073 
L 205.214436 199.53572 
L 205.619849 194.779837 
L 206.025262 207.009249 
L 206.430674 211.08572 
L 206.836087 194.779837 
L 207.646913 200.894543 
L 208.052325 206.329837 
L 208.457738 199.53572 
L 208.863151 198.856308 
L 209.268564 207.688661 
L 209.673977 202.932779 
L 210.079389 204.971014 
L 210.484802 206.329837 
L 210.890215 191.382779 
L 211.295628 217.200426 
L 211.70104 198.856308 
L 212.106453 200.894543 
L 212.511866 198.856308 
L 212.917279 197.497484 
L 213.322691 192.06219 
L 213.728104 210.406308 
L 214.133517 207.009249 
L 214.53893 198.856308 
L 214.944343 204.291602 
L 215.349755 202.932779 
L 215.755168 200.215132 
L 216.160581 201.573955 
L 216.565994 206.329837 
L 217.782232 195.459249 
L 218.187645 199.53572 
L 218.593057 200.894543 
L 218.99847 198.176896 
L 219.403883 212.444543 
L 219.809296 200.894543 
L 220.214709 209.047484 
L 220.620121 205.650426 
L 221.025534 198.856308 
L 221.430947 205.650426 
L 221.83636 200.215132 
L 222.241772 199.53572 
L 222.647185 209.047484 
L 223.052598 204.971014 
L 223.458011 213.123955 
L 223.863423 204.971014 
L 224.268836 202.253367 
L 224.674249 207.009249 
L 225.079662 201.573955 
L 225.485075 198.176896 
L 225.890487 203.61219 
L 226.701313 197.497484 
L 227.106726 194.100426 
L 227.512138 213.803367 
L 227.917551 191.382779 
L 229.133789 207.688661 
L 229.539202 204.971014 
L 229.944615 204.291602 
L 230.755441 185.947484 
L 231.160853 206.329837 
L 231.566266 217.200426 
L 231.971679 195.459249 
L 232.377092 202.932779 
L 232.782504 194.100426 
L 233.187917 207.688661 
L 233.59333 198.176896 
L 233.998743 198.176896 
L 234.809568 204.971014 
L 235.214981 207.009249 
L 236.025807 192.06219 
L 236.431219 198.856308 
L 236.836632 198.856308 
L 237.242045 191.382779 
L 237.647458 194.100426 
L 238.05287 198.856308 
L 238.458283 200.894543 
L 238.863696 196.818073 
L 239.269109 206.329837 
L 239.674521 209.726896 
L 240.079934 198.176896 
L 240.485347 198.176896 
L 240.89076 187.306308 
L 241.296173 200.215132 
L 241.701585 202.253367 
L 242.106998 191.382779 
L 242.512411 205.650426 
L 242.917824 206.329837 
L 243.323236 202.932779 
L 243.728649 211.08572 
L 244.134062 202.253367 
L 244.539475 208.368073 
L 244.944887 194.779837 
L 245.3503 198.176896 
L 245.755713 183.909249 
L 246.161126 198.856308 
L 246.566539 198.856308 
L 246.971951 200.215132 
L 247.377364 192.06219 
L 247.782777 189.344543 
L 248.18819 204.971014 
L 248.593602 212.444543 
L 248.999015 196.818073 
L 249.404428 207.688661 
L 249.809841 198.856308 
L 250.215253 202.253367 
L 250.620666 196.138661 
L 251.026079 204.291602 
L 251.431492 191.382779 
L 251.836905 212.444543 
L 252.242317 191.382779 
L 253.053143 201.573955 
L 253.863968 194.100426 
L 254.269381 206.329837 
L 254.674794 200.215132 
L 255.080207 207.009249 
L 255.485619 197.497484 
L 255.891032 191.382779 
L 256.296445 190.703367 
L 256.701858 202.932779 
L 257.107271 198.176896 
L 257.512683 196.818073 
L 257.918096 187.306308 
L 258.323509 194.100426 
L 258.728922 209.047484 
L 259.134334 194.100426 
L 259.539747 205.650426 
L 259.94516 202.253367 
L 260.350573 204.291602 
L 260.755985 194.100426 
L 261.161398 192.741602 
L 261.566811 197.497484 
L 261.972224 196.138661 
L 262.377637 185.947484 
L 263.188462 203.61219 
L 263.593875 192.06219 
L 263.999288 197.497484 
L 264.4047 200.894543 
L 264.810113 194.779837 
L 265.215526 194.100426 
L 265.620939 188.665132 
L 266.026351 199.53572 
L 266.431764 197.497484 
L 266.837177 208.368073 
L 267.24259 193.421014 
L 267.648003 190.023955 
L 268.053415 196.818073 
L 268.458828 187.306308 
L 268.864241 184.588661 
L 269.269654 209.047484 
L 269.675066 200.215132 
L 270.080479 201.573955 
L 270.485892 193.421014 
L 270.891305 199.53572 
L 271.296717 201.573955 
L 271.70213 194.779837 
L 272.107543 197.497484 
L 272.512956 202.253367 
L 272.918369 197.497484 
L 273.323781 194.779837 
L 273.729194 204.291602 
L 274.134607 202.253367 
L 274.54002 196.138661 
L 274.945432 198.856308 
L 275.350845 202.932779 
L 275.756258 193.421014 
L 276.161671 200.215132 
L 276.567083 191.382779 
L 276.972496 187.98572 
L 277.377909 200.215132 
L 277.783322 180.51219 
L 278.188735 196.138661 
L 278.594147 200.215132 
L 278.99956 198.176896 
L 279.404973 200.215132 
L 279.810386 191.382779 
L 280.215798 189.344543 
L 280.621211 192.741602 
L 281.026624 191.382779 
L 281.432037 192.741602 
L 281.837449 202.253367 
L 282.242862 192.741602 
L 282.648275 191.382779 
L 283.053688 189.344543 
L 283.459101 182.550426 
L 283.864513 200.894543 
L 284.269926 198.856308 
L 284.675339 194.100426 
L 285.080752 194.100426 
L 285.486164 182.550426 
L 285.891577 196.138661 
L 286.29699 185.947484 
L 287.107815 200.894543 
L 287.513228 193.421014 
L 287.918641 192.06219 
L 288.324054 197.497484 
L 288.729467 199.53572 
L 289.134879 198.856308 
L 289.540292 200.894543 
L 289.945705 195.459249 
L 290.351118 197.497484 
L 290.75653 193.421014 
L 291.161943 202.253367 
L 291.567356 220.597484 
L 291.972769 197.497484 
L 292.378181 190.703367 
L 292.783594 196.138661 
L 293.189007 182.550426 
L 293.59442 199.53572 
L 293.999833 196.138661 
L 294.405245 213.803367 
L 294.810658 190.023955 
L 295.216071 186.626896 
L 295.621484 193.421014 
L 296.026896 194.779837 
L 296.432309 192.06219 
L 296.837722 192.06219 
L 297.243135 187.98572 
L 297.648547 196.818073 
L 298.05396 192.741602 
L 298.459373 190.023955 
L 298.864786 194.100426 
L 299.270199 193.421014 
L 299.675611 201.573955 
L 300.081024 201.573955 
L 300.486437 194.779837 
L 300.89185 200.215132 
L 301.297262 187.306308 
L 301.702675 187.306308 
L 302.108088 190.023955 
L 302.513501 196.818073 
L 302.918913 186.626896 
L 303.324326 199.53572 
L 303.729739 189.344543 
L 304.135152 190.703367 
L 304.540565 202.253367 
L 304.945977 188.665132 
L 305.35139 200.215132 
L 305.756803 183.909249 
L 306.162216 177.794543 
L 306.567628 193.421014 
L 306.973041 193.421014 
L 307.378454 196.138661 
L 307.783867 194.779837 
L 308.189279 194.100426 
L 308.594692 210.406308 
L 309.000105 197.497484 
L 309.810931 182.550426 
L 310.216343 185.947484 
L 310.621756 195.459249 
L 311.027169 197.497484 
L 311.432582 200.215132 
L 311.837994 188.665132 
L 312.243407 182.550426 
L 312.64882 190.023955 
L 313.054233 194.779837 
L 313.459645 196.138661 
L 313.865058 190.703367 
L 314.270471 197.497484 
L 314.675884 193.421014 
L 315.081297 185.268073 
L 315.486709 206.329837 
L 315.892122 194.779837 
L 316.297535 189.344543 
L 316.702948 196.138661 
L 317.10836 187.98572 
L 317.513773 196.818073 
L 317.919186 195.459249 
L 318.324599 193.421014 
L 318.730011 182.550426 
L 319.135424 190.703367 
L 319.540837 187.306308 
L 319.94625 194.779837 
L 320.351663 196.818073 
L 320.757075 196.818073 
L 321.162488 184.588661 
L 321.567901 194.779837 
L 321.973314 192.06219 
L 322.378726 184.588661 
L 322.784139 190.703367 
L 323.189552 184.588661 
L 323.594965 192.06219 
L 324.000377 183.229837 
L 324.40579 193.421014 
L 324.811203 185.947484 
L 325.216616 203.61219 
L 326.027441 179.153367 
L 326.432854 183.909249 
L 326.838267 193.421014 
L 327.24368 192.06219 
L 327.649092 192.741602 
L 328.054505 203.61219 
L 328.459918 193.421014 
L 328.865331 192.741602 
L 329.270743 200.215132 
L 329.676156 190.023955 
L 330.081569 187.98572 
L 330.486982 191.382779 
L 330.892395 192.741602 
L 331.297807 200.894543 
L 331.70322 189.344543 
L 332.108633 189.344543 
L 332.514046 196.818073 
L 332.919458 190.023955 
L 333.324871 189.344543 
L 333.730284 179.153367 
L 334.135697 200.894543 
L 334.541109 196.818073 
L 334.946522 189.344543 
L 335.351935 200.215132 
L 335.757348 185.268073 
L 336.162761 200.215132 
L 336.973586 187.306308 
L 337.378999 188.665132 
L 337.784412 197.497484 
L 338.189824 189.344543 
L 338.595237 191.382779 
L 339.00065 196.138661 
L 339.406063 194.100426 
L 339.811475 179.832779 
L 340.216888 189.344543 
L 340.622301 183.909249 
L 341.027714 172.359249 
L 341.433126 196.818073 
L 342.243952 178.473955 
L 342.649365 196.138661 
L 343.054778 185.947484 
L 343.46019 190.703367 
L 343.865603 191.382779 
L 344.271016 181.871014 
L 344.676429 192.06219 
L 345.081841 190.023955 
L 345.487254 188.665132 
L 345.892667 200.894543 
L 346.29808 176.43572 
L 346.703492 197.497484 
L 347.108905 192.741602 
L 347.919731 186.626896 
L 348.325144 191.382779 
L 348.730556 186.626896 
L 349.135969 187.98572 
L 349.541382 194.779837 
L 349.946795 193.421014 
L 350.352207 187.98572 
L 350.75762 196.818073 
L 351.163033 178.473955 
L 351.568446 187.98572 
L 351.973858 181.871014 
L 352.379271 194.100426 
L 352.784684 202.932779 
L 353.190097 186.626896 
L 353.59551 194.779837 
L 354.000922 190.023955 
L 354.406335 187.306308 
L 354.811748 190.023955 
L 355.217161 185.947484 
L 355.622573 192.741602 
L 356.027986 179.832779 
L 356.433399 198.176896 
L 356.838812 184.588661 
L 357.244224 185.268073 
L 357.649637 196.818073 
L 358.05505 184.588661 
L 358.460463 197.497484 
L 358.865876 195.459249 
L 359.271288 183.229837 
L 359.676701 185.268073 
L 360.082114 193.421014 
L 360.487527 181.191602 
L 360.892939 185.947484 
L 361.298352 198.176896 
L 361.703765 194.100426 
L 362.109178 185.947484 
L 362.920003 185.947484 
L 363.325416 197.497484 
L 363.730829 191.382779 
L 364.136242 189.344543 
L 364.541654 180.51219 
L 364.947067 191.382779 
L 365.35248 196.138661 
L 365.757893 188.665132 
L 366.163305 183.909249 
L 366.568718 176.43572 
L 366.974131 201.573955 
L 367.379544 192.741602 
L 367.784956 195.459249 
L 368.190369 188.665132 
L 368.595782 191.382779 
L 369.001195 185.268073 
L 369.406608 192.06219 
L 369.81202 190.703367 
L 370.217433 190.703367 
L 371.028259 181.871014 
L 371.433671 197.497484 
L 371.839084 195.459249 
L 372.244497 196.138661 
L 372.64991 187.98572 
L 373.055322 188.665132 
L 373.460735 196.818073 
L 373.866148 190.023955 
L 374.271561 180.51219 
L 374.676974 184.588661 
L 375.082386 179.832779 
L 375.487799 194.100426 
L 375.893212 193.421014 
L 376.298625 185.947484 
L 376.704037 191.382779 
L 377.10945 194.779837 
L 377.514863 194.100426 
L 377.920276 198.176896 
L 378.325688 188.665132 
L 378.731101 196.818073 
L 379.541927 181.191602 
L 379.94734 190.703367 
L 380.352752 184.588661 
L 380.758165 185.947484 
L 381.163578 175.076896 
L 381.568991 198.856308 
L 381.974403 180.51219 
L 382.379816 186.626896 
L 382.785229 195.459249 
L 383.190642 189.344543 
L 383.596054 198.856308 
L 384.001467 174.397484 
L 384.40688 191.382779 
L 384.812293 179.832779 
L 385.217706 192.06219 
L 385.623118 187.98572 
L 386.433944 198.176896 
L 386.839357 193.421014 
L 387.244769 200.215132 
L 387.650182 196.818073 
L 388.055595 183.229837 
L 388.461008 196.818073 
L 388.86642 184.588661 
L 389.271833 187.306308 
L 389.677246 181.191602 
L 390.082659 194.100426 
L 390.488072 196.138661 
L 390.893484 204.971014 
L 391.298897 178.473955 
L 391.70431 194.100426 
L 392.109723 186.626896 
L 392.515135 183.229837 
L 392.920548 177.115132 
L 393.325961 182.550426 
L 394.136786 196.138661 
L 394.542199 182.550426 
L 394.947612 182.550426 
L 395.758438 194.100426 
L 396.16385 196.138661 
L 396.569263 181.191602 
L 397.380089 187.98572 
L 397.785501 187.306308 
L 398.190914 180.51219 
L 398.596327 190.703367 
L 399.00174 193.421014 
L 399.407152 193.421014 
L 399.812565 191.382779 
L 400.217978 182.550426 
L 400.623391 183.909249 
L 401.028804 194.100426 
L 401.839629 187.98572 
L 402.245042 192.741602 
L 402.650455 183.909249 
L 403.055867 192.06219 
L 403.46128 192.06219 
L 403.866693 187.98572 
L 404.272106 187.306308 
L 404.677518 185.947484 
L 405.082931 177.794543 
L 405.488344 183.229837 
L 405.893757 186.626896 
L 406.29917 185.947484 
L 406.704582 190.703367 
L 407.109995 178.473955 
L 407.515408 181.871014 
L 408.326233 194.100426 
L 408.731646 190.703367 
L 409.137059 194.779837 
L 409.542472 180.51219 
L 409.947884 192.741602 
L 410.353297 185.268073 
L 410.75871 185.947484 
L 411.164123 196.818073 
L 411.569536 182.550426 
L 411.974948 185.947484 
L 412.380361 183.909249 
L 412.785774 192.741602 
L 413.191187 187.98572 
L 413.596599 193.421014 
L 414.002012 196.138661 
L 414.407425 189.344543 
L 414.812838 176.43572 
L 415.21825 188.665132 
L 415.623663 190.023955 
L 416.029076 198.856308 
L 416.434489 194.779837 
L 416.839902 185.947484 
L 417.245314 181.871014 
L 417.650727 190.703367 
L 418.05614 190.703367 
L 418.461553 189.344543 
L 418.866965 194.779837 
L 419.272378 186.626896 
L 419.677791 183.909249 
L 420.083204 187.98572 
L 420.488616 196.138661 
L 420.894029 187.98572 
L 421.299442 188.665132 
L 421.704855 186.626896 
L 422.110268 185.268073 
L 422.51568 186.626896 
L 422.921093 185.947484 
L 423.326506 183.229837 
L 423.731919 175.076896 
L 424.137331 180.51219 
L 424.542744 179.832779 
L 424.948157 177.115132 
L 425.35357 184.588661 
L 425.758982 183.229837 
L 426.164395 188.665132 
L 426.569808 190.023955 
L 426.975221 190.703367 
L 427.380634 183.909249 
L 427.786046 198.856308 
L 428.191459 185.268073 
L 428.596872 180.51219 
L 429.002285 178.473955 
L 429.407697 187.306308 
L 429.81311 179.153367 
L 430.218523 180.51219 
L 430.623936 188.665132 
L 431.029348 190.703367 
L 431.434761 188.665132 
L 431.840174 189.344543 
L 432.245587 179.832779 
L 432.651 180.51219 
L 433.056412 168.282779 
L 433.461825 188.665132 
L 433.867238 182.550426 
L 434.272651 197.497484 
L 434.678063 191.382779 
L 435.083476 187.306308 
L 435.488889 175.076896 
L 435.894302 183.229837 
L 436.299714 173.038661 
L 436.705127 175.076896 
L 437.11054 194.779837 
L 437.515953 181.191602 
L 437.921366 181.871014 
L 438.326778 187.98572 
L 438.732191 182.550426 
L 439.137604 196.138661 
L 439.543017 177.115132 
L 439.948429 180.51219 
L 440.353842 182.550426 
L 440.759255 181.871014 
L 441.164668 177.794543 
L 441.57008 194.779837 
L 441.975493 187.98572 
L 442.380906 177.794543 
L 442.786319 198.176896 
L 443.191732 194.779837 
L 443.597144 181.871014 
L 444.002557 178.473955 
L 444.40797 191.382779 
L 444.813383 177.115132 
L 445.218795 189.344543 
L 445.624208 175.756308 
L 446.029621 186.626896 
L 446.435034 181.191602 
L 447.245859 187.98572 
L 447.651272 179.832779 
L 448.056685 196.818073 
L 448.462098 186.626896 
L 449.272923 185.268073 
L 449.678336 177.794543 
L 450.083749 183.229837 
L 450.489161 181.191602 
L 450.894574 185.947484 
L 451.299987 187.98572 
L 451.7054 194.100426 
L 452.110812 191.382779 
L 452.516225 196.138661 
L 452.921638 194.100426 
L 453.732464 171.679837 
L 454.137876 173.038661 
L 454.543289 189.344543 
L 454.948702 181.191602 
L 455.354115 185.947484 
L 455.759527 184.588661 
L 456.16494 183.909249 
L 456.975766 185.268073 
L 457.381178 183.909249 
L 457.786591 179.153367 
L 458.192004 183.229837 
L 458.597417 183.229837 
L 459.00283 181.871014 
L 459.408242 193.421014 
L 459.813655 179.153367 
L 460.219068 177.794543 
L 460.624481 184.588661 
L 461.029893 173.038661 
L 461.435306 201.573955 
L 461.840719 175.756308 
L 462.651544 196.138661 
L 463.056957 175.076896 
L 463.46237 186.626896 
L 463.867783 192.741602 
L 464.273196 179.153367 
L 464.678608 180.51219 
L 465.084021 190.703367 
L 465.489434 177.794543 
L 465.894847 178.473955 
L 465.894847 178.473955 
" clip-path="url(#p237d93030b)" style="fill: none; stroke: #c71585; stroke-width: 1.5; stroke-linecap: square"/>
   </g>
   <g id="patch_3">
    <path d="M 39.785756 285.141602 
L 39.785756 7.941602 
" style="fill: none; stroke: #000000; stroke-width: 0.8; stroke-linejoin: miter; stroke-linecap: square"/>
   </g>
   <g id="patch_4">
    <path d="M 486.185756 285.141602 
L 486.185756 7.941602 
" style="fill: none; stroke: #000000; stroke-width: 0.8; stroke-linejoin: miter; stroke-linecap: square"/>
   </g>
   <g id="patch_5">
    <path d="M 39.785756 285.141602 
L 486.185756 285.141602 
" style="fill: none; stroke: #000000; stroke-width: 0.8; stroke-linejoin: miter; stroke-linecap: square"/>
   </g>
   <g id="patch_6">
    <path d="M 39.785756 7.941602 
L 486.185756 7.941602 
" style="fill: none; stroke: #000000; stroke-width: 0.8; stroke-linejoin: miter; stroke-linecap: square"/>
   </g>
   <g id="legend_1">
    <g id="patch_7">
     <path d="M 394.300609 43.815959 
L 479.185756 43.815959 
Q 481.185756 43.815959 481.185756 41.815959 
L 481.185756 14.941602 
Q 481.185756 12.941602 479.185756 12.941602 
L 394.300609 12.941602 
Q 392.300609 12.941602 392.300609 14.941602 
L 392.300609 41.815959 
Q 392.300609 43.815959 394.300609 43.815959 
z
" style="fill: #ffffff; opacity: 0.8; stroke: #cccccc; stroke-linejoin: miter"/>
    </g>
    <g id="line2d_15">
     <path d="M 396.300609 20.441602 
L 406.300609 20.441602 
L 416.300609 20.441602 
" style="fill: none; stroke: #008080; stroke-width: 1.5; stroke-linecap: square"/>
    </g>
    <g id="text_16">
     <!-- Algorithm 1 -->
     <g transform="translate(424.300609 23.941602) scale(0.1 -0.1)">
      <defs>
       <path id="CMR17-6c" d="M 979 4396 
L 218 4326 
L 218 4160 
C 595 4160 653 4122 653 3817 
L 653 426 
C 653 184 627 153 218 153 
L 218 -13 
C 371 0 653 0 813 0 
C 979 0 1261 0 1414 -13 
L 1414 153 
C 1005 153 979 178 979 426 
L 979 4396 
z
" transform="scale(0.015625)"/>
       <path id="CMR17-67" d="M 710 1164 
C 832 1068 1043 960 1299 960 
C 1805 960 2240 1357 2240 1888 
C 2240 2054 2189 2310 1997 2509 
C 2176 2692 2438 2752 2586 2752 
C 2611 2752 2650 2752 2682 2734 
C 2656 2728 2598 2703 2598 2605 
C 2598 2527 2656 2471 2739 2471 
C 2835 2471 2886 2533 2886 2614 
C 2886 2731 2790 2854 2586 2854 
C 2330 2854 2106 2738 1926 2580 
C 1734 2753 1504 2816 1299 2816 
C 794 2816 358 2419 358 1888 
C 358 1522 570 1292 634 1228 
C 442 1004 442 743 442 711 
C 442 545 506 302 723 168 
C 390 85 128 -169 128 -486 
C 128 -943 736 -1280 1466 -1280 
C 2170 -1280 2803 -956 2803 -479 
C 2803 384 1856 384 1363 384 
C 1216 384 954 384 922 391 
C 723 423 589 602 589 826 
C 589 883 589 1024 710 1164 
z
M 1299 1068 
C 736 1068 736 1760 736 1889 
C 736 2016 736 2708 1299 2708 
C 1862 2708 1862 2016 1862 1889 
C 1862 1760 1862 1068 1299 1068 
z
M 1466 -1171 
C 826 -1171 384 -835 384 -486 
C 384 -289 493 -105 634 -4 
C 794 104 858 104 1293 104 
C 1818 104 2547 104 2547 -486 
C 2547 -835 2106 -1171 1466 -1171 
z
" transform="scale(0.015625)"/>
       <path id="CMR17-6f" d="M 2758 1356 
C 2758 2176 2163 2816 1466 2816 
C 768 2816 173 2176 173 1356 
C 173 551 768 -64 1466 -64 
C 2163 -64 2758 551 2758 1356 
z
M 1466 51 
C 1165 51 909 230 762 480 
C 602 767 582 1126 582 1408 
C 582 1677 595 2010 762 2298 
C 890 2509 1139 2714 1466 2714 
C 1754 2714 1997 2554 2150 2330 
C 2349 2029 2349 1607 2349 1408 
C 2349 1158 2336 775 2163 467 
C 1984 173 1709 51 1466 51 
z
" transform="scale(0.015625)"/>
       <path id="CMR17-69" d="M 992 3909 
C 992 4049 877 4170 730 4170 
C 589 4170 467 4056 467 3909 
C 467 3769 582 3648 730 3648 
C 870 3648 992 3763 992 3909 
z
M 243 2706 
L 243 2541 
C 602 2541 653 2502 653 2197 
L 653 427 
C 653 184 627 153 218 153 
L 218 -13 
C 371 0 646 0 806 0 
C 960 0 1222 0 1370 -13 
L 1370 153 
C 992 153 979 191 979 420 
L 979 2776 
L 243 2706 
z
" transform="scale(0.015625)"/>
       <path id="CMR17-68" d="M 2656 1933 
C 2656 2259 2592 2790 1837 2790 
C 1312 2790 1056 2368 979 2157 
L 973 2157 
L 973 4396 
L 211 4326 
L 211 4160 
C 589 4160 646 4122 646 3817 
L 646 426 
C 646 184 621 153 211 153 
L 211 -13 
C 365 0 646 0 813 0 
C 979 0 1267 0 1421 -13 
L 1421 153 
C 1011 153 986 178 986 428 
L 986 1658 
C 986 2247 1344 2688 1792 2688 
C 2266 2688 2317 2266 2317 1958 
L 2317 428 
C 2317 184 2291 153 1882 153 
L 1882 -13 
C 2035 0 2317 0 2483 0 
C 2650 0 2938 0 3091 -13 
L 3091 153 
C 2682 153 2656 178 2656 428 
L 2656 1933 
z
" transform="scale(0.015625)"/>
      </defs>
      <use xlink:href="#CMR17-41" transform="scale(0.996264)"/>
      <use xlink:href="#CMR17-6c" transform="translate(69.07243 0) scale(0.996264)"/>
      <use xlink:href="#CMR17-67" transform="translate(93.943488 0) scale(0.996264)"/>
      <use xlink:href="#CMR17-6f" transform="translate(139.633965 0) scale(0.996264)"/>
      <use xlink:href="#CMR17-72" transform="translate(185.324443 0) scale(0.996264)"/>
      <use xlink:href="#CMR17-69" transform="translate(220.60521 0) scale(0.996264)"/>
      <use xlink:href="#CMR17-74" transform="translate(245.476269 0) scale(0.996264)"/>
      <use xlink:href="#CMR17-68" transform="translate(280.757037 0) scale(0.996264)"/>
      <use xlink:href="#CMR17-6d" transform="translate(331.652406 0) scale(0.996264)"/>
      <use xlink:href="#CMR17-31" transform="translate(438.647963 0) scale(0.996264)"/>
     </g>
    </g>
    <g id="line2d_16">
     <path d="M 396.300609 34.37878 
L 406.300609 34.37878 
L 416.300609 34.37878 
" style="fill: none; stroke: #c71585; stroke-width: 1.5; stroke-linecap: square"/>
    </g>
    <g id="text_17">
     <!-- Algorithm 2 -->
     <g transform="translate(424.300609 37.87878) scale(0.1 -0.1)">
      <use xlink:href="#CMR17-41" transform="scale(0.996264)"/>
      <use xlink:href="#CMR17-6c" transform="translate(69.07243 0) scale(0.996264)"/>
      <use xlink:href="#CMR17-67" transform="translate(93.943488 0) scale(0.996264)"/>
      <use xlink:href="#CMR17-6f" transform="translate(139.633965 0) scale(0.996264)"/>
      <use xlink:href="#CMR17-72" transform="translate(185.324443 0) scale(0.996264)"/>
      <use xlink:href="#CMR17-69" transform="translate(220.60521 0) scale(0.996264)"/>
      <use xlink:href="#CMR17-74" transform="translate(245.476269 0) scale(0.996264)"/>
      <use xlink:href="#CMR17-68" transform="translate(280.757037 0) scale(0.996264)"/>
      <use xlink:href="#CMR17-6d" transform="translate(331.652406 0) scale(0.996264)"/>
      <use xlink:href="#CMR17-32" transform="translate(438.647963 0) scale(0.996264)"/>
     </g>
    </g>
   </g>
  </g>
 </g>
 <defs>
  <clipPath id="p237d93030b">
   <rect x="39.785756" y="7.941602" width="446.4" height="277.2"/>
  </clipPath>
 </defs>
</svg>
