<?xml version="1.0" encoding="utf-8" standalone="no"?>
<!DOCTYPE svg PUBLIC "-//W3C//DTD SVG 1.1//EN"
  "http://www.w3.org/Graphics/SVG/1.1/DTD/svg11.dtd">
<svg xmlns:xlink="http://www.w3.org/1999/xlink" width="494.492719pt" height="321.418317pt" viewBox="0 0 494.492719 321.418317" xmlns="http://www.w3.org/2000/svg" version="1.1">
 <metadata>
  <rdf:RDF xmlns:dc="http://purl.org/dc/elements/1.1/" xmlns:cc="http://creativecommons.org/ns#" xmlns:rdf="http://www.w3.org/1999/02/22-rdf-syntax-ns#">
   <cc:Work>
    <dc:type rdf:resource="http://purl.org/dc/dcmitype/StillImage"/>
    <dc:date>2025-04-14T16:21:59.323763</dc:date>
    <dc:format>image/svg+xml</dc:format>
    <dc:creator>
     <cc:Agent>
      <dc:title>Matplotlib v3.7.0, https://matplotlib.org/</dc:title>
     </cc:Agent>
    </dc:creator>
   </cc:Work>
  </rdf:RDF>
 </metadata>
 <defs>
  <style type="text/css">*{stroke-linejoin: round; stroke-linecap: butt}</style>
 </defs>
 <g id="figure_1">
  <g id="patch_1">
   <path d="M 0 321.418317 
L 494.492719 321.418317 
L 494.492719 0 
L 0 0 
z
" style="fill: #ffffff"/>
  </g>
  <g id="axes_1">
   <g id="patch_2">
    <path d="M 40.892719 284.4 
L 487.292719 284.4 
L 487.292719 7.2 
L 40.892719 7.2 
z
" style="fill: #ffffff"/>
   </g>
   <g id="matplotlib.axis_1">
    <g id="xtick_1">
     <g id="line2d_1">
      <defs>
       <path id="m9b628be4ea" d="M 0 0 
L 0 3.5 
" style="stroke: #000000; stroke-width: 0.8"/>
      </defs>
      <g>
       <use xlink:href="#m9b628be4ea" x="61.183628" y="284.4" style="stroke: #000000; stroke-width: 0.8"/>
      </g>
     </g>
     <g id="text_1">
      <!-- $\mathdefault{0.0}$ -->
      <g transform="translate(54.818589 298.318498) scale(0.1 -0.1)">
       <defs>
        <path id="CMR17-30" d="M 2688 2025 
C 2688 2416 2682 3080 2413 3591 
C 2176 4039 1798 4198 1466 4198 
C 1158 4198 768 4058 525 3597 
C 269 3118 243 2524 243 2025 
C 243 1661 250 1106 448 619 
C 723 -39 1216 -128 1466 -128 
C 1760 -128 2208 -7 2470 600 
C 2662 1042 2688 1559 2688 2025 
z
M 1466 -26 
C 1056 -26 813 325 723 812 
C 653 1188 653 1738 653 2096 
C 653 2588 653 2997 736 3387 
C 858 3929 1216 4096 1466 4096 
C 1728 4096 2067 3923 2189 3400 
C 2272 3036 2278 2607 2278 2096 
C 2278 1680 2278 1169 2202 792 
C 2067 95 1690 -26 1466 -26 
z
" transform="scale(0.015625)"/>
        <path id="CMMI12-3a" d="M 1178 307 
C 1178 492 1024 619 870 619 
C 685 619 557 466 557 313 
C 557 128 710 0 864 0 
C 1050 0 1178 153 1178 307 
z
" transform="scale(0.015625)"/>
       </defs>
       <use xlink:href="#CMR17-30" transform="scale(0.996264)"/>
       <use xlink:href="#CMMI12-3a" transform="translate(45.690477 0) scale(0.996264)"/>
       <use xlink:href="#CMR17-30" transform="translate(72.787654 0) scale(0.996264)"/>
      </g>
     </g>
    </g>
    <g id="xtick_2">
     <g id="line2d_2">
      <g>
       <use xlink:href="#m9b628be4ea" x="142.347265" y="284.4" style="stroke: #000000; stroke-width: 0.8"/>
      </g>
     </g>
     <g id="text_2">
      <!-- $\mathdefault{0.2}$ -->
      <g transform="translate(135.982225 298.318498) scale(0.1 -0.1)">
       <defs>
        <path id="CMR17-32" d="M 2669 989 
L 2554 989 
C 2490 536 2438 459 2413 420 
C 2381 369 1920 369 1830 369 
L 602 369 
C 832 619 1280 1072 1824 1597 
C 2214 1967 2669 2402 2669 3035 
C 2669 3790 2067 4224 1395 4224 
C 691 4224 262 3604 262 3030 
C 262 2780 448 2748 525 2748 
C 589 2748 781 2787 781 3010 
C 781 3207 614 3264 525 3264 
C 486 3264 448 3258 422 3245 
C 544 3790 915 4058 1306 4058 
C 1862 4058 2227 3617 2227 3035 
C 2227 2479 1901 2000 1536 1584 
L 262 146 
L 262 0 
L 2515 0 
L 2669 989 
z
" transform="scale(0.015625)"/>
       </defs>
       <use xlink:href="#CMR17-30" transform="scale(0.996264)"/>
       <use xlink:href="#CMMI12-3a" transform="translate(45.690477 0) scale(0.996264)"/>
       <use xlink:href="#CMR17-32" transform="translate(72.787654 0) scale(0.996264)"/>
      </g>
     </g>
    </g>
    <g id="xtick_3">
     <g id="line2d_3">
      <g>
       <use xlink:href="#m9b628be4ea" x="223.510901" y="284.4" style="stroke: #000000; stroke-width: 0.8"/>
      </g>
     </g>
     <g id="text_3">
      <!-- $\mathdefault{0.4}$ -->
      <g transform="translate(217.145861 298.318498) scale(0.1 -0.1)">
       <defs>
        <path id="CMR17-34" d="M 2150 4122 
C 2150 4256 2144 4256 2029 4256 
L 128 1254 
L 128 1088 
L 1779 1088 
L 1779 457 
C 1779 224 1766 160 1318 160 
L 1197 160 
L 1197 0 
C 1402 0 1747 0 1965 0 
C 2182 0 2528 0 2733 0 
L 2733 160 
L 2611 160 
C 2163 160 2150 224 2150 457 
L 2150 1088 
L 2803 1088 
L 2803 1254 
L 2150 1254 
L 2150 4122 
z
M 1798 3703 
L 1798 1254 
L 256 1254 
L 1798 3703 
z
" transform="scale(0.015625)"/>
       </defs>
       <use xlink:href="#CMR17-30" transform="scale(0.996264)"/>
       <use xlink:href="#CMMI12-3a" transform="translate(45.690477 0) scale(0.996264)"/>
       <use xlink:href="#CMR17-34" transform="translate(72.787654 0) scale(0.996264)"/>
      </g>
     </g>
    </g>
    <g id="xtick_4">
     <g id="line2d_4">
      <g>
       <use xlink:href="#m9b628be4ea" x="304.674537" y="284.4" style="stroke: #000000; stroke-width: 0.8"/>
      </g>
     </g>
     <g id="text_4">
      <!-- $\mathdefault{0.6}$ -->
      <g transform="translate(298.309498 298.318498) scale(0.1 -0.1)">
       <defs>
        <path id="CMR17-36" d="M 678 2176 
C 678 3690 1395 4032 1811 4032 
C 1946 4032 2272 4009 2400 3776 
C 2298 3776 2106 3776 2106 3553 
C 2106 3381 2246 3323 2336 3323 
C 2394 3323 2566 3348 2566 3560 
C 2566 3954 2246 4179 1805 4179 
C 1043 4179 243 3390 243 1984 
C 243 253 966 -128 1478 -128 
C 2099 -128 2688 427 2688 1283 
C 2688 2081 2170 2662 1517 2662 
C 1126 2662 838 2407 678 1960 
L 678 2176 
z
M 1478 25 
C 691 25 691 1200 691 1436 
C 691 1896 909 2560 1504 2560 
C 1613 2560 1926 2560 2138 2120 
C 2253 1870 2253 1609 2253 1289 
C 2253 944 2253 690 2118 434 
C 1978 171 1773 25 1478 25 
z
" transform="scale(0.015625)"/>
       </defs>
       <use xlink:href="#CMR17-30" transform="scale(0.996264)"/>
       <use xlink:href="#CMMI12-3a" transform="translate(45.690477 0) scale(0.996264)"/>
       <use xlink:href="#CMR17-36" transform="translate(72.787654 0) scale(0.996264)"/>
      </g>
     </g>
    </g>
    <g id="xtick_5">
     <g id="line2d_5">
      <g>
       <use xlink:href="#m9b628be4ea" x="385.838174" y="284.4" style="stroke: #000000; stroke-width: 0.8"/>
      </g>
     </g>
     <g id="text_5">
      <!-- $\mathdefault{0.8}$ -->
      <g transform="translate(379.473134 298.318498) scale(0.1 -0.1)">
       <defs>
        <path id="CMR17-38" d="M 1741 2264 
C 2144 2467 2554 2773 2554 3263 
C 2554 3841 1990 4179 1472 4179 
C 890 4179 378 3759 378 3180 
C 378 3021 416 2747 666 2505 
C 730 2442 998 2251 1171 2130 
C 883 1983 211 1634 211 934 
C 211 279 838 -128 1459 -128 
C 2144 -128 2720 362 2720 1010 
C 2720 1590 2330 1857 2074 2029 
L 1741 2264 
z
M 902 2822 
C 851 2854 595 3051 595 3351 
C 595 3739 998 4032 1459 4032 
C 1965 4032 2336 3676 2336 3262 
C 2336 2669 1670 2331 1638 2331 
C 1632 2331 1626 2331 1574 2370 
L 902 2822 
z
M 2080 1519 
C 2176 1449 2483 1240 2483 851 
C 2483 381 2010 25 1472 25 
C 890 25 448 438 448 940 
C 448 1443 838 1862 1280 2060 
L 2080 1519 
z
" transform="scale(0.015625)"/>
       </defs>
       <use xlink:href="#CMR17-30" transform="scale(0.996264)"/>
       <use xlink:href="#CMMI12-3a" transform="translate(45.690477 0) scale(0.996264)"/>
       <use xlink:href="#CMR17-38" transform="translate(72.787654 0) scale(0.996264)"/>
      </g>
     </g>
    </g>
    <g id="xtick_6">
     <g id="line2d_6">
      <g>
       <use xlink:href="#m9b628be4ea" x="467.00181" y="284.4" style="stroke: #000000; stroke-width: 0.8"/>
      </g>
     </g>
     <g id="text_6">
      <!-- $\mathdefault{1.0}$ -->
      <g transform="translate(460.63677 298.318498) scale(0.1 -0.1)">
       <defs>
        <path id="CMR17-31" d="M 1702 4058 
C 1702 4192 1696 4192 1606 4192 
C 1357 3916 979 3827 621 3827 
C 602 3827 570 3827 563 3808 
C 557 3795 557 3782 557 3648 
C 755 3648 1088 3686 1344 3839 
L 1344 461 
C 1344 236 1331 160 781 160 
L 589 160 
L 589 0 
C 896 0 1216 0 1523 0 
C 1830 0 2150 0 2458 0 
L 2458 160 
L 2266 160 
C 1715 160 1702 230 1702 458 
L 1702 4058 
z
" transform="scale(0.015625)"/>
       </defs>
       <use xlink:href="#CMR17-31" transform="scale(0.996264)"/>
       <use xlink:href="#CMMI12-3a" transform="translate(45.690477 0) scale(0.996264)"/>
       <use xlink:href="#CMR17-30" transform="translate(72.787654 0) scale(0.996264)"/>
      </g>
     </g>
    </g>
    <g id="text_7">
     <!-- Potential Energy Difference / $k_BT$ -->
     <g transform="translate(189.198736 311.727657) scale(0.1 -0.1)">
      <defs>
       <path id="CMR17-50" d="M 1267 2042 
L 2291 2042 
C 3117 2042 3718 2578 3718 3184 
C 3718 3791 3130 4352 2291 4352 
L 333 4352 
L 333 4186 
C 774 4186 845 4186 845 3899 
L 845 446 
C 845 160 774 160 333 160 
L 333 0 
C 518 0 858 0 1056 0 
C 1254 0 1594 0 1779 0 
L 1779 160 
C 1338 160 1267 160 1267 446 
L 1267 2042 
z
M 1254 2176 
L 1254 3938 
C 1254 4155 1267 4186 1523 4186 
L 2170 4186 
C 2995 4186 3232 3714 3232 3184 
C 3232 2604 2950 2176 2170 2176 
L 1254 2176 
z
" transform="scale(0.015625)"/>
       <path id="CMR17-6f" d="M 2758 1356 
C 2758 2176 2163 2816 1466 2816 
C 768 2816 173 2176 173 1356 
C 173 551 768 -64 1466 -64 
C 2163 -64 2758 551 2758 1356 
z
M 1466 51 
C 1165 51 909 230 762 480 
C 602 767 582 1126 582 1408 
C 582 1677 595 2010 762 2298 
C 890 2509 1139 2714 1466 2714 
C 1754 2714 1997 2554 2150 2330 
C 2349 2029 2349 1607 2349 1408 
C 2349 1158 2336 775 2163 467 
C 1984 173 1709 51 1466 51 
z
" transform="scale(0.015625)"/>
       <path id="CMR17-74" d="M 966 2560 
L 1862 2560 
L 1862 2725 
L 966 2725 
L 966 3904 
L 851 3904 
C 838 3245 614 2668 70 2668 
L 70 2560 
L 627 2560 
L 627 771 
C 627 650 627 -64 1370 -64 
C 1747 -64 1965 306 1965 777 
L 1965 1140 
L 1850 1140 
L 1850 783 
C 1850 344 1677 51 1408 51 
C 1222 51 966 178 966 758 
L 966 2560 
z
" transform="scale(0.015625)"/>
       <path id="CMR17-65" d="M 2438 1472 
C 2464 1498 2464 1511 2464 1576 
C 2464 2238 2118 2816 1389 2816 
C 710 2816 173 2169 173 1383 
C 173 551 781 -64 1459 -64 
C 2176 -64 2458 607 2458 740 
C 2458 784 2419 784 2406 784 
C 2362 784 2355 771 2330 696 
C 2189 265 1837 51 1504 51 
C 1229 51 954 203 781 480 
C 582 803 582 1176 582 1472 
L 2438 1472 
z
M 589 1568 
C 634 2505 1126 2714 1382 2714 
C 1818 2714 2112 2297 2118 1568 
L 589 1568 
z
" transform="scale(0.015625)"/>
       <path id="CMR17-6e" d="M 2656 1933 
C 2656 2259 2592 2790 1837 2790 
C 1331 2790 1069 2400 973 2144 
L 966 2144 
L 966 2790 
L 211 2720 
L 211 2554 
C 589 2554 646 2515 646 2208 
L 646 428 
C 646 184 621 153 211 153 
L 211 -13 
C 365 0 646 0 813 0 
C 979 0 1267 0 1421 -13 
L 1421 153 
C 1011 153 986 178 986 428 
L 986 1658 
C 986 2247 1344 2688 1792 2688 
C 2266 2688 2317 2266 2317 1958 
L 2317 428 
C 2317 184 2291 153 1882 153 
L 1882 -13 
C 2035 0 2317 0 2483 0 
C 2650 0 2938 0 3091 -13 
L 3091 153 
C 2682 153 2656 178 2656 428 
L 2656 1933 
z
" transform="scale(0.015625)"/>
       <path id="CMR17-69" d="M 992 3909 
C 992 4049 877 4170 730 4170 
C 589 4170 467 4056 467 3909 
C 467 3769 582 3648 730 3648 
C 870 3648 992 3763 992 3909 
z
M 243 2706 
L 243 2541 
C 602 2541 653 2502 653 2197 
L 653 427 
C 653 184 627 153 218 153 
L 218 -13 
C 371 0 646 0 806 0 
C 960 0 1222 0 1370 -13 
L 1370 153 
C 992 153 979 191 979 420 
L 979 2776 
L 243 2706 
z
" transform="scale(0.015625)"/>
       <path id="CMR17-61" d="M 2304 1653 
C 2304 2072 2304 2294 2035 2543 
C 1798 2752 1523 2816 1306 2816 
C 800 2816 435 2407 435 1971 
C 435 1728 627 1728 666 1728 
C 749 1728 896 1778 896 1954 
C 896 2112 774 2181 666 2181 
C 640 2181 608 2174 589 2168 
C 723 2592 1069 2714 1293 2714 
C 1613 2714 1965 2429 1965 1885 
L 1965 1600 
C 1587 1600 1133 1549 774 1357 
C 371 1133 256 813 256 570 
C 256 77 832 -64 1171 -64 
C 1523 -64 1850 139 1990 511 
C 2003 233 2182 -18 2464 -18 
C 2598 -18 2938 70 2938 567 
L 2938 920 
L 2822 920 
L 2822 562 
C 2822 178 2650 128 2566 128 
C 2304 128 2304 458 2304 738 
L 2304 1653 
z
M 1965 870 
C 1965 317 1568 38 1216 38 
C 896 38 646 275 646 570 
C 646 761 730 1100 1101 1305 
C 1408 1478 1760 1504 1965 1504 
L 1965 870 
z
" transform="scale(0.015625)"/>
       <path id="CMR17-6c" d="M 979 4396 
L 218 4326 
L 218 4160 
C 595 4160 653 4122 653 3817 
L 653 426 
C 653 184 627 153 218 153 
L 218 -13 
C 371 0 653 0 813 0 
C 979 0 1261 0 1414 -13 
L 1414 153 
C 1005 153 979 178 979 426 
L 979 4396 
z
" transform="scale(0.015625)"/>
       <path id="CMR17-45" d="M 3885 1615 
L 3770 1615 
C 3629 676 3546 166 2419 166 
L 1530 166 
C 1274 166 1261 197 1261 414 
L 1261 2176 
L 1862 2176 
C 2464 2176 2522 1960 2522 1430 
L 2637 1430 
L 2637 3081 
L 2522 3081 
C 2522 2557 2464 2342 1862 2342 
L 1261 2342 
L 1261 3913 
C 1261 4128 1274 4160 1530 4160 
L 2406 4160 
C 3398 4160 3514 3769 3603 2929 
L 3718 2929 
L 3565 4325 
L 326 4325 
L 326 4160 
C 768 4160 838 4160 838 3874 
L 838 451 
C 838 166 768 166 326 166 
L 326 0 
L 3654 0 
L 3885 1615 
z
" transform="scale(0.015625)"/>
       <path id="CMR17-72" d="M 960 1497 
C 960 2112 1222 2688 1702 2688 
C 1747 2688 1792 2682 1837 2662 
C 1837 2662 1696 2617 1696 2452 
C 1696 2298 1818 2234 1914 2234 
C 1990 2234 2131 2279 2131 2458 
C 2131 2663 1926 2790 1709 2790 
C 1222 2790 1011 2317 947 2093 
L 941 2093 
L 941 2790 
L 198 2720 
L 198 2554 
C 576 2554 634 2515 634 2208 
L 634 428 
C 634 184 608 153 198 153 
L 198 -13 
C 352 0 646 0 813 0 
C 998 0 1325 0 1498 -13 
L 1498 153 
C 1037 153 960 153 960 440 
L 960 1497 
z
" transform="scale(0.015625)"/>
       <path id="CMR17-67" d="M 710 1164 
C 832 1068 1043 960 1299 960 
C 1805 960 2240 1357 2240 1888 
C 2240 2054 2189 2310 1997 2509 
C 2176 2692 2438 2752 2586 2752 
C 2611 2752 2650 2752 2682 2734 
C 2656 2728 2598 2703 2598 2605 
C 2598 2527 2656 2471 2739 2471 
C 2835 2471 2886 2533 2886 2614 
C 2886 2731 2790 2854 2586 2854 
C 2330 2854 2106 2738 1926 2580 
C 1734 2753 1504 2816 1299 2816 
C 794 2816 358 2419 358 1888 
C 358 1522 570 1292 634 1228 
C 442 1004 442 743 442 711 
C 442 545 506 302 723 168 
C 390 85 128 -169 128 -486 
C 128 -943 736 -1280 1466 -1280 
C 2170 -1280 2803 -956 2803 -479 
C 2803 384 1856 384 1363 384 
C 1216 384 954 384 922 391 
C 723 423 589 602 589 826 
C 589 883 589 1024 710 1164 
z
M 1299 1068 
C 736 1068 736 1760 736 1889 
C 736 2016 736 2708 1299 2708 
C 1862 2708 1862 2016 1862 1889 
C 1862 1760 1862 1068 1299 1068 
z
M 1466 -1171 
C 826 -1171 384 -835 384 -486 
C 384 -289 493 -105 634 -4 
C 794 104 858 104 1293 104 
C 1818 104 2547 104 2547 -486 
C 2547 -835 2106 -1171 1466 -1171 
z
" transform="scale(0.015625)"/>
       <path id="CMR17-79" d="M 2496 2197 
C 2656 2586 2944 2586 3034 2586 
L 3034 2752 
C 2912 2752 2752 2752 2630 2752 
C 2496 2752 2285 2752 2157 2758 
L 2157 2592 
C 2400 2573 2406 2394 2406 2343 
C 2406 2280 2394 2248 2362 2171 
L 1664 449 
L 902 2306 
C 870 2382 870 2426 870 2433 
C 870 2573 1018 2586 1171 2586 
L 1171 2758 
C 1018 2752 742 2752 582 2752 
C 410 2752 205 2752 64 2758 
L 64 2586 
C 410 2586 448 2554 531 2350 
L 1485 15 
C 1197 -738 1030 -1178 627 -1178 
C 557 -1178 397 -1159 282 -1044 
C 429 -1031 493 -942 493 -833 
C 493 -725 416 -629 288 -629 
C 147 -629 77 -725 77 -840 
C 77 -1095 339 -1280 627 -1280 
C 998 -1280 1229 -922 1357 -604 
L 2496 2197 
z
" transform="scale(0.015625)"/>
       <path id="CMR17-44" d="M 333 4352 
L 333 4186 
C 774 4186 845 4186 845 3900 
L 845 452 
C 845 166 774 166 333 166 
L 333 0 
L 2368 0 
C 3398 0 4224 943 4224 2141 
C 4224 3346 3411 4352 2368 4352 
L 333 4352 
z
M 1523 166 
C 1267 166 1254 197 1254 414 
L 1254 3938 
C 1254 4155 1267 4186 1523 4186 
L 2240 4186 
C 2771 4186 3750 3874 3750 2141 
C 3750 1242 3488 879 3366 707 
C 3213 510 2848 166 2240 166 
L 1523 166 
z
" transform="scale(0.015625)"/>
       <path id="CMR17-b" d="M 2554 2560 
L 3283 2560 
L 3283 2725 
L 2541 2725 
L 2541 3494 
C 2541 4022 2810 4352 3085 4352 
C 3168 4352 3264 4327 3328 4282 
C 3277 4269 3142 4225 3142 4067 
C 3142 3901 3270 3850 3360 3850 
C 3450 3850 3578 3901 3578 4067 
C 3578 4308 3347 4454 3091 4454 
C 2842 4454 2637 4333 2477 4181 
C 2330 4390 2086 4454 1837 4454 
C 1338 4454 634 4168 634 3469 
L 634 2725 
L 122 2725 
L 122 2560 
L 634 2560 
L 634 427 
C 634 184 608 153 198 153 
L 198 -13 
C 352 0 634 0 794 0 
C 960 0 1242 0 1395 -13 
L 1395 153 
C 986 153 960 178 960 427 
L 960 2560 
L 2227 2560 
L 2227 427 
C 2227 184 2202 153 1792 153 
L 1792 -13 
C 1946 0 2240 0 2406 0 
C 2592 0 2918 0 3091 -13 
L 3091 153 
C 2630 153 2554 153 2554 439 
L 2554 2560 
z
M 947 2725 
L 947 3469 
C 947 4047 1395 4352 1824 4352 
C 1920 4352 2170 4332 2323 4187 
C 2208 4187 2099 4136 2099 3977 
C 2099 3812 2246 3767 2259 3767 
C 2227 3652 2227 3526 2227 3481 
L 2227 2725 
L 947 2725 
z
" transform="scale(0.015625)"/>
       <path id="CMR17-63" d="M 2234 2240 
C 2112 2240 1933 2240 1933 2017 
C 1933 1838 2080 1787 2163 1787 
C 2208 1787 2394 1807 2394 2024 
C 2394 2467 1958 2803 1466 2803 
C 787 2803 211 2178 211 1363 
C 211 516 813 -64 1466 -64 
C 2259 -64 2458 677 2458 748 
C 2458 774 2451 793 2406 793 
C 2362 793 2355 787 2330 703 
C 2163 180 1798 51 1523 51 
C 1114 51 621 427 621 1369 
C 621 2338 1094 2688 1472 2688 
C 1722 2688 2093 2573 2234 2240 
z
" transform="scale(0.015625)"/>
       <path id="CMR17-2f" d="M 2605 4545 
C 2637 4627 2637 4640 2637 4653 
C 2637 4729 2579 4768 2528 4768 
C 2451 4768 2426 4717 2400 4640 
L 326 -1377 
C 294 -1460 294 -1473 294 -1486 
C 294 -1562 352 -1600 403 -1600 
C 480 -1600 506 -1549 531 -1473 
L 2605 4545 
z
" transform="scale(0.015625)"/>
       <path id="CMMI12-6b" d="M 1798 4257 
C 1805 4283 1818 4321 1818 4352 
C 1818 4416 1754 4416 1741 4416 
C 1734 4416 1504 4393 1389 4377 
C 1280 4377 1184 4358 1069 4358 
C 915 4345 870 4339 870 4224 
C 870 4160 934 4160 998 4160 
C 1325 4160 1325 4103 1325 4040 
C 1325 4015 1325 4002 1293 3888 
L 378 248 
C 352 152 352 140 352 101 
C 352 -38 461 -64 525 -64 
C 704 -64 742 77 794 275 
L 1094 1469 
C 1555 1418 1830 1226 1830 920 
C 1830 881 1830 856 1811 760 
C 1786 664 1786 588 1786 556 
C 1786 185 2029 -64 2355 -64 
C 2650 -64 2803 204 2854 294 
C 2989 530 3072 888 3072 913 
C 3072 945 3046 971 3008 971 
C 2950 971 2944 945 2918 843 
C 2829 511 2694 64 2368 64 
C 2240 64 2157 128 2157 370 
C 2157 492 2182 632 2208 728 
C 2234 843 2234 849 2234 926 
C 2234 1303 1894 1514 1306 1590 
C 1536 1731 1766 1980 1856 2076 
C 2221 2484 2470 2689 2765 2689 
C 2912 2689 2950 2650 2995 2612 
C 2758 2586 2669 2420 2669 2293 
C 2669 2139 2790 2088 2880 2088 
C 3053 2088 3206 2235 3206 2440 
C 3206 2625 3059 2816 2771 2816 
C 2419 2816 2131 2567 1677 2056 
C 1613 1980 1376 1737 1139 1648 
L 1798 4257 
z
" transform="scale(0.015625)"/>
       <path id="CMMI12-42" d="M 2342 3921 
C 2400 4160 2426 4160 2675 4160 
L 3507 4160 
C 4230 4160 4230 3544 4230 3485 
C 4230 2966 3712 2304 2867 2304 
L 1946 2304 
L 2342 3921 
z
M 3424 2275 
C 4122 2402 4755 2886 4755 3473 
C 4755 3970 4314 4352 3590 4352 
L 1536 4352 
C 1414 4352 1357 4352 1357 4226 
C 1357 4160 1414 4160 1510 4160 
C 1901 4160 1901 4112 1901 4044 
C 1901 4032 1901 3993 1875 3897 
L 1011 472 
C 954 249 941 185 493 185 
C 371 185 307 185 307 70 
C 307 0 346 0 474 0 
L 2669 0 
C 3648 0 4403 739 4403 1383 
C 4403 1906 3942 2224 3424 2275 
z
M 2515 185 
L 1651 185 
C 1562 185 1549 185 1510 192 
C 1440 198 1434 211 1434 261 
C 1434 305 1446 343 1459 399 
L 1907 2176 
L 3110 2176 
C 3866 2176 3866 1483 3866 1433 
C 3866 828 3309 185 2515 185 
z
" transform="scale(0.015625)"/>
       <path id="CMMI12-54" d="M 2669 3910 
C 2707 4064 2720 4121 2816 4147 
C 2867 4160 3078 4160 3213 4160 
C 3853 4160 4154 4134 4154 3634 
C 4154 3537 4128 3295 4090 3057 
L 4083 2980 
C 4083 2954 4109 2916 4147 2916 
C 4211 2916 4211 2948 4230 3050 
L 4416 4184 
C 4429 4243 4429 4256 4429 4275 
C 4429 4345 4390 4345 4262 4345 
L 762 4345 
C 614 4345 608 4339 570 4224 
L 179 3070 
C 173 3056 154 2986 154 2980 
C 154 2948 179 2916 218 2916 
C 269 2916 282 2941 307 3024 
C 576 3801 710 4160 1562 4160 
L 1990 4160 
C 2144 4160 2208 4160 2208 4089 
C 2208 4069 2208 4057 2176 3941 
L 1318 499 
C 1254 249 1242 185 563 185 
C 403 185 358 185 358 64 
C 358 0 429 0 461 0 
C 621 0 787 0 947 0 
L 1946 0 
C 2106 0 2278 0 2438 0 
C 2509 0 2573 0 2573 121 
C 2573 185 2528 185 2362 185 
C 1786 185 1786 243 1786 339 
C 1786 346 1786 391 1811 494 
L 2669 3910 
z
" transform="scale(0.015625)"/>
      </defs>
      <use xlink:href="#CMR17-50" transform="scale(0.996264)"/>
      <use xlink:href="#CMR17-6f" transform="translate(59.983847 0) scale(0.996264)"/>
      <use xlink:href="#CMR17-74" transform="translate(105.674324 0) scale(0.996264)"/>
      <use xlink:href="#CMR17-65" transform="translate(140.955092 0) scale(0.996264)"/>
      <use xlink:href="#CMR17-6e" transform="translate(181.440752 0) scale(0.996264)"/>
      <use xlink:href="#CMR17-74" transform="translate(229.733668 0) scale(0.996264)"/>
      <use xlink:href="#CMR17-69" transform="translate(265.014436 0) scale(0.996264)"/>
      <use xlink:href="#CMR17-61" transform="translate(289.885494 0) scale(0.996264)"/>
      <use xlink:href="#CMR17-6c" transform="translate(335.575971 0) scale(0.996264)"/>
      <use xlink:href="#CMR17-45" transform="translate(390.522996 0) scale(0.996264)"/>
      <use xlink:href="#CMR17-6e" transform="translate(453.109297 0) scale(0.996264)"/>
      <use xlink:href="#CMR17-65" transform="translate(504.004666 0) scale(0.996264)"/>
      <use xlink:href="#CMR17-72" transform="translate(544.490327 0) scale(0.996264)"/>
      <use xlink:href="#CMR17-67" transform="translate(579.771095 0) scale(0.996264)"/>
      <use xlink:href="#CMR17-79" transform="translate(625.461572 0) scale(0.996264)"/>
      <use xlink:href="#CMR17-44" transform="translate(703.830454 0) scale(0.996264)"/>
      <use xlink:href="#CMR17-69" transform="translate(774.22401 0) scale(0.996264)"/>
      <use xlink:href="#CMR17-b" transform="translate(799.095068 0) scale(0.996264)"/>
      <use xlink:href="#CMR17-65" transform="translate(851.439746 0) scale(0.996264)"/>
      <use xlink:href="#CMR17-72" transform="translate(891.925406 0) scale(0.996264)"/>
      <use xlink:href="#CMR17-65" transform="translate(927.206174 0) scale(0.996264)"/>
      <use xlink:href="#CMR17-6e" transform="translate(967.691834 0) scale(0.996264)"/>
      <use xlink:href="#CMR17-63" transform="translate(1018.587204 0) scale(0.996264)"/>
      <use xlink:href="#CMR17-65" transform="translate(1059.072865 0) scale(0.996264)"/>
      <use xlink:href="#CMR17-2f" transform="translate(1129.634491 0) scale(0.996264)"/>
      <use xlink:href="#CMMI12-6b" transform="translate(1205.400935 0) scale(0.996264)"/>
      <use xlink:href="#CMMI12-42" transform="translate(1256.136123 -14.943915) scale(0.697382)"/>
      <use xlink:href="#CMMI12-54" transform="translate(1312.028882 0) scale(0.996264)"/>
     </g>
    </g>
   </g>
   <g id="matplotlib.axis_2">
    <g id="ytick_1">
     <g id="line2d_7">
      <defs>
       <path id="m375e0830dd" d="M 0 0 
L -3.5 0 
" style="stroke: #000000; stroke-width: 0.8"/>
      </defs>
      <g>
       <use xlink:href="#m375e0830dd" x="40.892719" y="258.345309" style="stroke: #000000; stroke-width: 0.8"/>
      </g>
     </g>
     <g id="text_8">
      <!-- $\mathdefault{0.0}$ -->
      <g transform="translate(21.16264 261.804558) scale(0.1 -0.1)">
       <use xlink:href="#CMR17-30" transform="scale(0.996264)"/>
       <use xlink:href="#CMMI12-3a" transform="translate(45.690477 0) scale(0.996264)"/>
       <use xlink:href="#CMR17-30" transform="translate(72.787654 0) scale(0.996264)"/>
      </g>
     </g>
    </g>
    <g id="ytick_2">
     <g id="line2d_8">
      <g>
       <use xlink:href="#m375e0830dd" x="40.892719" y="222.087609" style="stroke: #000000; stroke-width: 0.8"/>
      </g>
     </g>
     <g id="text_9">
      <!-- $\mathdefault{0.5}$ -->
      <g transform="translate(21.16264 225.546858) scale(0.1 -0.1)">
       <defs>
        <path id="CMR17-35" d="M 730 3692 
C 794 3666 1056 3584 1325 3584 
C 1920 3584 2246 3911 2432 4100 
C 2432 4157 2432 4192 2394 4192 
C 2387 4192 2374 4192 2323 4163 
C 2099 4058 1837 3973 1517 3973 
C 1325 3973 1037 3999 723 4139 
C 653 4171 640 4171 634 4171 
C 602 4171 595 4164 595 4037 
L 595 2203 
C 595 2089 595 2057 659 2057 
C 691 2057 704 2070 736 2114 
C 941 2401 1222 2522 1542 2522 
C 1766 2522 2246 2382 2246 1289 
C 2246 1085 2246 715 2054 421 
C 1894 159 1645 25 1370 25 
C 947 25 518 320 403 814 
C 429 807 480 795 506 795 
C 589 795 749 840 749 1038 
C 749 1210 627 1280 506 1280 
C 358 1280 262 1190 262 1011 
C 262 454 704 -128 1382 -128 
C 2042 -128 2669 440 2669 1264 
C 2669 2030 2170 2624 1549 2624 
C 1222 2624 947 2503 730 2274 
L 730 3692 
z
" transform="scale(0.015625)"/>
       </defs>
       <use xlink:href="#CMR17-30" transform="scale(0.996264)"/>
       <use xlink:href="#CMMI12-3a" transform="translate(45.690477 0) scale(0.996264)"/>
       <use xlink:href="#CMR17-35" transform="translate(72.787654 0) scale(0.996264)"/>
      </g>
     </g>
    </g>
    <g id="ytick_3">
     <g id="line2d_9">
      <g>
       <use xlink:href="#m375e0830dd" x="40.892719" y="185.829908" style="stroke: #000000; stroke-width: 0.8"/>
      </g>
     </g>
     <g id="text_10">
      <!-- $\mathdefault{1.0}$ -->
      <g transform="translate(21.16264 189.289158) scale(0.1 -0.1)">
       <use xlink:href="#CMR17-31" transform="scale(0.996264)"/>
       <use xlink:href="#CMMI12-3a" transform="translate(45.690477 0) scale(0.996264)"/>
       <use xlink:href="#CMR17-30" transform="translate(72.787654 0) scale(0.996264)"/>
      </g>
     </g>
    </g>
    <g id="ytick_4">
     <g id="line2d_10">
      <g>
       <use xlink:href="#m375e0830dd" x="40.892719" y="149.572208" style="stroke: #000000; stroke-width: 0.8"/>
      </g>
     </g>
     <g id="text_11">
      <!-- $\mathdefault{1.5}$ -->
      <g transform="translate(21.16264 153.031457) scale(0.1 -0.1)">
       <use xlink:href="#CMR17-31" transform="scale(0.996264)"/>
       <use xlink:href="#CMMI12-3a" transform="translate(45.690477 0) scale(0.996264)"/>
       <use xlink:href="#CMR17-35" transform="translate(72.787654 0) scale(0.996264)"/>
      </g>
     </g>
    </g>
    <g id="ytick_5">
     <g id="line2d_11">
      <g>
       <use xlink:href="#m375e0830dd" x="40.892719" y="113.314508" style="stroke: #000000; stroke-width: 0.8"/>
      </g>
     </g>
     <g id="text_12">
      <!-- $\mathdefault{2.0}$ -->
      <g transform="translate(21.16264 116.773757) scale(0.1 -0.1)">
       <use xlink:href="#CMR17-32" transform="scale(0.996264)"/>
       <use xlink:href="#CMMI12-3a" transform="translate(45.690477 0) scale(0.996264)"/>
       <use xlink:href="#CMR17-30" transform="translate(72.787654 0) scale(0.996264)"/>
      </g>
     </g>
    </g>
    <g id="ytick_6">
     <g id="line2d_12">
      <g>
       <use xlink:href="#m375e0830dd" x="40.892719" y="77.056808" style="stroke: #000000; stroke-width: 0.8"/>
      </g>
     </g>
     <g id="text_13">
      <!-- $\mathdefault{2.5}$ -->
      <g transform="translate(21.16264 80.516057) scale(0.1 -0.1)">
       <use xlink:href="#CMR17-32" transform="scale(0.996264)"/>
       <use xlink:href="#CMMI12-3a" transform="translate(45.690477 0) scale(0.996264)"/>
       <use xlink:href="#CMR17-35" transform="translate(72.787654 0) scale(0.996264)"/>
      </g>
     </g>
    </g>
    <g id="ytick_7">
     <g id="line2d_13">
      <g>
       <use xlink:href="#m375e0830dd" x="40.892719" y="40.799107" style="stroke: #000000; stroke-width: 0.8"/>
      </g>
     </g>
     <g id="text_14">
      <!-- $\mathdefault{3.0}$ -->
      <g transform="translate(21.16264 44.258357) scale(0.1 -0.1)">
       <defs>
        <path id="CMR17-33" d="M 1414 2157 
C 1984 2157 2234 1662 2234 1090 
C 2234 320 1824 25 1453 25 
C 1114 25 563 194 390 693 
C 422 680 454 680 486 680 
C 640 680 755 782 755 948 
C 755 1133 614 1216 486 1216 
C 378 1216 211 1165 211 926 
C 211 335 787 -128 1466 -128 
C 2176 -128 2720 430 2720 1085 
C 2720 1707 2208 2157 1600 2227 
C 2086 2328 2554 2756 2554 3329 
C 2554 3820 2048 4179 1472 4179 
C 890 4179 378 3829 378 3329 
C 378 3110 544 3072 627 3072 
C 762 3072 877 3155 877 3321 
C 877 3486 762 3569 627 3569 
C 602 3569 570 3569 544 3557 
C 730 3959 1235 4032 1459 4032 
C 1683 4032 2106 3925 2106 3320 
C 2106 3143 2080 2828 1862 2550 
C 1670 2304 1453 2304 1242 2284 
C 1210 2284 1062 2269 1037 2269 
C 992 2263 966 2257 966 2208 
C 966 2163 973 2157 1101 2157 
L 1414 2157 
z
" transform="scale(0.015625)"/>
       </defs>
       <use xlink:href="#CMR17-33" transform="scale(0.996264)"/>
       <use xlink:href="#CMMI12-3a" transform="translate(45.690477 0) scale(0.996264)"/>
       <use xlink:href="#CMR17-30" transform="translate(72.787654 0) scale(0.996264)"/>
      </g>
     </g>
    </g>
    <g id="text_15">
     <!-- $\Delta F$ / $k_BT$ -->
     <g transform="translate(14.67198 168.590672) rotate(-90) scale(0.1 -0.1)">
      <defs>
       <path id="CMR17-1" d="M 2598 4403 
C 2547 4512 2522 4512 2470 4512 
C 2394 4512 2387 4499 2342 4409 
L 269 109 
C 262 96 237 38 237 32 
C 237 6 243 0 358 0 
L 4576 0 
C 4691 0 4698 6 4698 32 
C 4698 38 4672 96 4666 109 
L 2598 4403 
z
M 2310 4038 
L 4083 358 
L 531 358 
L 2310 4038 
z
" transform="scale(0.015625)"/>
       <path id="CMMI12-46" d="M 1901 2055 
L 2515 2055 
C 3002 2055 3040 1946 3040 1761 
C 3040 1678 3027 1589 2995 1448 
C 2982 1423 2976 1391 2976 1378 
C 2976 1333 3002 1308 3046 1308 
C 3098 1308 3104 1333 3130 1435 
L 3501 2935 
C 3501 2961 3482 2999 3437 2999 
C 3379 2999 3373 2974 3347 2863 
C 3213 2376 3085 2240 2528 2240 
L 1946 2240 
L 2362 3926 
C 2419 4154 2432 4154 2694 4154 
L 3552 4154 
C 4352 4154 4467 3918 4467 3464 
C 4467 3426 4467 3285 4448 3119 
C 4442 3094 4429 3011 4429 2985 
C 4429 2934 4461 2915 4499 2915 
C 4544 2915 4570 2941 4582 3055 
L 4717 4174 
C 4717 4195 4730 4263 4730 4277 
C 4730 4352 4672 4352 4557 4352 
L 1523 4352 
C 1402 4352 1338 4352 1338 4229 
C 1338 4154 1382 4154 1491 4154 
C 1888 4154 1888 4113 1888 4050 
C 1888 4018 1882 3992 1862 3922 
L 998 473 
C 941 249 928 185 480 185 
C 358 185 294 185 294 70 
C 294 0 352 0 390 0 
C 512 0 640 0 762 0 
L 1594 0 
C 1734 0 1888 0 2029 0 
C 2086 0 2163 0 2163 115 
C 2163 185 2125 185 1984 185 
C 1478 185 1466 229 1466 324 
C 1466 356 1478 406 1491 449 
L 1901 2055 
z
" transform="scale(0.015625)"/>
      </defs>
      <use xlink:href="#CMR17-1" transform="scale(0.996264)"/>
      <use xlink:href="#CMMI12-46" transform="translate(76.91959 0) scale(0.996264)"/>
      <use xlink:href="#CMR17-2f" transform="translate(183.692349 0) scale(0.996264)"/>
      <use xlink:href="#CMMI12-6b" transform="translate(259.458792 0) scale(0.996264)"/>
      <use xlink:href="#CMMI12-42" transform="translate(310.193981 -14.943915) scale(0.697382)"/>
      <use xlink:href="#CMMI12-54" transform="translate(366.086739 0) scale(0.996264)"/>
     </g>
    </g>
   </g>
   <g id="line2d_14">
    <path d="M 61.183628 258.345309 
L 65.282802 256.147873 
L 69.381975 253.950436 
L 73.481149 251.753 
L 77.580322 249.555563 
L 81.679496 247.358127 
L 85.778669 245.160691 
L 89.877843 242.963254 
L 93.977017 240.765818 
L 98.07619 238.568382 
L 102.175364 236.370945 
L 106.274537 234.173509 
L 110.373711 231.976072 
L 114.472884 229.778636 
L 118.572058 227.5812 
L 122.671231 225.383763 
L 126.770405 223.186327 
L 130.869579 220.988891 
L 134.968752 218.791454 
L 139.067926 216.594018 
L 143.167099 214.396581 
L 147.266273 212.199145 
L 151.365446 210.001709 
L 155.46462 207.804272 
L 159.563793 205.606836 
L 163.662967 203.409399 
L 167.762141 201.211963 
L 171.861314 199.014527 
L 175.960488 196.81709 
L 180.059661 194.619654 
L 184.158835 192.422218 
L 188.258008 190.224781 
L 192.357182 188.027345 
L 196.456355 185.829908 
L 200.555529 183.632472 
L 204.654703 181.435036 
L 208.753876 179.237599 
L 212.85305 177.040163 
L 216.952223 174.842727 
L 221.051397 172.64529 
L 225.15057 170.447854 
L 229.249744 168.250417 
L 233.348917 166.052981 
L 237.448091 163.855545 
L 241.547265 161.658108 
L 245.646438 159.460672 
L 249.745612 157.263235 
L 253.844785 155.065799 
L 257.943959 152.868363 
L 262.043132 150.670926 
L 266.142306 148.47349 
L 270.241479 146.276054 
L 274.340653 144.078617 
L 278.439827 141.881181 
L 282.539 139.683744 
L 286.638174 137.486308 
L 290.737347 135.288872 
L 294.836521 133.091435 
L 298.935694 130.893999 
L 303.034868 128.696563 
L 307.134041 126.499126 
L 311.233215 124.30169 
L 315.332388 122.104253 
L 319.431562 119.906817 
L 323.530736 117.709381 
L 327.629909 115.511944 
L 331.729083 113.314508 
L 335.828256 111.117072 
L 339.92743 108.919635 
L 344.026603 106.722199 
L 348.125777 104.524762 
L 352.22495 102.327326 
L 356.324124 100.12989 
L 360.423298 97.932453 
L 364.522471 95.735017 
L 368.621645 93.53758 
L 372.720818 91.340144 
L 376.819992 89.142708 
L 380.919165 86.945271 
L 385.018339 84.747835 
L 389.117512 82.550399 
L 393.216686 80.352962 
L 397.31586 78.155526 
L 401.415033 75.958089 
L 405.514207 73.760653 
L 409.61338 71.563217 
L 413.712554 69.36578 
L 417.811727 67.168344 
L 421.910901 64.970908 
L 426.010074 62.773471 
L 430.109248 60.576035 
L 434.208422 58.378598 
L 438.307595 56.181162 
L 442.406769 53.983726 
L 446.505942 51.786289 
L 450.605116 49.588853 
L 454.704289 47.391416 
L 458.803463 45.19398 
L 462.902636 42.996544 
L 467.00181 40.799107 
" clip-path="url(#p377acec193)" style="fill: none; stroke-dasharray: 5.55,2.4; stroke-dashoffset: 0; stroke: #232323; stroke-opacity: 0.8; stroke-width: 1.5"/>
   </g>
   <g id="line2d_15">
    <path d="M 61.183628 258.345309 
L 65.282802 257.61283 
L 69.381975 256.880351 
L 73.481149 256.147873 
L 77.580322 255.415394 
L 81.679496 254.682915 
L 85.778669 253.950436 
L 89.877843 253.217957 
L 93.977017 252.485479 
L 98.07619 251.753 
L 102.175364 251.020521 
L 106.274537 250.288042 
L 110.373711 249.555563 
L 114.472884 248.823085 
L 118.572058 248.090606 
L 122.671231 247.358127 
L 126.770405 246.625648 
L 130.869579 245.89317 
L 134.968752 245.160691 
L 139.067926 244.428212 
L 143.167099 243.695733 
L 147.266273 242.963254 
L 151.365446 242.230776 
L 155.46462 241.498297 
L 159.563793 240.765818 
L 163.662967 240.033339 
L 167.762141 239.30086 
L 171.861314 238.568382 
L 175.960488 237.835903 
L 180.059661 237.103424 
L 184.158835 236.370945 
L 188.258008 235.638466 
L 192.357182 234.905988 
L 196.456355 234.173509 
L 200.555529 233.44103 
L 204.654703 232.708551 
L 208.753876 231.976072 
L 212.85305 231.243594 
L 216.952223 230.511115 
L 221.051397 229.778636 
L 225.15057 229.046157 
L 229.249744 228.313678 
L 233.348917 227.5812 
L 237.448091 226.848721 
L 241.547265 226.116242 
L 245.646438 225.383763 
L 249.745612 224.651285 
L 253.844785 223.918806 
L 257.943959 223.186327 
L 262.043132 222.453848 
L 266.142306 221.721369 
L 270.241479 220.988891 
L 274.340653 220.256412 
L 278.439827 219.523933 
L 282.539 218.791454 
L 286.638174 218.058975 
L 290.737347 217.326497 
L 294.836521 216.594018 
L 298.935694 215.861539 
L 303.034868 215.12906 
L 307.134041 214.396581 
L 311.233215 213.664103 
L 315.332388 212.931624 
L 319.431562 212.199145 
L 323.530736 211.466666 
L 327.629909 210.734187 
L 331.729083 210.001709 
L 335.828256 209.26923 
L 339.92743 208.536751 
L 344.026603 207.804272 
L 348.125777 207.071793 
L 352.22495 206.339315 
L 356.324124 205.606836 
L 360.423298 204.874357 
L 364.522471 204.141878 
L 368.621645 203.409399 
L 372.720818 202.676921 
L 376.819992 201.944442 
L 380.919165 201.211963 
L 385.018339 200.479484 
L 389.117512 199.747006 
L 393.216686 199.014527 
L 397.31586 198.282048 
L 401.415033 197.549569 
L 405.514207 196.81709 
L 409.61338 196.084612 
L 413.712554 195.352133 
L 417.811727 194.619654 
L 421.910901 193.887175 
L 426.010074 193.154696 
L 430.109248 192.422218 
L 434.208422 191.689739 
L 438.307595 190.95726 
L 442.406769 190.224781 
L 446.505942 189.492302 
L 450.605116 188.759824 
L 454.704289 188.027345 
L 458.803463 187.294866 
L 462.902636 186.562387 
L 467.00181 185.829908 
" clip-path="url(#p377acec193)" style="fill: none; stroke-dasharray: 5.55,2.4; stroke-dashoffset: 0; stroke: #232323; stroke-opacity: 0.8; stroke-width: 1.5"/>
   </g>
   <g id="LineCollection_1">
    <path d="M 61.183628 271.8 
L 61.183628 256.084994 
" clip-path="url(#p377acec193)" style="fill: none; stroke: #008080; stroke-opacity: 0.8; stroke-width: 1.5"/>
    <path d="M 162.638174 205.017352 
L 162.638174 186.464141 
" clip-path="url(#p377acec193)" style="fill: none; stroke: #008080; stroke-opacity: 0.8; stroke-width: 1.5"/>
    <path d="M 264.092719 162.976649 
L 264.092719 152.541663 
" clip-path="url(#p377acec193)" style="fill: none; stroke: #008080; stroke-opacity: 0.8; stroke-width: 1.5"/>
    <path d="M 467.00181 38.255783 
L 467.00181 19.8 
" clip-path="url(#p377acec193)" style="fill: none; stroke: #008080; stroke-opacity: 0.8; stroke-width: 1.5"/>
   </g>
   <g id="line2d_16">
    <defs>
     <path id="md20d4dd202" d="M 3.5 0 
L -3.5 -0 
" style="stroke: #008080; stroke-opacity: 0.8"/>
    </defs>
    <g clip-path="url(#p377acec193)">
     <use xlink:href="#md20d4dd202" x="61.183628" y="271.8" style="fill: #008080; fill-opacity: 0.8; stroke: #008080; stroke-opacity: 0.8"/>
     <use xlink:href="#md20d4dd202" x="162.638174" y="205.017352" style="fill: #008080; fill-opacity: 0.8; stroke: #008080; stroke-opacity: 0.8"/>
     <use xlink:href="#md20d4dd202" x="264.092719" y="162.976649" style="fill: #008080; fill-opacity: 0.8; stroke: #008080; stroke-opacity: 0.8"/>
     <use xlink:href="#md20d4dd202" x="467.00181" y="38.255783" style="fill: #008080; fill-opacity: 0.8; stroke: #008080; stroke-opacity: 0.8"/>
    </g>
   </g>
   <g id="line2d_17">
    <g clip-path="url(#p377acec193)">
     <use xlink:href="#md20d4dd202" x="61.183628" y="256.084994" style="fill: #008080; fill-opacity: 0.8; stroke: #008080; stroke-opacity: 0.8"/>
     <use xlink:href="#md20d4dd202" x="162.638174" y="186.464141" style="fill: #008080; fill-opacity: 0.8; stroke: #008080; stroke-opacity: 0.8"/>
     <use xlink:href="#md20d4dd202" x="264.092719" y="152.541663" style="fill: #008080; fill-opacity: 0.8; stroke: #008080; stroke-opacity: 0.8"/>
     <use xlink:href="#md20d4dd202" x="467.00181" y="19.8" style="fill: #008080; fill-opacity: 0.8; stroke: #008080; stroke-opacity: 0.8"/>
    </g>
   </g>
   <g id="LineCollection_2">
    <path d="M 61.183628 263.125682 
L 61.183628 254.546263 
" clip-path="url(#p377acec193)" style="fill: none; stroke: #008080; stroke-opacity: 0.8; stroke-width: 1.5"/>
    <path d="M 162.638174 246.472061 
L 162.638174 234.0866 
" clip-path="url(#p377acec193)" style="fill: none; stroke: #008080; stroke-opacity: 0.8; stroke-width: 1.5"/>
    <path d="M 264.092719 224.650938 
L 264.092719 214.803377 
" clip-path="url(#p377acec193)" style="fill: none; stroke: #008080; stroke-opacity: 0.8; stroke-width: 1.5"/>
    <path d="M 467.00181 190.519366 
L 467.00181 171.050888 
" clip-path="url(#p377acec193)" style="fill: none; stroke: #008080; stroke-opacity: 0.8; stroke-width: 1.5"/>
   </g>
   <g id="line2d_18">
    <g clip-path="url(#p377acec193)">
     <use xlink:href="#md20d4dd202" x="61.183628" y="263.125682" style="fill: #008080; fill-opacity: 0.8; stroke: #008080; stroke-opacity: 0.8"/>
     <use xlink:href="#md20d4dd202" x="162.638174" y="246.472061" style="fill: #008080; fill-opacity: 0.8; stroke: #008080; stroke-opacity: 0.8"/>
     <use xlink:href="#md20d4dd202" x="264.092719" y="224.650938" style="fill: #008080; fill-opacity: 0.8; stroke: #008080; stroke-opacity: 0.8"/>
     <use xlink:href="#md20d4dd202" x="467.00181" y="190.519366" style="fill: #008080; fill-opacity: 0.8; stroke: #008080; stroke-opacity: 0.8"/>
    </g>
   </g>
   <g id="line2d_19">
    <g clip-path="url(#p377acec193)">
     <use xlink:href="#md20d4dd202" x="61.183628" y="254.546263" style="fill: #008080; fill-opacity: 0.8; stroke: #008080; stroke-opacity: 0.8"/>
     <use xlink:href="#md20d4dd202" x="162.638174" y="234.0866" style="fill: #008080; fill-opacity: 0.8; stroke: #008080; stroke-opacity: 0.8"/>
     <use xlink:href="#md20d4dd202" x="264.092719" y="214.803377" style="fill: #008080; fill-opacity: 0.8; stroke: #008080; stroke-opacity: 0.8"/>
     <use xlink:href="#md20d4dd202" x="467.00181" y="171.050888" style="fill: #008080; fill-opacity: 0.8; stroke: #008080; stroke-opacity: 0.8"/>
    </g>
   </g>
   <g id="LineCollection_3">
    <path d="M 61.183628 267.006233 
L 61.183628 258.547564 
" clip-path="url(#p377acec193)" style="fill: none; stroke: #c71585; stroke-opacity: 0.8; stroke-width: 1.5"/>
    <path d="M 162.638174 209.922732 
L 162.638174 202.465878 
" clip-path="url(#p377acec193)" style="fill: none; stroke: #c71585; stroke-opacity: 0.8; stroke-width: 1.5"/>
    <path d="M 264.092719 148.744035 
L 264.092719 139.985915 
" clip-path="url(#p377acec193)" style="fill: none; stroke: #c71585; stroke-opacity: 0.8; stroke-width: 1.5"/>
    <path d="M 467.00181 39.446887 
L 467.00181 26.163747 
" clip-path="url(#p377acec193)" style="fill: none; stroke: #c71585; stroke-opacity: 0.8; stroke-width: 1.5"/>
   </g>
   <g id="line2d_20">
    <defs>
     <path id="mc9d3490716" d="M 3.5 0 
L -3.5 -0 
" style="stroke: #c71585; stroke-opacity: 0.8"/>
    </defs>
    <g clip-path="url(#p377acec193)">
     <use xlink:href="#mc9d3490716" x="61.183628" y="267.006233" style="fill: #c71585; fill-opacity: 0.8; stroke: #c71585; stroke-opacity: 0.8"/>
     <use xlink:href="#mc9d3490716" x="162.638174" y="209.922732" style="fill: #c71585; fill-opacity: 0.8; stroke: #c71585; stroke-opacity: 0.8"/>
     <use xlink:href="#mc9d3490716" x="264.092719" y="148.744035" style="fill: #c71585; fill-opacity: 0.8; stroke: #c71585; stroke-opacity: 0.8"/>
     <use xlink:href="#mc9d3490716" x="467.00181" y="39.446887" style="fill: #c71585; fill-opacity: 0.8; stroke: #c71585; stroke-opacity: 0.8"/>
    </g>
   </g>
   <g id="line2d_21">
    <g clip-path="url(#p377acec193)">
     <use xlink:href="#mc9d3490716" x="61.183628" y="258.547564" style="fill: #c71585; fill-opacity: 0.8; stroke: #c71585; stroke-opacity: 0.8"/>
     <use xlink:href="#mc9d3490716" x="162.638174" y="202.465878" style="fill: #c71585; fill-opacity: 0.8; stroke: #c71585; stroke-opacity: 0.8"/>
     <use xlink:href="#mc9d3490716" x="264.092719" y="139.985915" style="fill: #c71585; fill-opacity: 0.8; stroke: #c71585; stroke-opacity: 0.8"/>
     <use xlink:href="#mc9d3490716" x="467.00181" y="26.163747" style="fill: #c71585; fill-opacity: 0.8; stroke: #c71585; stroke-opacity: 0.8"/>
    </g>
   </g>
   <g id="LineCollection_4">
    <path d="M 61.183628 260.756035 
L 61.183628 258.237178 
" clip-path="url(#p377acec193)" style="fill: none; stroke: #c71585; stroke-opacity: 0.8; stroke-width: 1.5"/>
    <path d="M 162.638174 240.185225 
L 162.638174 237.961251 
" clip-path="url(#p377acec193)" style="fill: none; stroke: #c71585; stroke-opacity: 0.8; stroke-width: 1.5"/>
    <path d="M 264.092719 221.260217 
L 264.092719 219.262367 
" clip-path="url(#p377acec193)" style="fill: none; stroke: #c71585; stroke-opacity: 0.8; stroke-width: 1.5"/>
    <path d="M 467.00181 184.532771 
L 467.00181 181.507031 
" clip-path="url(#p377acec193)" style="fill: none; stroke: #c71585; stroke-opacity: 0.8; stroke-width: 1.5"/>
   </g>
   <g id="line2d_22">
    <g clip-path="url(#p377acec193)">
     <use xlink:href="#mc9d3490716" x="61.183628" y="260.756035" style="fill: #c71585; fill-opacity: 0.8; stroke: #c71585; stroke-opacity: 0.8"/>
     <use xlink:href="#mc9d3490716" x="162.638174" y="240.185225" style="fill: #c71585; fill-opacity: 0.8; stroke: #c71585; stroke-opacity: 0.8"/>
     <use xlink:href="#mc9d3490716" x="264.092719" y="221.260217" style="fill: #c71585; fill-opacity: 0.8; stroke: #c71585; stroke-opacity: 0.8"/>
     <use xlink:href="#mc9d3490716" x="467.00181" y="184.532771" style="fill: #c71585; fill-opacity: 0.8; stroke: #c71585; stroke-opacity: 0.8"/>
    </g>
   </g>
   <g id="line2d_23">
    <g clip-path="url(#p377acec193)">
     <use xlink:href="#mc9d3490716" x="61.183628" y="258.237178" style="fill: #c71585; fill-opacity: 0.8; stroke: #c71585; stroke-opacity: 0.8"/>
     <use xlink:href="#mc9d3490716" x="162.638174" y="237.961251" style="fill: #c71585; fill-opacity: 0.8; stroke: #c71585; stroke-opacity: 0.8"/>
     <use xlink:href="#mc9d3490716" x="264.092719" y="219.262367" style="fill: #c71585; fill-opacity: 0.8; stroke: #c71585; stroke-opacity: 0.8"/>
     <use xlink:href="#mc9d3490716" x="467.00181" y="181.507031" style="fill: #c71585; fill-opacity: 0.8; stroke: #c71585; stroke-opacity: 0.8"/>
    </g>
   </g>
   <g id="line2d_24">
    <defs>
     <path id="ma7c012a18a" d="M 0 3 
C 0.795609 3 1.55874 2.683901 2.12132 2.12132 
C 2.683901 1.55874 3 0.795609 3 0 
C 3 -0.795609 2.683901 -1.55874 2.12132 -2.12132 
C 1.55874 -2.683901 0.795609 -3 0 -3 
C -0.795609 -3 -1.55874 -2.683901 -2.12132 -2.12132 
C -2.683901 -1.55874 -3 -0.795609 -3 0 
C -3 0.795609 -2.683901 1.55874 -2.12132 2.12132 
C -1.55874 2.683901 -0.795609 3 0 3 
z
" style="stroke: #008080; stroke-opacity: 0.8"/>
    </defs>
    <g clip-path="url(#p377acec193)">
     <use xlink:href="#ma7c012a18a" x="61.183628" y="263.942497" style="fill: #008080; fill-opacity: 0.8; stroke: #008080; stroke-opacity: 0.8"/>
     <use xlink:href="#ma7c012a18a" x="162.638174" y="195.740747" style="fill: #008080; fill-opacity: 0.8; stroke: #008080; stroke-opacity: 0.8"/>
     <use xlink:href="#ma7c012a18a" x="264.092719" y="157.759156" style="fill: #008080; fill-opacity: 0.8; stroke: #008080; stroke-opacity: 0.8"/>
     <use xlink:href="#ma7c012a18a" x="467.00181" y="29.027892" style="fill: #008080; fill-opacity: 0.8; stroke: #008080; stroke-opacity: 0.8"/>
    </g>
   </g>
   <g id="line2d_25">
    <defs>
     <path id="ma45ed9ee45" d="M -3 3 
L 3 3 
L 3 -3 
L -3 -3 
z
" style="stroke: #008080; stroke-opacity: 0.8; stroke-linejoin: miter"/>
    </defs>
    <g clip-path="url(#p377acec193)">
     <use xlink:href="#ma45ed9ee45" x="61.183628" y="258.835973" style="fill: #008080; fill-opacity: 0.8; stroke: #008080; stroke-opacity: 0.8; stroke-linejoin: miter"/>
     <use xlink:href="#ma45ed9ee45" x="162.638174" y="240.27933" style="fill: #008080; fill-opacity: 0.8; stroke: #008080; stroke-opacity: 0.8; stroke-linejoin: miter"/>
     <use xlink:href="#ma45ed9ee45" x="264.092719" y="219.727157" style="fill: #008080; fill-opacity: 0.8; stroke: #008080; stroke-opacity: 0.8; stroke-linejoin: miter"/>
     <use xlink:href="#ma45ed9ee45" x="467.00181" y="180.785127" style="fill: #008080; fill-opacity: 0.8; stroke: #008080; stroke-opacity: 0.8; stroke-linejoin: miter"/>
    </g>
   </g>
   <g id="line2d_26">
    <defs>
     <path id="m05a4f04578" d="M 0 3 
C 0.795609 3 1.55874 2.683901 2.12132 2.12132 
C 2.683901 1.55874 3 0.795609 3 0 
C 3 -0.795609 2.683901 -1.55874 2.12132 -2.12132 
C 1.55874 -2.683901 0.795609 -3 0 -3 
C -0.795609 -3 -1.55874 -2.683901 -2.12132 -2.12132 
C -2.683901 -1.55874 -3 -0.795609 -3 0 
C -3 0.795609 -2.683901 1.55874 -2.12132 2.12132 
C -1.55874 2.683901 -0.795609 3 0 3 
z
" style="stroke: #c71585; stroke-opacity: 0.8"/>
    </defs>
    <g clip-path="url(#p377acec193)">
     <use xlink:href="#m05a4f04578" x="61.183628" y="262.776899" style="fill: #c71585; fill-opacity: 0.8; stroke: #c71585; stroke-opacity: 0.8"/>
     <use xlink:href="#m05a4f04578" x="162.638174" y="206.194305" style="fill: #c71585; fill-opacity: 0.8; stroke: #c71585; stroke-opacity: 0.8"/>
     <use xlink:href="#m05a4f04578" x="264.092719" y="144.364975" style="fill: #c71585; fill-opacity: 0.8; stroke: #c71585; stroke-opacity: 0.8"/>
     <use xlink:href="#m05a4f04578" x="467.00181" y="32.805317" style="fill: #c71585; fill-opacity: 0.8; stroke: #c71585; stroke-opacity: 0.8"/>
    </g>
   </g>
   <g id="line2d_27">
    <defs>
     <path id="mdca2713798" d="M -3 3 
L 3 3 
L 3 -3 
L -3 -3 
z
" style="stroke: #c71585; stroke-opacity: 0.8; stroke-linejoin: miter"/>
    </defs>
    <g clip-path="url(#p377acec193)">
     <use xlink:href="#mdca2713798" x="61.183628" y="259.496607" style="fill: #c71585; fill-opacity: 0.8; stroke: #c71585; stroke-opacity: 0.8; stroke-linejoin: miter"/>
     <use xlink:href="#mdca2713798" x="162.638174" y="239.073238" style="fill: #c71585; fill-opacity: 0.8; stroke: #c71585; stroke-opacity: 0.8; stroke-linejoin: miter"/>
     <use xlink:href="#mdca2713798" x="264.092719" y="220.261292" style="fill: #c71585; fill-opacity: 0.8; stroke: #c71585; stroke-opacity: 0.8; stroke-linejoin: miter"/>
     <use xlink:href="#mdca2713798" x="467.00181" y="183.019901" style="fill: #c71585; fill-opacity: 0.8; stroke: #c71585; stroke-opacity: 0.8; stroke-linejoin: miter"/>
    </g>
   </g>
   <g id="patch_3">
    <path d="M 40.892719 284.4 
L 40.892719 7.2 
" style="fill: none; stroke: #000000; stroke-width: 0.8; stroke-linejoin: miter; stroke-linecap: square"/>
   </g>
   <g id="patch_4">
    <path d="M 487.292719 284.4 
L 487.292719 7.2 
" style="fill: none; stroke: #000000; stroke-width: 0.8; stroke-linejoin: miter; stroke-linecap: square"/>
   </g>
   <g id="patch_5">
    <path d="M 40.892719 284.4 
L 487.292719 284.4 
" style="fill: none; stroke: #000000; stroke-width: 0.8; stroke-linejoin: miter; stroke-linecap: square"/>
   </g>
   <g id="patch_6">
    <path d="M 40.892719 7.2 
L 487.292719 7.2 
" style="fill: none; stroke: #000000; stroke-width: 0.8; stroke-linejoin: miter; stroke-linecap: square"/>
   </g>
   <g id="legend_1">
    <g id="patch_7">
     <path d="M 47.892719 88.987739 
L 208.660146 88.987739 
Q 210.660146 88.987739 210.660146 86.987739 
L 210.660146 14.2 
Q 210.660146 12.2 208.660146 12.2 
L 47.892719 12.2 
Q 45.892719 12.2 45.892719 14.2 
L 45.892719 86.987739 
Q 45.892719 88.987739 47.892719 88.987739 
z
" style="fill: #ffffff; opacity: 0.8; stroke: #cccccc; stroke-linejoin: miter"/>
    </g>
    <g id="line2d_28">
     <path d="M 49.892719 19.7 
L 59.892719 19.7 
L 69.892719 19.7 
" style="fill: none; stroke-dasharray: 5.55,2.4; stroke-dashoffset: 0; stroke: #232323; stroke-opacity: 0.8; stroke-width: 1.5"/>
    </g>
    <g id="text_16">
     <!-- Theoretical -->
     <g transform="translate(77.892719 23.2) scale(0.1 -0.1)">
      <defs>
       <path id="CMR17-54" d="M 3981 4326 
L 288 4326 
L 179 2918 
L 294 2918 
C 378 3976 467 4160 1453 4160 
C 1568 4160 1754 4160 1805 4154 
C 1926 4135 1926 4058 1926 3912 
L 1926 459 
C 1926 230 1907 160 1376 160 
L 1197 160 
L 1197 0 
C 1504 0 1824 0 2138 0 
C 2451 0 2771 0 3078 0 
L 3078 160 
L 2899 160 
C 2368 160 2349 230 2349 459 
L 2349 3912 
C 2349 4052 2349 4129 2464 4154 
C 2515 4160 2701 4160 2816 4160 
C 3795 4160 3891 3976 3974 2918 
L 4090 2918 
L 3981 4326 
z
" transform="scale(0.015625)"/>
       <path id="CMR17-68" d="M 2656 1933 
C 2656 2259 2592 2790 1837 2790 
C 1312 2790 1056 2368 979 2157 
L 973 2157 
L 973 4396 
L 211 4326 
L 211 4160 
C 589 4160 646 4122 646 3817 
L 646 426 
C 646 184 621 153 211 153 
L 211 -13 
C 365 0 646 0 813 0 
C 979 0 1267 0 1421 -13 
L 1421 153 
C 1011 153 986 178 986 428 
L 986 1658 
C 986 2247 1344 2688 1792 2688 
C 2266 2688 2317 2266 2317 1958 
L 2317 428 
C 2317 184 2291 153 1882 153 
L 1882 -13 
C 2035 0 2317 0 2483 0 
C 2650 0 2938 0 3091 -13 
L 3091 153 
C 2682 153 2656 178 2656 428 
L 2656 1933 
z
" transform="scale(0.015625)"/>
      </defs>
      <use xlink:href="#CMR17-54" transform="scale(0.996264)"/>
      <use xlink:href="#CMR17-68" transform="translate(66.509881 0) scale(0.996264)"/>
      <use xlink:href="#CMR17-65" transform="translate(117.40525 0) scale(0.996264)"/>
      <use xlink:href="#CMR17-6f" transform="translate(157.890911 0) scale(0.996264)"/>
      <use xlink:href="#CMR17-72" transform="translate(203.581388 0) scale(0.996264)"/>
      <use xlink:href="#CMR17-65" transform="translate(238.862156 0) scale(0.996264)"/>
      <use xlink:href="#CMR17-74" transform="translate(279.347816 0) scale(0.996264)"/>
      <use xlink:href="#CMR17-69" transform="translate(314.628584 0) scale(0.996264)"/>
      <use xlink:href="#CMR17-63" transform="translate(339.499642 0) scale(0.996264)"/>
      <use xlink:href="#CMR17-61" transform="translate(379.985303 0) scale(0.996264)"/>
      <use xlink:href="#CMR17-6c" transform="translate(425.67578 0) scale(0.996264)"/>
     </g>
    </g>
    <g id="LineCollection_5">
     <path d="M 59.892719 39.109158 
L 59.892719 29.109158 
" style="fill: none; stroke: #008080; stroke-opacity: 0.8; stroke-width: 1.5"/>
    </g>
    <g id="line2d_29">
     <g>
      <use xlink:href="#md20d4dd202" x="59.892719" y="39.109158" style="fill: #008080; fill-opacity: 0.8; stroke: #008080; stroke-opacity: 0.8"/>
     </g>
    </g>
    <g id="line2d_30">
     <g>
      <use xlink:href="#md20d4dd202" x="59.892719" y="29.109158" style="fill: #008080; fill-opacity: 0.8; stroke: #008080; stroke-opacity: 0.8"/>
     </g>
    </g>
    <g id="line2d_31"/>
    <g id="line2d_32">
     <g>
      <use xlink:href="#ma7c012a18a" x="59.892719" y="34.109158" style="fill: #008080; fill-opacity: 0.8; stroke: #008080; stroke-opacity: 0.8"/>
     </g>
    </g>
    <g id="text_17">
     <!-- Algorithm 1 (3A vs 3B) -->
     <g transform="translate(77.892719 37.609158) scale(0.1 -0.1)">
      <defs>
       <path id="CMR17-41" d="M 2323 4378 
C 2291 4461 2278 4480 2214 4480 
C 2150 4480 2138 4461 2106 4378 
L 749 566 
C 627 223 371 153 147 153 
L 147 -13 
C 262 0 518 0 640 0 
C 800 0 1056 0 1210 -13 
L 1210 153 
C 909 153 864 361 864 439 
C 864 497 877 530 890 569 
L 1229 1536 
L 2906 1536 
L 3290 442 
C 3322 365 3322 352 3322 327 
C 3322 153 3046 153 2925 153 
L 2925 0 
C 3110 0 3443 0 3642 0 
C 3808 0 4128 0 4282 -13 
L 4282 153 
C 3942 153 3827 153 3744 387 
L 2323 4378 
z
M 2067 3893 
L 2848 1702 
L 1286 1702 
L 2067 3893 
z
" transform="scale(0.015625)"/>
       <path id="CMR17-6d" d="M 4326 1933 
C 4326 2252 4269 2790 3507 2790 
C 3072 2790 2771 2496 2656 2151 
L 2650 2151 
C 2573 2676 2195 2790 1837 2790 
C 1331 2790 1069 2400 973 2144 
L 966 2144 
L 966 2790 
L 211 2720 
L 211 2554 
C 589 2554 646 2515 646 2208 
L 646 428 
C 646 184 621 153 211 153 
L 211 -13 
C 365 0 646 0 813 0 
C 979 0 1267 0 1421 -13 
L 1421 153 
C 1011 153 986 178 986 428 
L 986 1658 
C 986 2247 1344 2688 1792 2688 
C 2266 2688 2317 2266 2317 1958 
L 2317 428 
C 2317 184 2291 153 1882 153 
L 1882 -13 
C 2035 0 2317 0 2483 0 
C 2650 0 2938 0 3091 -13 
L 3091 153 
C 2682 153 2656 178 2656 428 
L 2656 1658 
C 2656 2247 3014 2688 3462 2688 
C 3936 2688 3987 2266 3987 1958 
L 3987 428 
C 3987 184 3962 153 3552 153 
L 3552 -13 
C 3706 0 3987 0 4154 0 
C 4320 0 4608 0 4762 -13 
L 4762 153 
C 4352 153 4326 178 4326 428 
L 4326 1933 
z
" transform="scale(0.015625)"/>
       <path id="CMR17-28" d="M 1958 -1561 
C 1958 -1555 1958 -1542 1939 -1523 
C 1645 -1224 858 -407 858 1581 
C 858 3569 1632 4379 1946 4697 
C 1946 4704 1958 4717 1958 4736 
C 1958 4755 1939 4768 1914 4768 
C 1843 4768 1299 4296 986 3594 
C 666 2887 576 2199 576 1588 
C 576 1128 621 351 1005 -471 
C 1312 -1135 1837 -1600 1914 -1600 
C 1946 -1600 1958 -1587 1958 -1561 
z
" transform="scale(0.015625)"/>
       <path id="CMR17-76" d="M 2502 2163 
C 2560 2304 2662 2560 3034 2560 
L 3034 2726 
C 2912 2726 2752 2726 2630 2726 
C 2496 2726 2285 2726 2157 2732 
L 2157 2566 
C 2317 2553 2406 2477 2406 2311 
C 2406 2253 2406 2240 2368 2151 
L 1664 377 
L 902 2286 
C 864 2369 864 2381 864 2407 
C 864 2560 1075 2560 1171 2560 
L 1171 2732 
C 1018 2726 736 2726 576 2726 
C 403 2726 205 2726 64 2732 
L 64 2560 
C 307 2560 442 2560 518 2362 
L 1446 44 
C 1485 -51 1491 -64 1549 -64 
C 1606 -64 1613 -51 1651 44 
L 2502 2163 
z
" transform="scale(0.015625)"/>
       <path id="CMR17-73" d="M 1978 2697 
C 1978 2813 1971 2819 1933 2819 
C 1907 2819 1901 2813 1824 2717 
C 1805 2691 1747 2626 1728 2601 
C 1523 2819 1235 2819 1126 2819 
C 416 2819 160 2447 160 2076 
C 160 1498 813 1365 998 1325 
C 1402 1243 1542 1217 1677 1101 
C 1760 1025 1901 884 1901 654 
C 1901 384 1747 38 1158 38 
C 602 38 403 460 288 1021 
C 269 1110 269 1117 218 1117 
C 166 1117 160 1110 160 983 
L 160 63 
C 160 -51 166 -58 205 -58 
C 237 -58 243 -51 275 0 
C 314 57 410 211 448 276 
C 576 103 800 -64 1158 -64 
C 1792 -64 2131 283 2131 784 
C 2131 1112 1958 1285 1875 1362 
C 1683 1561 1459 1606 1190 1657 
C 838 1735 390 1825 390 2217 
C 390 2383 480 2737 1126 2737 
C 1811 2737 1850 2094 1862 1888 
C 1869 1856 1901 1849 1920 1849 
C 1978 1849 1978 1869 1978 1978 
L 1978 2697 
z
" transform="scale(0.015625)"/>
       <path id="CMR17-42" d="M 333 4352 
L 333 4186 
C 774 4186 845 4186 845 3900 
L 845 452 
C 845 166 774 166 333 166 
L 333 0 
L 2534 0 
C 3354 0 3885 583 3885 1164 
C 3885 1741 3360 2233 2675 2233 
C 3290 2356 3718 2771 3718 3264 
C 3718 3802 3194 4352 2368 4352 
L 333 4352 
z
M 1248 2304 
L 1248 3937 
C 1248 4155 1261 4186 1517 4186 
L 2336 4186 
C 2970 4186 3251 3674 3251 3277 
C 3251 2791 2861 2304 2170 2304 
L 1248 2304 
z
M 1517 166 
C 1261 166 1248 197 1248 413 
L 1248 2202 
L 2432 2202 
C 3091 2202 3411 1625 3411 1162 
C 3411 699 3046 166 2349 166 
L 1517 166 
z
" transform="scale(0.015625)"/>
       <path id="CMR17-29" d="M 1683 1581 
C 1683 2040 1638 2817 1254 3639 
C 947 4303 422 4768 346 4768 
C 326 4768 301 4761 301 4729 
C 301 4717 307 4710 314 4697 
C 621 4378 1402 3568 1402 1584 
C 1402 -407 627 -1217 314 -1537 
C 307 -1549 301 -1556 301 -1568 
C 301 -1600 326 -1600 346 -1600 
C 416 -1600 960 -1128 1274 -426 
C 1594 281 1683 969 1683 1581 
z
" transform="scale(0.015625)"/>
      </defs>
      <use xlink:href="#CMR17-41" transform="scale(0.996264)"/>
      <use xlink:href="#CMR17-6c" transform="translate(69.07243 0) scale(0.996264)"/>
      <use xlink:href="#CMR17-67" transform="translate(93.943488 0) scale(0.996264)"/>
      <use xlink:href="#CMR17-6f" transform="translate(139.633965 0) scale(0.996264)"/>
      <use xlink:href="#CMR17-72" transform="translate(185.324443 0) scale(0.996264)"/>
      <use xlink:href="#CMR17-69" transform="translate(220.60521 0) scale(0.996264)"/>
      <use xlink:href="#CMR17-74" transform="translate(245.476269 0) scale(0.996264)"/>
      <use xlink:href="#CMR17-68" transform="translate(280.757037 0) scale(0.996264)"/>
      <use xlink:href="#CMR17-6d" transform="translate(331.652406 0) scale(0.996264)"/>
      <use xlink:href="#CMR17-31" transform="translate(438.647963 0) scale(0.996264)"/>
      <use xlink:href="#CMR17-28" transform="translate(514.414406 0) scale(0.996264)"/>
      <use xlink:href="#CMR17-33" transform="translate(549.695174 0) scale(0.996264)"/>
      <use xlink:href="#CMR17-41" transform="translate(595.385651 0) scale(0.996264)"/>
      <use xlink:href="#CMR17-76" transform="translate(694.534047 0) scale(0.996264)"/>
      <use xlink:href="#CMR17-73" transform="translate(742.826963 0) scale(0.996264)"/>
      <use xlink:href="#CMR17-33" transform="translate(808.704267 0) scale(0.996264)"/>
      <use xlink:href="#CMR17-42" transform="translate(854.394744 0) scale(0.996264)"/>
      <use xlink:href="#CMR17-29" transform="translate(919.583499 0) scale(0.996264)"/>
     </g>
    </g>
    <g id="LineCollection_6">
     <path d="M 59.892719 54.071799 
L 59.892719 44.071799 
" style="fill: none; stroke: #008080; stroke-opacity: 0.8; stroke-width: 1.5"/>
    </g>
    <g id="line2d_33">
     <g>
      <use xlink:href="#md20d4dd202" x="59.892719" y="54.071799" style="fill: #008080; fill-opacity: 0.8; stroke: #008080; stroke-opacity: 0.8"/>
     </g>
    </g>
    <g id="line2d_34">
     <g>
      <use xlink:href="#md20d4dd202" x="59.892719" y="44.071799" style="fill: #008080; fill-opacity: 0.8; stroke: #008080; stroke-opacity: 0.8"/>
     </g>
    </g>
    <g id="line2d_35"/>
    <g id="line2d_36">
     <g>
      <use xlink:href="#ma45ed9ee45" x="59.892719" y="49.071799" style="fill: #008080; fill-opacity: 0.8; stroke: #008080; stroke-opacity: 0.8; stroke-linejoin: miter"/>
     </g>
    </g>
    <g id="text_18">
     <!-- Algorithm 1 (2A1B vs 1A2B) -->
     <g transform="translate(77.892719 52.571799) scale(0.1 -0.1)">
      <use xlink:href="#CMR17-41" transform="scale(0.996264)"/>
      <use xlink:href="#CMR17-6c" transform="translate(69.07243 0) scale(0.996264)"/>
      <use xlink:href="#CMR17-67" transform="translate(93.943488 0) scale(0.996264)"/>
      <use xlink:href="#CMR17-6f" transform="translate(139.633965 0) scale(0.996264)"/>
      <use xlink:href="#CMR17-72" transform="translate(185.324443 0) scale(0.996264)"/>
      <use xlink:href="#CMR17-69" transform="translate(220.60521 0) scale(0.996264)"/>
      <use xlink:href="#CMR17-74" transform="translate(245.476269 0) scale(0.996264)"/>
      <use xlink:href="#CMR17-68" transform="translate(280.757037 0) scale(0.996264)"/>
      <use xlink:href="#CMR17-6d" transform="translate(331.652406 0) scale(0.996264)"/>
      <use xlink:href="#CMR17-31" transform="translate(438.647963 0) scale(0.996264)"/>
      <use xlink:href="#CMR17-28" transform="translate(514.414406 0) scale(0.996264)"/>
      <use xlink:href="#CMR17-32" transform="translate(549.695174 0) scale(0.996264)"/>
      <use xlink:href="#CMR17-41" transform="translate(595.385651 0) scale(0.996264)"/>
      <use xlink:href="#CMR17-31" transform="translate(664.458081 0) scale(0.996264)"/>
      <use xlink:href="#CMR17-42" transform="translate(710.148558 0) scale(0.996264)"/>
      <use xlink:href="#CMR17-76" transform="translate(805.413279 0) scale(0.996264)"/>
      <use xlink:href="#CMR17-73" transform="translate(853.706195 0) scale(0.996264)"/>
      <use xlink:href="#CMR17-31" transform="translate(919.583499 0) scale(0.996264)"/>
      <use xlink:href="#CMR17-41" transform="translate(965.273976 0) scale(0.996264)"/>
      <use xlink:href="#CMR17-32" transform="translate(1034.346405 0) scale(0.996264)"/>
      <use xlink:href="#CMR17-42" transform="translate(1080.036883 0) scale(0.996264)"/>
      <use xlink:href="#CMR17-29" transform="translate(1145.225637 0) scale(0.996264)"/>
     </g>
    </g>
    <g id="LineCollection_7">
     <path d="M 59.892719 69.034439 
L 59.892719 59.034439 
" style="fill: none; stroke: #c71585; stroke-opacity: 0.8; stroke-width: 1.5"/>
    </g>
    <g id="line2d_37">
     <g>
      <use xlink:href="#mc9d3490716" x="59.892719" y="69.034439" style="fill: #c71585; fill-opacity: 0.8; stroke: #c71585; stroke-opacity: 0.8"/>
     </g>
    </g>
    <g id="line2d_38">
     <g>
      <use xlink:href="#mc9d3490716" x="59.892719" y="59.034439" style="fill: #c71585; fill-opacity: 0.8; stroke: #c71585; stroke-opacity: 0.8"/>
     </g>
    </g>
    <g id="line2d_39"/>
    <g id="line2d_40">
     <g>
      <use xlink:href="#m05a4f04578" x="59.892719" y="64.034439" style="fill: #c71585; fill-opacity: 0.8; stroke: #c71585; stroke-opacity: 0.8"/>
     </g>
    </g>
    <g id="text_19">
     <!-- Algorithm 2 (3A vs 3B) -->
     <g transform="translate(77.892719 67.534439) scale(0.1 -0.1)">
      <use xlink:href="#CMR17-41" transform="scale(0.996264)"/>
      <use xlink:href="#CMR17-6c" transform="translate(69.07243 0) scale(0.996264)"/>
      <use xlink:href="#CMR17-67" transform="translate(93.943488 0) scale(0.996264)"/>
      <use xlink:href="#CMR17-6f" transform="translate(139.633965 0) scale(0.996264)"/>
      <use xlink:href="#CMR17-72" transform="translate(185.324443 0) scale(0.996264)"/>
      <use xlink:href="#CMR17-69" transform="translate(220.60521 0) scale(0.996264)"/>
      <use xlink:href="#CMR17-74" transform="translate(245.476269 0) scale(0.996264)"/>
      <use xlink:href="#CMR17-68" transform="translate(280.757037 0) scale(0.996264)"/>
      <use xlink:href="#CMR17-6d" transform="translate(331.652406 0) scale(0.996264)"/>
      <use xlink:href="#CMR17-32" transform="translate(438.647963 0) scale(0.996264)"/>
      <use xlink:href="#CMR17-28" transform="translate(514.414406 0) scale(0.996264)"/>
      <use xlink:href="#CMR17-33" transform="translate(549.695174 0) scale(0.996264)"/>
      <use xlink:href="#CMR17-41" transform="translate(595.385651 0) scale(0.996264)"/>
      <use xlink:href="#CMR17-76" transform="translate(694.534047 0) scale(0.996264)"/>
      <use xlink:href="#CMR17-73" transform="translate(742.826963 0) scale(0.996264)"/>
      <use xlink:href="#CMR17-33" transform="translate(808.704267 0) scale(0.996264)"/>
      <use xlink:href="#CMR17-42" transform="translate(854.394744 0) scale(0.996264)"/>
      <use xlink:href="#CMR17-29" transform="translate(919.583499 0) scale(0.996264)"/>
     </g>
    </g>
    <g id="LineCollection_8">
     <path d="M 59.892719 83.997079 
L 59.892719 73.997079 
" style="fill: none; stroke: #c71585; stroke-opacity: 0.8; stroke-width: 1.5"/>
    </g>
    <g id="line2d_41">
     <g>
      <use xlink:href="#mc9d3490716" x="59.892719" y="83.997079" style="fill: #c71585; fill-opacity: 0.8; stroke: #c71585; stroke-opacity: 0.8"/>
     </g>
    </g>
    <g id="line2d_42">
     <g>
      <use xlink:href="#mc9d3490716" x="59.892719" y="73.997079" style="fill: #c71585; fill-opacity: 0.8; stroke: #c71585; stroke-opacity: 0.8"/>
     </g>
    </g>
    <g id="line2d_43"/>
    <g id="line2d_44">
     <g>
      <use xlink:href="#mdca2713798" x="59.892719" y="78.997079" style="fill: #c71585; fill-opacity: 0.8; stroke: #c71585; stroke-opacity: 0.8; stroke-linejoin: miter"/>
     </g>
    </g>
    <g id="text_20">
     <!-- Algorithm 2 (2A1B vs 1A2B) -->
     <g transform="translate(77.892719 82.497079) scale(0.1 -0.1)">
      <use xlink:href="#CMR17-41" transform="scale(0.996264)"/>
      <use xlink:href="#CMR17-6c" transform="translate(69.07243 0) scale(0.996264)"/>
      <use xlink:href="#CMR17-67" transform="translate(93.943488 0) scale(0.996264)"/>
      <use xlink:href="#CMR17-6f" transform="translate(139.633965 0) scale(0.996264)"/>
      <use xlink:href="#CMR17-72" transform="translate(185.324443 0) scale(0.996264)"/>
      <use xlink:href="#CMR17-69" transform="translate(220.60521 0) scale(0.996264)"/>
      <use xlink:href="#CMR17-74" transform="translate(245.476269 0) scale(0.996264)"/>
      <use xlink:href="#CMR17-68" transform="translate(280.757037 0) scale(0.996264)"/>
      <use xlink:href="#CMR17-6d" transform="translate(331.652406 0) scale(0.996264)"/>
      <use xlink:href="#CMR17-32" transform="translate(438.647963 0) scale(0.996264)"/>
      <use xlink:href="#CMR17-28" transform="translate(514.414406 0) scale(0.996264)"/>
      <use xlink:href="#CMR17-32" transform="translate(549.695174 0) scale(0.996264)"/>
      <use xlink:href="#CMR17-41" transform="translate(595.385651 0) scale(0.996264)"/>
      <use xlink:href="#CMR17-31" transform="translate(664.458081 0) scale(0.996264)"/>
      <use xlink:href="#CMR17-42" transform="translate(710.148558 0) scale(0.996264)"/>
      <use xlink:href="#CMR17-76" transform="translate(805.413279 0) scale(0.996264)"/>
      <use xlink:href="#CMR17-73" transform="translate(853.706195 0) scale(0.996264)"/>
      <use xlink:href="#CMR17-31" transform="translate(919.583499 0) scale(0.996264)"/>
      <use xlink:href="#CMR17-41" transform="translate(965.273976 0) scale(0.996264)"/>
      <use xlink:href="#CMR17-32" transform="translate(1034.346405 0) scale(0.996264)"/>
      <use xlink:href="#CMR17-42" transform="translate(1080.036883 0) scale(0.996264)"/>
      <use xlink:href="#CMR17-29" transform="translate(1145.225637 0) scale(0.996264)"/>
     </g>
    </g>
   </g>
  </g>
 </g>
 <defs>
  <clipPath id="p377acec193">
   <rect x="40.892719" y="7.2" width="446.4" height="277.2"/>
  </clipPath>
 </defs>
</svg>
