<?xml version="1.0" encoding="utf-8" standalone="no"?>
<!DOCTYPE svg PUBLIC "-//W3C//DTD SVG 1.1//EN"
  "http://www.w3.org/Graphics/SVG/1.1/DTD/svg11.dtd">
<svg xmlns:xlink="http://www.w3.org/1999/xlink" width="486.743975pt" height="321.418317pt" viewBox="0 0 486.743975 321.418317" xmlns="http://www.w3.org/2000/svg" version="1.1">
 <metadata>
  <rdf:RDF xmlns:dc="http://purl.org/dc/elements/1.1/" xmlns:cc="http://creativecommons.org/ns#" xmlns:rdf="http://www.w3.org/1999/02/22-rdf-syntax-ns#">
   <cc:Work>
    <dc:type rdf:resource="http://purl.org/dc/dcmitype/StillImage"/>
    <dc:date>2025-04-17T10:00:04.498420</dc:date>
    <dc:format>image/svg+xml</dc:format>
    <dc:creator>
     <cc:Agent>
      <dc:title>Matplotlib v3.7.0, https://matplotlib.org/</dc:title>
     </cc:Agent>
    </dc:creator>
   </cc:Work>
  </rdf:RDF>
 </metadata>
 <defs>
  <style type="text/css">*{stroke-linejoin: round; stroke-linecap: butt}</style>
 </defs>
 <g id="figure_1">
  <g id="patch_1">
   <path d="M 0 321.418317 
L 486.743975 321.418317 
L 486.743975 0 
L 0 0 
z
" style="fill: #ffffff"/>
  </g>
  <g id="axes_1">
   <g id="patch_2">
    <path d="M 33.143975 284.4 
L 479.543975 284.4 
L 479.543975 7.2 
L 33.143975 7.2 
z
" style="fill: #ffffff"/>
   </g>
   <g id="matplotlib.axis_1">
    <g id="xtick_1">
     <g id="line2d_1">
      <defs>
       <path id="m0ee720ba31" d="M 0 0 
L 0 3.5 
" style="stroke: #000000; stroke-width: 0.8"/>
      </defs>
      <g>
       <use xlink:href="#m0ee720ba31" x="53.434884" y="284.4" style="stroke: #000000; stroke-width: 0.8"/>
      </g>
     </g>
     <g id="text_1">
      <!-- $\mathdefault{0}$ -->
      <g transform="translate(50.944217 298.318498) scale(0.1 -0.1)">
       <defs>
        <path id="CMR17-30" d="M 2688 2025 
C 2688 2416 2682 3080 2413 3591 
C 2176 4039 1798 4198 1466 4198 
C 1158 4198 768 4058 525 3597 
C 269 3118 243 2524 243 2025 
C 243 1661 250 1106 448 619 
C 723 -39 1216 -128 1466 -128 
C 1760 -128 2208 -7 2470 600 
C 2662 1042 2688 1559 2688 2025 
z
M 1466 -26 
C 1056 -26 813 325 723 812 
C 653 1188 653 1738 653 2096 
C 653 2588 653 2997 736 3387 
C 858 3929 1216 4096 1466 4096 
C 1728 4096 2067 3923 2189 3400 
C 2272 3036 2278 2607 2278 2096 
C 2278 1680 2278 1169 2202 792 
C 2067 95 1690 -26 1466 -26 
z
" transform="scale(0.015625)"/>
       </defs>
       <use xlink:href="#CMR17-30" transform="scale(0.996264)"/>
      </g>
     </g>
    </g>
    <g id="xtick_2">
     <g id="line2d_2">
      <g>
       <use xlink:href="#m0ee720ba31" x="134.761173" y="284.4" style="stroke: #000000; stroke-width: 0.8"/>
      </g>
     </g>
     <g id="text_2">
      <!-- $\mathdefault{1}$ -->
      <g transform="translate(132.270506 298.318498) scale(0.1 -0.1)">
       <defs>
        <path id="CMR17-31" d="M 1702 4058 
C 1702 4192 1696 4192 1606 4192 
C 1357 3916 979 3827 621 3827 
C 602 3827 570 3827 563 3808 
C 557 3795 557 3782 557 3648 
C 755 3648 1088 3686 1344 3839 
L 1344 461 
C 1344 236 1331 160 781 160 
L 589 160 
L 589 0 
C 896 0 1216 0 1523 0 
C 1830 0 2150 0 2458 0 
L 2458 160 
L 2266 160 
C 1715 160 1702 230 1702 458 
L 1702 4058 
z
" transform="scale(0.015625)"/>
       </defs>
       <use xlink:href="#CMR17-31" transform="scale(0.996264)"/>
      </g>
     </g>
    </g>
    <g id="xtick_3">
     <g id="line2d_3">
      <g>
       <use xlink:href="#m0ee720ba31" x="216.087462" y="284.4" style="stroke: #000000; stroke-width: 0.8"/>
      </g>
     </g>
     <g id="text_3">
      <!-- $\mathdefault{2}$ -->
      <g transform="translate(213.596795 298.318498) scale(0.1 -0.1)">
       <defs>
        <path id="CMR17-32" d="M 2669 989 
L 2554 989 
C 2490 536 2438 459 2413 420 
C 2381 369 1920 369 1830 369 
L 602 369 
C 832 619 1280 1072 1824 1597 
C 2214 1967 2669 2402 2669 3035 
C 2669 3790 2067 4224 1395 4224 
C 691 4224 262 3604 262 3030 
C 262 2780 448 2748 525 2748 
C 589 2748 781 2787 781 3010 
C 781 3207 614 3264 525 3264 
C 486 3264 448 3258 422 3245 
C 544 3790 915 4058 1306 4058 
C 1862 4058 2227 3617 2227 3035 
C 2227 2479 1901 2000 1536 1584 
L 262 146 
L 262 0 
L 2515 0 
L 2669 989 
z
" transform="scale(0.015625)"/>
       </defs>
       <use xlink:href="#CMR17-32" transform="scale(0.996264)"/>
      </g>
     </g>
    </g>
    <g id="xtick_4">
     <g id="line2d_4">
      <g>
       <use xlink:href="#m0ee720ba31" x="297.413751" y="284.4" style="stroke: #000000; stroke-width: 0.8"/>
      </g>
     </g>
     <g id="text_4">
      <!-- $\mathdefault{3}$ -->
      <g transform="translate(294.923084 298.318498) scale(0.1 -0.1)">
       <defs>
        <path id="CMR17-33" d="M 1414 2157 
C 1984 2157 2234 1662 2234 1090 
C 2234 320 1824 25 1453 25 
C 1114 25 563 194 390 693 
C 422 680 454 680 486 680 
C 640 680 755 782 755 948 
C 755 1133 614 1216 486 1216 
C 378 1216 211 1165 211 926 
C 211 335 787 -128 1466 -128 
C 2176 -128 2720 430 2720 1085 
C 2720 1707 2208 2157 1600 2227 
C 2086 2328 2554 2756 2554 3329 
C 2554 3820 2048 4179 1472 4179 
C 890 4179 378 3829 378 3329 
C 378 3110 544 3072 627 3072 
C 762 3072 877 3155 877 3321 
C 877 3486 762 3569 627 3569 
C 602 3569 570 3569 544 3557 
C 730 3959 1235 4032 1459 4032 
C 1683 4032 2106 3925 2106 3320 
C 2106 3143 2080 2828 1862 2550 
C 1670 2304 1453 2304 1242 2284 
C 1210 2284 1062 2269 1037 2269 
C 992 2263 966 2257 966 2208 
C 966 2163 973 2157 1101 2157 
L 1414 2157 
z
" transform="scale(0.015625)"/>
       </defs>
       <use xlink:href="#CMR17-33" transform="scale(0.996264)"/>
      </g>
     </g>
    </g>
    <g id="xtick_5">
     <g id="line2d_5">
      <g>
       <use xlink:href="#m0ee720ba31" x="378.74004" y="284.4" style="stroke: #000000; stroke-width: 0.8"/>
      </g>
     </g>
     <g id="text_5">
      <!-- $\mathdefault{4}$ -->
      <g transform="translate(376.249373 298.318498) scale(0.1 -0.1)">
       <defs>
        <path id="CMR17-34" d="M 2150 4122 
C 2150 4256 2144 4256 2029 4256 
L 128 1254 
L 128 1088 
L 1779 1088 
L 1779 457 
C 1779 224 1766 160 1318 160 
L 1197 160 
L 1197 0 
C 1402 0 1747 0 1965 0 
C 2182 0 2528 0 2733 0 
L 2733 160 
L 2611 160 
C 2163 160 2150 224 2150 457 
L 2150 1088 
L 2803 1088 
L 2803 1254 
L 2150 1254 
L 2150 4122 
z
M 1798 3703 
L 1798 1254 
L 256 1254 
L 1798 3703 
z
" transform="scale(0.015625)"/>
       </defs>
       <use xlink:href="#CMR17-34" transform="scale(0.996264)"/>
      </g>
     </g>
    </g>
    <g id="xtick_6">
     <g id="line2d_6">
      <g>
       <use xlink:href="#m0ee720ba31" x="460.066329" y="284.4" style="stroke: #000000; stroke-width: 0.8"/>
      </g>
     </g>
     <g id="text_6">
      <!-- $\mathdefault{5}$ -->
      <g transform="translate(457.575662 298.318498) scale(0.1 -0.1)">
       <defs>
        <path id="CMR17-35" d="M 730 3692 
C 794 3666 1056 3584 1325 3584 
C 1920 3584 2246 3911 2432 4100 
C 2432 4157 2432 4192 2394 4192 
C 2387 4192 2374 4192 2323 4163 
C 2099 4058 1837 3973 1517 3973 
C 1325 3973 1037 3999 723 4139 
C 653 4171 640 4171 634 4171 
C 602 4171 595 4164 595 4037 
L 595 2203 
C 595 2089 595 2057 659 2057 
C 691 2057 704 2070 736 2114 
C 941 2401 1222 2522 1542 2522 
C 1766 2522 2246 2382 2246 1289 
C 2246 1085 2246 715 2054 421 
C 1894 159 1645 25 1370 25 
C 947 25 518 320 403 814 
C 429 807 480 795 506 795 
C 589 795 749 840 749 1038 
C 749 1210 627 1280 506 1280 
C 358 1280 262 1190 262 1011 
C 262 454 704 -128 1382 -128 
C 2042 -128 2669 440 2669 1264 
C 2669 2030 2170 2624 1549 2624 
C 1222 2624 947 2503 730 2274 
L 730 3692 
z
" transform="scale(0.015625)"/>
       </defs>
       <use xlink:href="#CMR17-35" transform="scale(0.996264)"/>
      </g>
     </g>
    </g>
    <g id="text_7">
     <!-- $r$ / $\sigma$ -->
     <g transform="translate(245.300306 311.727657) scale(0.1 -0.1)">
      <defs>
       <path id="CMMI12-72" d="M 2490 2612 
C 2291 2574 2189 2433 2189 2293 
C 2189 2139 2310 2088 2400 2088 
C 2579 2088 2726 2242 2726 2433 
C 2726 2638 2528 2816 2208 2816 
C 1952 2816 1658 2701 1389 2312 
C 1344 2650 1088 2816 832 2816 
C 582 2816 454 2625 378 2484 
C 269 2254 173 1871 173 1839 
C 173 1814 198 1782 243 1782 
C 294 1782 301 1788 339 1935 
C 435 2318 557 2689 813 2689 
C 966 2689 1011 2580 1011 2395 
C 1011 2254 947 2005 902 1807 
L 723 1118 
C 698 996 627 709 595 594 
C 550 428 480 128 480 96 
C 480 6 550 -64 646 -64 
C 717 -64 838 -19 877 109 
C 896 160 1133 1124 1171 1271 
C 1203 1411 1242 1546 1274 1686 
C 1299 1775 1325 1878 1344 1961 
C 1363 2018 1536 2331 1696 2472 
C 1773 2542 1939 2689 2202 2689 
C 2304 2689 2406 2670 2490 2612 
z
" transform="scale(0.015625)"/>
       <path id="CMR17-2f" d="M 2605 4545 
C 2637 4627 2637 4640 2637 4653 
C 2637 4729 2579 4768 2528 4768 
C 2451 4768 2426 4717 2400 4640 
L 326 -1377 
C 294 -1460 294 -1473 294 -1486 
C 294 -1562 352 -1600 403 -1600 
C 480 -1600 506 -1549 531 -1473 
L 2605 4545 
z
" transform="scale(0.015625)"/>
       <path id="CMMI12-1b" d="M 3251 2408 
C 3334 2408 3546 2408 3546 2612 
C 3546 2752 3424 2752 3309 2752 
L 1894 2752 
C 934 2752 243 1686 243 932 
C 243 390 595 -64 1171 -64 
C 1926 -64 2752 747 2752 1705 
C 2752 1954 2694 2196 2541 2408 
L 3251 2408 
z
M 1178 64 
C 851 64 614 313 614 754 
C 614 1137 845 2408 1786 2408 
C 2061 2408 2368 2274 2368 1781 
C 2368 1558 2266 1021 2042 652 
C 1811 275 1466 64 1178 64 
z
" transform="scale(0.015625)"/>
      </defs>
      <use xlink:href="#CMMI12-72" transform="scale(0.996264)"/>
      <use xlink:href="#CMR17-2f" transform="translate(76.746578 0) scale(0.996264)"/>
      <use xlink:href="#CMMI12-1b" transform="translate(152.513022 0) scale(0.996264)"/>
     </g>
    </g>
   </g>
   <g id="matplotlib.axis_2">
    <g id="ytick_1">
     <g id="line2d_7">
      <defs>
       <path id="m075b8258c4" d="M 0 0 
L -3.5 0 
" style="stroke: #000000; stroke-width: 0.8"/>
      </defs>
      <g>
       <use xlink:href="#m075b8258c4" x="33.143975" y="271.915817" style="stroke: #000000; stroke-width: 0.8"/>
      </g>
     </g>
     <g id="text_8">
      <!-- $\mathdefault{0}$ -->
      <g transform="translate(21.16264 275.375066) scale(0.1 -0.1)">
       <use xlink:href="#CMR17-30" transform="scale(0.996264)"/>
      </g>
     </g>
    </g>
    <g id="ytick_2">
     <g id="line2d_8">
      <g>
       <use xlink:href="#m075b8258c4" x="33.143975" y="229.590902" style="stroke: #000000; stroke-width: 0.8"/>
      </g>
     </g>
     <g id="text_9">
      <!-- $\mathdefault{1}$ -->
      <g transform="translate(21.16264 233.050151) scale(0.1 -0.1)">
       <use xlink:href="#CMR17-31" transform="scale(0.996264)"/>
      </g>
     </g>
    </g>
    <g id="ytick_3">
     <g id="line2d_9">
      <g>
       <use xlink:href="#m075b8258c4" x="33.143975" y="187.265987" style="stroke: #000000; stroke-width: 0.8"/>
      </g>
     </g>
     <g id="text_10">
      <!-- $\mathdefault{2}$ -->
      <g transform="translate(21.16264 190.725236) scale(0.1 -0.1)">
       <use xlink:href="#CMR17-32" transform="scale(0.996264)"/>
      </g>
     </g>
    </g>
    <g id="ytick_4">
     <g id="line2d_10">
      <g>
       <use xlink:href="#m075b8258c4" x="33.143975" y="144.941071" style="stroke: #000000; stroke-width: 0.8"/>
      </g>
     </g>
     <g id="text_11">
      <!-- $\mathdefault{3}$ -->
      <g transform="translate(21.16264 148.40032) scale(0.1 -0.1)">
       <use xlink:href="#CMR17-33" transform="scale(0.996264)"/>
      </g>
     </g>
    </g>
    <g id="ytick_5">
     <g id="line2d_11">
      <g>
       <use xlink:href="#m075b8258c4" x="33.143975" y="102.616156" style="stroke: #000000; stroke-width: 0.8"/>
      </g>
     </g>
     <g id="text_12">
      <!-- $\mathdefault{4}$ -->
      <g transform="translate(21.16264 106.075405) scale(0.1 -0.1)">
       <use xlink:href="#CMR17-34" transform="scale(0.996264)"/>
      </g>
     </g>
    </g>
    <g id="ytick_6">
     <g id="line2d_12">
      <g>
       <use xlink:href="#m075b8258c4" x="33.143975" y="60.291241" style="stroke: #000000; stroke-width: 0.8"/>
      </g>
     </g>
     <g id="text_13">
      <!-- $\mathdefault{5}$ -->
      <g transform="translate(21.16264 63.75049) scale(0.1 -0.1)">
       <use xlink:href="#CMR17-35" transform="scale(0.996264)"/>
      </g>
     </g>
    </g>
    <g id="ytick_7">
     <g id="line2d_13">
      <g>
       <use xlink:href="#m075b8258c4" x="33.143975" y="17.966325" style="stroke: #000000; stroke-width: 0.8"/>
      </g>
     </g>
     <g id="text_14">
      <!-- $\mathdefault{6}$ -->
      <g transform="translate(21.16264 21.425574) scale(0.1 -0.1)">
       <defs>
        <path id="CMR17-36" d="M 678 2176 
C 678 3690 1395 4032 1811 4032 
C 1946 4032 2272 4009 2400 3776 
C 2298 3776 2106 3776 2106 3553 
C 2106 3381 2246 3323 2336 3323 
C 2394 3323 2566 3348 2566 3560 
C 2566 3954 2246 4179 1805 4179 
C 1043 4179 243 3390 243 1984 
C 243 253 966 -128 1478 -128 
C 2099 -128 2688 427 2688 1283 
C 2688 2081 2170 2662 1517 2662 
C 1126 2662 838 2407 678 1960 
L 678 2176 
z
M 1478 25 
C 691 25 691 1200 691 1436 
C 691 1896 909 2560 1504 2560 
C 1613 2560 1926 2560 2138 2120 
C 2253 1870 2253 1609 2253 1289 
C 2253 944 2253 690 2118 434 
C 1978 171 1773 25 1478 25 
z
" transform="scale(0.015625)"/>
       </defs>
       <use xlink:href="#CMR17-36" transform="scale(0.996264)"/>
      </g>
     </g>
    </g>
    <g id="text_15">
     <!-- $g(r)$ -->
     <g transform="translate(14.67198 154.614761) rotate(-90) scale(0.1 -0.1)">
      <defs>
       <path id="CMMI12-67" d="M 2163 811 
C 2138 709 2125 683 2042 588 
C 1779 249 1510 128 1312 128 
C 1101 128 902 294 902 734 
C 902 1073 1094 1788 1235 2076 
C 1421 2433 1709 2689 1978 2689 
C 2400 2689 2483 2165 2483 2127 
L 2464 2037 
L 2163 811 
z
M 2560 2395 
C 2477 2580 2298 2816 1978 2816 
C 1280 2816 486 1941 486 990 
C 486 326 890 0 1299 0 
C 1638 0 1939 268 2054 396 
L 1914 -171 
C 1824 -516 1786 -674 1555 -894 
C 1293 -1152 1050 -1152 909 -1152 
C 717 -1152 557 -1139 397 -1089 
C 602 -1033 653 -858 653 -789 
C 653 -689 576 -588 435 -588 
C 282 -588 115 -714 115 -922 
C 115 -1180 378 -1280 922 -1280 
C 1747 -1280 2176 -753 2259 -410 
L 2970 2435 
C 2989 2511 2989 2524 2989 2536 
C 2989 2625 2918 2695 2822 2695 
C 2669 2695 2579 2567 2560 2395 
z
" transform="scale(0.015625)"/>
       <path id="CMR17-28" d="M 1958 -1561 
C 1958 -1555 1958 -1542 1939 -1523 
C 1645 -1224 858 -407 858 1581 
C 858 3569 1632 4379 1946 4697 
C 1946 4704 1958 4717 1958 4736 
C 1958 4755 1939 4768 1914 4768 
C 1843 4768 1299 4296 986 3594 
C 666 2887 576 2199 576 1588 
C 576 1128 621 351 1005 -471 
C 1312 -1135 1837 -1600 1914 -1600 
C 1946 -1600 1958 -1587 1958 -1561 
z
" transform="scale(0.015625)"/>
       <path id="CMR17-29" d="M 1683 1581 
C 1683 2040 1638 2817 1254 3639 
C 947 4303 422 4768 346 4768 
C 326 4768 301 4761 301 4729 
C 301 4717 307 4710 314 4697 
C 621 4378 1402 3568 1402 1584 
C 1402 -407 627 -1217 314 -1537 
C 307 -1549 301 -1556 301 -1568 
C 301 -1600 326 -1600 346 -1600 
C 416 -1600 960 -1128 1274 -426 
C 1594 281 1683 969 1683 1581 
z
" transform="scale(0.015625)"/>
      </defs>
      <use xlink:href="#CMMI12-67" transform="scale(0.996264)"/>
      <use xlink:href="#CMR17-28" transform="translate(50.285489 0) scale(0.996264)"/>
      <use xlink:href="#CMMI12-72" transform="translate(85.566257 0) scale(0.996264)"/>
      <use xlink:href="#CMR17-29" transform="translate(132.236869 0) scale(0.996264)"/>
     </g>
    </g>
   </g>
   <g id="line2d_14">
    <path d="M 53.434884 32.405791 
L 54.248147 192.079142 
L 55.06141 44.381292 
L 55.874673 83.729368 
L 56.687936 112.242466 
L 57.501199 37.849201 
L 58.314462 69.253487 
L 59.127725 72.324129 
L 59.940988 81.716679 
L 60.75425 19.8 
L 61.567513 83.729368 
L 63.194039 49.171493 
L 64.007302 87.847927 
L 64.820565 75.765365 
L 65.633828 98.077895 
L 66.447091 59.622839 
L 67.260354 111.101942 
L 68.073616 82.573432 
L 68.886879 127.595673 
L 69.700142 111.268848 
L 70.513405 114.5633 
L 71.326668 85.630241 
L 72.139931 111.39314 
L 72.953194 78.841408 
L 73.766457 93.457366 
L 74.57972 117.138112 
L 75.392982 116.2343 
L 76.206245 118.545362 
L 77.019508 122.729487 
L 77.832771 92.283297 
L 78.646034 114.14334 
L 79.459297 120.840262 
L 80.27256 125.34998 
L 81.085823 112.242466 
L 81.899086 109.993546 
L 82.712348 115.250012 
L 83.525611 132.201635 
L 84.338874 113.279306 
L 85.152137 118.811307 
L 85.9654 137.376235 
L 86.778663 124.747006 
L 87.591926 144.41195 
L 88.405189 136.331118 
L 89.218452 131.977375 
L 90.031714 139.658907 
L 90.844977 116.105531 
L 91.65824 138.924724 
L 92.471503 124.382579 
L 93.284766 140.064338 
L 94.098029 125.482707 
L 94.911292 127.163398 
L 95.724555 141.896089 
L 96.537818 139.289938 
L 97.35108 128.539402 
L 98.164343 134.359383 
L 98.977606 131.495116 
L 99.790869 127.689127 
L 100.604132 139.366465 
L 101.417395 141.091013 
L 102.230658 143.748262 
L 103.043921 137.556534 
L 103.857184 140.185303 
L 104.670446 127.172553 
L 105.483709 142.413303 
L 106.296972 131.592195 
L 107.110235 151.710597 
L 107.923498 136.637006 
L 108.736761 142.9825 
L 109.550024 134.929867 
L 110.363287 140.694899 
L 111.17655 136.249299 
L 111.989812 138.946458 
L 112.803075 137.496925 
L 113.616338 131.263956 
L 114.429601 130.747656 
L 115.242864 143.550966 
L 116.056127 138.640077 
L 116.86939 145.677252 
L 117.682653 128.435754 
L 118.495916 130.961935 
L 119.309178 132.691431 
L 120.122441 128.572695 
L 120.935704 134.591955 
L 121.748967 133.736956 
L 122.56223 149.359517 
L 123.375493 120.664543 
L 124.188756 121.366658 
L 125.002019 130.51018 
L 125.815282 145.136069 
L 126.628544 125.695608 
L 128.25507 135.33037 
L 129.068333 128.465962 
L 129.881596 123.964518 
L 130.694859 123.319283 
L 131.508122 132.615297 
L 132.321385 125.446224 
L 133.134648 115.687196 
L 133.94791 114.549305 
L 134.761173 130.712145 
L 135.574436 112.045824 
L 136.387699 133.175253 
L 137.200962 119.763313 
L 138.014225 117.208384 
L 138.827488 112.999212 
L 139.640751 115.053617 
L 140.454014 128.488301 
L 141.267276 120.152552 
L 142.080539 133.295288 
L 142.893802 114.77123 
L 143.707065 115.64358 
L 144.520328 124.48409 
L 145.333591 117.342166 
L 146.146854 121.045419 
L 146.960117 109.391156 
L 147.77338 117.467828 
L 148.586643 129.483791 
L 149.399905 102.389206 
L 150.213168 112.325977 
L 151.026431 119.116371 
L 151.839694 121.113208 
L 152.652957 114.034718 
L 153.46622 117.737298 
L 154.279483 122.342287 
L 155.092746 123.295552 
L 155.906009 114.530276 
L 156.719271 128.209801 
L 157.532534 123.27049 
L 158.345797 127.192577 
L 159.15906 128.989815 
L 159.972323 128.710678 
L 160.785586 130.243377 
L 161.598849 134.668499 
L 162.412112 131.904845 
L 163.225375 137.79904 
L 164.038637 129.569657 
L 164.8519 141.056248 
L 165.665163 142.001083 
L 166.478426 133.703938 
L 167.291689 138.310135 
L 168.104952 149.621828 
L 168.918215 137.874241 
L 169.731478 145.484566 
L 170.544741 146.566712 
L 171.358003 146.810924 
L 172.171266 152.773884 
L 172.984529 147.289414 
L 173.797792 155.184921 
L 174.611055 158.168581 
L 175.424318 152.359733 
L 176.237581 154.136959 
L 177.050844 164.725264 
L 177.864107 166.788859 
L 178.677369 169.988411 
L 179.490632 171.414022 
L 180.303895 175.882244 
L 181.117158 168.888488 
L 181.930421 173.127376 
L 183.556947 177.902536 
L 184.37021 183.489902 
L 185.183473 186.797639 
L 185.996735 183.106671 
L 186.809998 193.110467 
L 187.623261 189.064162 
L 188.436524 189.561769 
L 189.249787 192.734517 
L 190.06305 202.97673 
L 190.876313 196.494887 
L 191.689576 191.493829 
L 192.502839 206.626641 
L 193.316101 200.757041 
L 194.129364 209.277388 
L 194.942627 199.513789 
L 195.75589 208.114713 
L 196.569153 213.904182 
L 197.382416 216.086367 
L 198.195679 220.256792 
L 199.008942 217.042002 
L 199.822205 222.985445 
L 200.635467 222.265323 
L 201.44873 224.670004 
L 202.261993 228.680015 
L 203.075256 228.427547 
L 203.888519 230.598724 
L 204.701782 230.017616 
L 205.515045 235.190947 
L 206.328308 236.974036 
L 207.141571 233.998663 
L 207.954833 235.140656 
L 208.768096 240.960866 
L 209.581359 241.432723 
L 210.394622 242.518592 
L 211.207885 245.440416 
L 212.021148 247.872931 
L 212.834411 247.538206 
L 213.647674 245.994162 
L 214.460937 251.252799 
L 215.274199 248.805201 
L 216.087462 252.952118 
L 216.900725 251.263278 
L 218.527251 253.231681 
L 219.340514 255.079843 
L 220.153777 254.287646 
L 220.96704 258.577486 
L 221.780303 255.611821 
L 222.593565 260.141344 
L 223.406828 261.626604 
L 224.220091 259.684308 
L 225.033354 261.440792 
L 225.846617 263.462522 
L 226.65988 264.764171 
L 227.473143 265.355811 
L 228.286406 263.302348 
L 229.099669 264.171844 
L 229.912931 266.960437 
L 230.726194 265.475902 
L 231.539457 268.096751 
L 232.35272 268.657177 
L 233.165983 268.131234 
L 233.979246 268.955581 
L 234.792509 268.968826 
L 235.605772 270.448885 
L 236.419035 270.057092 
L 237.232297 270.858378 
L 238.04556 270.073432 
L 238.858823 270.474564 
L 239.672086 270.21994 
L 241.298612 270.493241 
L 242.111875 270.370591 
L 242.925138 271.27473 
L 243.738401 271.532805 
L 244.551663 271.153046 
L 245.364926 270.649908 
L 246.178189 270.781296 
L 246.991452 270.660524 
L 247.804715 271.040781 
L 249.431241 271.543907 
L 250.244504 271.421982 
L 251.057767 271.178107 
L 251.871029 271.426022 
L 252.684292 271.428017 
L 253.497555 270.944174 
L 254.310818 271.673888 
L 255.124081 271.554384 
L 255.937344 271.555832 
L 256.750607 270.959689 
L 257.56387 271.439654 
L 258.377133 271.560109 
L 259.190395 270.971005 
L 260.003658 271.445267 
L 260.816921 271.681463 
L 261.630184 271.215496 
L 263.25671 271.8 
L 264.069973 271.685075 
L 265.696499 271.114397 
L 266.509761 271.345555 
L 267.323024 271.2341 
L 268.94955 271.239235 
L 269.762813 271.354115 
L 270.576076 271.691976 
L 271.389339 271.69281 
L 272.202602 271.138187 
L 273.015865 270.919703 
L 273.829127 271.474731 
L 274.64239 271.146748 
L 275.455653 271.14956 
L 276.268916 271.697684 
L 277.082179 271.046452 
L 277.895442 271.374429 
L 278.708705 271.268493 
L 279.521968 271.485817 
L 280.335231 271.38024 
L 281.148493 271.595617 
L 281.961756 271.277691 
L 283.588282 271.176589 
L 284.401545 271.494886 
L 285.214808 270.867174 
L 286.028071 270.975333 
L 286.841334 271.499278 
L 287.654597 271.293174 
L 288.467859 271.295325 
L 289.281122 270.988283 
L 290.094385 271.196876 
L 290.907648 271.09698 
L 291.720911 270.58974 
L 293.347437 270.497399 
L 294.1607 271.007052 
L 294.973963 270.4063 
L 295.787225 270.511655 
L 296.600488 269.316794 
L 297.413751 270.022851 
L 298.227014 268.043143 
L 299.040277 269.540511 
L 300.666803 269.654434 
L 301.480066 270.249831 
L 302.293329 269.278472 
L 303.106591 268.897601 
L 303.919854 268.907385 
L 304.733117 269.304036 
L 305.54638 269.023184 
L 306.359643 269.801363 
L 307.986169 268.095881 
L 308.799432 268.488806 
L 309.612695 267.93031 
L 310.425957 267.942902 
L 311.23922 268.238301 
L 312.052483 267.96785 
L 313.679009 266.871534 
L 314.492272 267.352835 
L 315.305535 265.88165 
L 316.118798 266.825766 
L 316.932061 266.841452 
L 317.745324 264.741554 
L 318.558586 266.78084 
L 319.371849 265.790943 
L 320.185112 267.358929 
L 320.998375 265.282952 
L 321.811638 265.303021 
L 322.624901 263.607023 
L 323.438164 264.17226 
L 324.251427 265.182964 
L 325.06469 264.666074 
L 325.877952 264.509211 
L 326.691215 262.573859 
L 327.504478 262.246709 
L 328.317741 264.132626 
L 329.131004 264.68466 
L 329.944267 264.44212 
L 330.75753 262.096958 
L 331.570793 264.136112 
L 332.384056 264.768866 
L 333.197318 263.138418 
L 334.010581 261.864022 
L 334.823844 262.497854 
L 335.637107 260.801863 
L 336.45037 261.349198 
L 337.263633 258.466935 
L 338.076896 259.359478 
L 338.890159 260.672815 
L 339.703422 260.619777 
L 340.516684 261.075194 
L 341.329947 260.092332 
L 342.14321 260.378239 
L 342.956473 260.99846 
L 343.769736 258.684144 
L 344.582999 259.305631 
L 345.396262 258.674477 
L 346.209525 259.209495 
L 347.022788 256.594464 
L 348.649313 257.58475 
L 349.462576 258.116886 
L 350.275839 254.222874 
L 351.089102 255.414785 
L 351.902365 255.704084 
L 352.715628 255.829323 
L 353.528891 253.928258 
L 354.342154 254.784871 
L 355.155416 255.153339 
L 355.968679 256.323554 
L 356.781942 255.162941 
L 357.595205 251.930001 
L 358.408468 256.288665 
L 359.221731 252.831353 
L 360.034994 254.150835 
L 360.848257 253.960475 
L 361.66152 252.824438 
L 362.474782 248.547066 
L 363.288045 251.433472 
L 364.101308 253.600345 
L 364.914571 252.867432 
L 365.727834 252.994837 
L 366.541097 252.03431 
L 367.35436 251.930828 
L 368.167623 248.428382 
L 368.980886 251.417211 
L 369.794148 249.394496 
L 370.607411 248.685491 
L 371.420674 249.891907 
L 372.233937 247.278321 
L 373.0472 247.493099 
L 373.860463 246.568432 
L 374.673726 249.433365 
L 375.486989 246.92281 
L 376.300252 247.437591 
L 377.113514 245.921316 
L 377.926777 249.058947 
L 378.74004 245.976373 
L 379.553303 243.58026 
L 380.366566 246.477175 
L 381.179829 245.946638 
L 381.993092 242.902242 
L 382.806355 244.450426 
L 383.619618 244.076091 
L 384.43288 244.658695 
L 385.246143 242.819893 
L 386.059406 244.353155 
L 386.872669 243.982705 
L 387.685932 245.869466 
L 388.499195 241.577881 
L 389.312458 244.185364 
L 390.125721 244.830093 
L 390.938984 242.589529 
L 391.752246 241.294187 
L 392.565509 244.522754 
L 393.378772 240.152839 
L 394.192035 239.728981 
L 395.005298 242.653445 
L 395.818561 243.149044 
L 396.631824 242.721104 
L 397.445087 243.072815 
L 398.25835 243.140761 
L 399.884875 238.642736 
L 400.698138 241.521855 
L 401.511401 239.007643 
L 402.324664 238.735732 
L 403.137927 237.004658 
L 403.95119 237.571245 
L 404.764453 234.950975 
L 405.577716 238.075012 
L 406.390978 238.841936 
L 407.204241 236.580526 
L 408.017504 239.816535 
L 408.830767 238.589708 
L 409.64403 239.07536 
L 411.270556 235.894162 
L 412.083819 235.772317 
L 412.897082 238.425008 
L 413.710344 237.487939 
L 414.523607 235.948901 
L 415.33687 236.701661 
L 416.150133 234.768965 
L 417.776659 237.87175 
L 418.589922 233.285168 
L 419.403185 235.098793 
L 420.216448 233.986765 
L 421.02971 234.864542 
L 421.842973 233.42785 
L 422.656236 232.590326 
L 423.469499 234.254114 
L 424.282762 232.959367 
L 425.096025 232.848198 
L 425.909288 233.651675 
L 426.722551 230.41204 
L 427.535814 231.802439 
L 428.349076 232.602958 
L 429.162339 230.163394 
L 429.975602 230.834809 
L 430.788865 230.858797 
L 431.602128 231.976041 
L 432.415391 231.227351 
L 433.228654 232.851348 
L 434.041917 226.608291 
L 434.85518 229.319252 
L 435.668442 228.200783 
L 436.481705 229.05546 
L 437.294968 230.413418 
L 438.108231 229.110039 
L 438.921494 230.840731 
L 439.734757 229.41601 
L 440.54802 229.31671 
L 441.361283 228.96703 
L 442.174546 231.496936 
L 442.987808 231.206605 
L 443.801071 232.101325 
L 444.614334 229.634712 
L 445.427597 228.667504 
L 446.24086 225.475145 
L 447.054123 230.885204 
L 447.867386 233.929675 
L 448.680649 229.515404 
L 449.493912 227.391517 
L 450.307174 228.095533 
L 451.120437 227.022978 
L 451.9337 226.137907 
L 452.746963 229.398524 
L 453.560226 227.478805 
L 454.373489 229.14617 
L 455.186752 229.656465 
L 456.000015 226.358158 
L 456.813278 227.475009 
L 457.62654 227.203267 
L 458.439803 227.533192 
L 459.253066 227.741921 
L 459.253066 227.741921 
" clip-path="url(#peff97476db)" style="fill: none; stroke: #0000cd; stroke-width: 1.5; stroke-linecap: square"/>
   </g>
   <g id="patch_3">
    <path d="M 33.143975 284.4 
L 33.143975 7.2 
" style="fill: none; stroke: #000000; stroke-width: 0.8; stroke-linejoin: miter; stroke-linecap: square"/>
   </g>
   <g id="patch_4">
    <path d="M 479.543975 284.4 
L 479.543975 7.2 
" style="fill: none; stroke: #000000; stroke-width: 0.8; stroke-linejoin: miter; stroke-linecap: square"/>
   </g>
   <g id="patch_5">
    <path d="M 33.143975 284.4 
L 479.543975 284.4 
" style="fill: none; stroke: #000000; stroke-width: 0.8; stroke-linejoin: miter; stroke-linecap: square"/>
   </g>
   <g id="patch_6">
    <path d="M 33.143975 7.2 
L 479.543975 7.2 
" style="fill: none; stroke: #000000; stroke-width: 0.8; stroke-linejoin: miter; stroke-linecap: square"/>
   </g>
  </g>
 </g>
 <defs>
  <clipPath id="peff97476db">
   <rect x="33.143975" y="7.2" width="446.4" height="277.2"/>
  </clipPath>
 </defs>
</svg>
